ISO-10303-21;
HEADER;
/* Generated by software containing ST-Developer
 * from STEP Tools, Inc. (www.steptools.com) 
 */

FILE_DESCRIPTION(
/* description */ (''),
/* implementation_level */ '2;1');

FILE_NAME(
/* name */ 'case v14.step',
/* time_stamp */ '2025-08-10T01:09:23-04:00',
/* author */ (''),
/* organization */ (''),
/* preprocessor_version */ 'ST-DEVELOPER v20.1',
/* originating_system */ 'Autodesk Translation Framework v14.10.0.0',
/* authorisation */ '');

FILE_SCHEMA (('AUTOMOTIVE_DESIGN { 1 0 10303 214 3 1 1 }'));
ENDSEC;

DATA;
#10=MECHANICAL_DESIGN_GEOMETRIC_PRESENTATION_REPRESENTATION('',(#13),#961);
#11=SHAPE_REPRESENTATION_RELATIONSHIP('SRR','None',#970,#12);
#12=ADVANCED_BREP_SHAPE_REPRESENTATION('',(#14),#960);
#13=STYLED_ITEM('',(#979),#14);
#14=MANIFOLD_SOLID_BREP('Body1',#589);
#15=CONICAL_SURFACE('',#607,0.118110236220473,0.785398163397451);
#16=CONICAL_SURFACE('',#609,0.118110236220472,0.785398163397445);
#17=CONICAL_SURFACE('',#611,0.118110236220472,0.785398163397448);
#18=CONICAL_SURFACE('',#613,0.118110236220473,0.785398163397449);
#19=FACE_BOUND('',#85,.T.);
#20=FACE_BOUND('',#89,.T.);
#21=FACE_BOUND('',#106,.T.);
#22=FACE_BOUND('',#117,.T.);
#23=FACE_BOUND('',#119,.T.);
#24=FACE_BOUND('',#122,.T.);
#25=PLANE('',#594);
#26=PLANE('',#598);
#27=PLANE('',#599);
#28=PLANE('',#600);
#29=PLANE('',#601);
#30=PLANE('',#602);
#31=PLANE('',#603);
#32=PLANE('',#604);
#33=PLANE('',#605);
#34=PLANE('',#606);
#35=PLANE('',#617);
#36=PLANE('',#620);
#37=PLANE('',#621);
#38=PLANE('',#624);
#39=PLANE('',#627);
#40=PLANE('',#628);
#41=PLANE('',#629);
#42=PLANE('',#630);
#43=PLANE('',#631);
#44=PLANE('',#632);
#45=PLANE('',#633);
#46=PLANE('',#634);
#47=PLANE('',#635);
#48=PLANE('',#636);
#49=FACE_OUTER_BOUND('',#83,.T.);
#50=FACE_OUTER_BOUND('',#84,.T.);
#51=FACE_OUTER_BOUND('',#86,.T.);
#52=FACE_OUTER_BOUND('',#87,.T.);
#53=FACE_OUTER_BOUND('',#88,.T.);
#54=FACE_OUTER_BOUND('',#90,.T.);
#55=FACE_OUTER_BOUND('',#91,.T.);
#56=FACE_OUTER_BOUND('',#92,.T.);
#57=FACE_OUTER_BOUND('',#93,.T.);
#58=FACE_OUTER_BOUND('',#94,.T.);
#59=FACE_OUTER_BOUND('',#95,.T.);
#60=FACE_OUTER_BOUND('',#96,.T.);
#61=FACE_OUTER_BOUND('',#97,.T.);
#62=FACE_OUTER_BOUND('',#98,.T.);
#63=FACE_OUTER_BOUND('',#99,.T.);
#64=FACE_OUTER_BOUND('',#100,.T.);
#65=FACE_OUTER_BOUND('',#101,.T.);
#66=FACE_OUTER_BOUND('',#102,.T.);
#67=FACE_OUTER_BOUND('',#103,.T.);
#68=FACE_OUTER_BOUND('',#104,.T.);
#69=FACE_OUTER_BOUND('',#105,.T.);
#70=FACE_OUTER_BOUND('',#107,.T.);
#71=FACE_OUTER_BOUND('',#108,.T.);
#72=FACE_OUTER_BOUND('',#109,.T.);
#73=FACE_OUTER_BOUND('',#110,.T.);
#74=FACE_OUTER_BOUND('',#111,.T.);
#75=FACE_OUTER_BOUND('',#112,.T.);
#76=FACE_OUTER_BOUND('',#113,.T.);
#77=FACE_OUTER_BOUND('',#114,.T.);
#78=FACE_OUTER_BOUND('',#115,.T.);
#79=FACE_OUTER_BOUND('',#116,.T.);
#80=FACE_OUTER_BOUND('',#118,.T.);
#81=FACE_OUTER_BOUND('',#120,.T.);
#82=FACE_OUTER_BOUND('',#121,.T.);
#83=EDGE_LOOP('',(#393,#394,#395,#396));
#84=EDGE_LOOP('',(#397));
#85=EDGE_LOOP('',(#398));
#86=EDGE_LOOP('',(#399,#400,#401,#402));
#87=EDGE_LOOP('',(#403,#404,#405,#406));
#88=EDGE_LOOP('',(#407,#408,#409,#410));
#89=EDGE_LOOP('',(#411));
#90=EDGE_LOOP('',(#412,#413,#414,#415));
#91=EDGE_LOOP('',(#416,#417,#418,#419));
#92=EDGE_LOOP('',(#420,#421,#422,#423));
#93=EDGE_LOOP('',(#424,#425,#426,#427));
#94=EDGE_LOOP('',(#428,#429,#430,#431));
#95=EDGE_LOOP('',(#432,#433,#434,#435));
#96=EDGE_LOOP('',(#436,#437,#438,#439));
#97=EDGE_LOOP('',(#440,#441,#442));
#98=EDGE_LOOP('',(#443,#444,#445));
#99=EDGE_LOOP('',(#446,#447,#448));
#100=EDGE_LOOP('',(#449,#450,#451));
#101=EDGE_LOOP('',(#452,#453,#454,#455));
#102=EDGE_LOOP('',(#456,#457,#458,#459));
#103=EDGE_LOOP('',(#460,#461,#462,#463));
#104=EDGE_LOOP('',(#464,#465,#466,#467));
#105=EDGE_LOOP('',(#468,#469,#470,#471));
#106=EDGE_LOOP('',(#472,#473,#474,#475));
#107=EDGE_LOOP('',(#476,#477,#478,#479));
#108=EDGE_LOOP('',(#480,#481,#482,#483));
#109=EDGE_LOOP('',(#484,#485,#486,#487));
#110=EDGE_LOOP('',(#488,#489,#490,#491));
#111=EDGE_LOOP('',(#492,#493,#494,#495));
#112=EDGE_LOOP('',(#496,#497,#498,#499));
#113=EDGE_LOOP('',(#500,#501,#502,#503));
#114=EDGE_LOOP('',(#504,#505,#506,#507));
#115=EDGE_LOOP('',(#508,#509,#510,#511,#512,#513,#514,#515));
#116=EDGE_LOOP('',(#516,#517,#518,#519,#520,#521,#522,#523));
#117=EDGE_LOOP('',(#524,#525,#526,#527));
#118=EDGE_LOOP('',(#528,#529,#530,#531));
#119=EDGE_LOOP('',(#532,#533,#534,#535));
#120=EDGE_LOOP('',(#536,#537,#538,#539));
#121=EDGE_LOOP('',(#540,#541,#542,#543,#544,#545,#546,#547));
#122=EDGE_LOOP('',(#548));
#123=LINE('',#802,#189);
#124=LINE('',#809,#190);
#125=LINE('',#814,#191);
#126=LINE('',#816,#192);
#127=LINE('',#818,#193);
#128=LINE('',#819,#194);
#129=LINE('',#823,#195);
#130=LINE('',#825,#196);
#131=LINE('',#827,#197);
#132=LINE('',#828,#198);
#133=LINE('',#830,#199);
#134=LINE('',#831,#200);
#135=LINE('',#834,#201);
#136=LINE('',#836,#202);
#137=LINE('',#837,#203);
#138=LINE('',#840,#204);
#139=LINE('',#842,#205);
#140=LINE('',#843,#206);
#141=LINE('',#847,#207);
#142=LINE('',#849,#208);
#143=LINE('',#851,#209);
#144=LINE('',#852,#210);
#145=LINE('',#855,#211);
#146=LINE('',#857,#212);
#147=LINE('',#859,#213);
#148=LINE('',#860,#214);
#149=LINE('',#863,#215);
#150=LINE('',#865,#216);
#151=LINE('',#867,#217);
#152=LINE('',#868,#218);
#153=LINE('',#871,#219);
#154=LINE('',#872,#220);
#155=LINE('',#874,#221);
#156=LINE('',#875,#222);
#157=LINE('',#886,#223);
#158=LINE('',#889,#224);
#159=LINE('',#892,#225);
#160=LINE('',#893,#226);
#161=LINE('',#896,#227);
#162=LINE('',#900,#228);
#163=LINE('',#901,#229);
#164=LINE('',#904,#230);
#165=LINE('',#906,#231);
#166=LINE('',#907,#232);
#167=LINE('',#910,#233);
#168=LINE('',#913,#234);
#169=LINE('',#916,#235);
#170=LINE('',#917,#236);
#171=LINE('',#923,#237);
#172=LINE('',#925,#238);
#173=LINE('',#927,#239);
#174=LINE('',#928,#240);
#175=LINE('',#932,#241);
#176=LINE('',#934,#242);
#177=LINE('',#936,#243);
#178=LINE('',#937,#244);
#179=LINE('',#939,#245);
#180=LINE('',#940,#246);
#181=LINE('',#942,#247);
#182=LINE('',#943,#248);
#183=LINE('',#947,#249);
#184=LINE('',#948,#250);
#185=LINE('',#949,#251);
#186=LINE('',#951,#252);
#187=LINE('',#953,#253);
#188=LINE('',#955,#254);
#189=VECTOR('',#643,0.114848411915041);
#190=VECTOR('',#652,0.0599999999999999);
#191=VECTOR('',#657,0.393700787401575);
#192=VECTOR('',#658,0.393700787401575);
#193=VECTOR('',#659,0.393700787401575);
#194=VECTOR('',#660,0.393700787401575);
#195=VECTOR('',#663,0.393700787401575);
#196=VECTOR('',#664,0.393700787401575);
#197=VECTOR('',#665,0.393700787401575);
#198=VECTOR('',#666,0.393700787401575);
#199=VECTOR('',#669,0.393700787401575);
#200=VECTOR('',#670,0.393700787401575);
#201=VECTOR('',#673,0.393700787401575);
#202=VECTOR('',#674,0.393700787401575);
#203=VECTOR('',#675,0.393700787401575);
#204=VECTOR('',#678,0.393700787401575);
#205=VECTOR('',#679,0.393700787401575);
#206=VECTOR('',#680,0.393700787401575);
#207=VECTOR('',#683,0.393700787401575);
#208=VECTOR('',#684,0.393700787401575);
#209=VECTOR('',#685,0.393700787401575);
#210=VECTOR('',#686,0.393700787401575);
#211=VECTOR('',#689,0.393700787401575);
#212=VECTOR('',#690,0.393700787401575);
#213=VECTOR('',#691,0.393700787401575);
#214=VECTOR('',#692,0.393700787401575);
#215=VECTOR('',#695,0.393700787401575);
#216=VECTOR('',#696,0.393700787401575);
#217=VECTOR('',#697,0.393700787401575);
#218=VECTOR('',#698,0.393700787401575);
#219=VECTOR('',#701,0.393700787401575);
#220=VECTOR('',#702,0.393700787401575);
#221=VECTOR('',#703,0.393700787401575);
#222=VECTOR('',#704,0.393700787401575);
#223=VECTOR('',#723,0.393700787401575);
#224=VECTOR('',#726,0.393700787401575);
#225=VECTOR('',#729,0.393700787401575);
#226=VECTOR('',#730,0.393700787401575);
#227=VECTOR('',#733,0.393700787401575);
#228=VECTOR('',#738,0.393700787401575);
#229=VECTOR('',#739,0.393700787401575);
#230=VECTOR('',#742,0.393700787401575);
#231=VECTOR('',#743,0.393700787401575);
#232=VECTOR('',#744,0.393700787401575);
#233=VECTOR('',#747,0.393700787401575);
#234=VECTOR('',#750,0.393700787401575);
#235=VECTOR('',#753,0.393700787401575);
#236=VECTOR('',#754,0.393700787401575);
#237=VECTOR('',#761,0.393700787401575);
#238=VECTOR('',#762,0.393700787401575);
#239=VECTOR('',#763,0.393700787401575);
#240=VECTOR('',#764,0.393700787401575);
#241=VECTOR('',#767,0.393700787401575);
#242=VECTOR('',#768,0.393700787401575);
#243=VECTOR('',#769,0.393700787401575);
#244=VECTOR('',#770,0.393700787401575);
#245=VECTOR('',#773,0.393700787401575);
#246=VECTOR('',#774,0.393700787401575);
#247=VECTOR('',#777,0.393700787401575);
#248=VECTOR('',#778,0.393700787401575);
#249=VECTOR('',#781,0.393700787401575);
#250=VECTOR('',#782,0.393700787401575);
#251=VECTOR('',#783,0.393700787401575);
#252=VECTOR('',#786,0.393700787401575);
#253=VECTOR('',#789,0.393700787401575);
#254=VECTOR('',#792,0.393700787401575);
#255=CIRCLE('',#592,0.114848411915041);
#256=CIRCLE('',#593,0.114848411915041);
#257=CIRCLE('',#595,0.0599999999999999);
#258=CIRCLE('',#597,0.0599999999999999);
#259=CIRCLE('',#608,0.118110236220473);
#260=CIRCLE('',#610,0.118110236220472);
#261=CIRCLE('',#612,0.118110236220472);
#262=CIRCLE('',#614,0.118110236220473);
#263=CIRCLE('',#616,0.118110236220472);
#264=CIRCLE('',#619,0.118110236220472);
#265=CIRCLE('',#623,0.118110236220472);
#266=CIRCLE('',#626,0.118110236220472);
#267=VERTEX_POINT('',#799);
#268=VERTEX_POINT('',#801);
#269=VERTEX_POINT('',#805);
#270=VERTEX_POINT('',#808);
#271=VERTEX_POINT('',#812);
#272=VERTEX_POINT('',#813);
#273=VERTEX_POINT('',#815);
#274=VERTEX_POINT('',#817);
#275=VERTEX_POINT('',#821);
#276=VERTEX_POINT('',#822);
#277=VERTEX_POINT('',#824);
#278=VERTEX_POINT('',#826);
#279=VERTEX_POINT('',#833);
#280=VERTEX_POINT('',#835);
#281=VERTEX_POINT('',#839);
#282=VERTEX_POINT('',#841);
#283=VERTEX_POINT('',#845);
#284=VERTEX_POINT('',#846);
#285=VERTEX_POINT('',#848);
#286=VERTEX_POINT('',#850);
#287=VERTEX_POINT('',#854);
#288=VERTEX_POINT('',#856);
#289=VERTEX_POINT('',#858);
#290=VERTEX_POINT('',#862);
#291=VERTEX_POINT('',#864);
#292=VERTEX_POINT('',#866);
#293=VERTEX_POINT('',#870);
#294=VERTEX_POINT('',#873);
#295=VERTEX_POINT('',#885);
#296=VERTEX_POINT('',#887);
#297=VERTEX_POINT('',#891);
#298=VERTEX_POINT('',#895);
#299=VERTEX_POINT('',#899);
#300=VERTEX_POINT('',#903);
#301=VERTEX_POINT('',#905);
#302=VERTEX_POINT('',#909);
#303=VERTEX_POINT('',#911);
#304=VERTEX_POINT('',#915);
#305=VERTEX_POINT('',#921);
#306=VERTEX_POINT('',#922);
#307=VERTEX_POINT('',#924);
#308=VERTEX_POINT('',#926);
#309=VERTEX_POINT('',#930);
#310=VERTEX_POINT('',#931);
#311=VERTEX_POINT('',#933);
#312=VERTEX_POINT('',#935);
#313=VERTEX_POINT('',#945);
#314=VERTEX_POINT('',#946);
#315=EDGE_CURVE('',#267,#267,#255,.T.);
#316=EDGE_CURVE('',#267,#268,#123,.T.);
#317=EDGE_CURVE('',#268,#268,#256,.T.);
#318=EDGE_CURVE('',#269,#269,#257,.T.);
#319=EDGE_CURVE('',#269,#270,#124,.T.);
#320=EDGE_CURVE('',#270,#270,#258,.T.);
#321=EDGE_CURVE('',#271,#272,#125,.T.);
#322=EDGE_CURVE('',#271,#273,#126,.T.);
#323=EDGE_CURVE('',#273,#274,#127,.T.);
#324=EDGE_CURVE('',#272,#274,#128,.T.);
#325=EDGE_CURVE('',#275,#276,#129,.T.);
#326=EDGE_CURVE('',#275,#277,#130,.T.);
#327=EDGE_CURVE('',#277,#278,#131,.T.);
#328=EDGE_CURVE('',#276,#278,#132,.T.);
#329=EDGE_CURVE('',#274,#277,#133,.T.);
#330=EDGE_CURVE('',#278,#273,#134,.T.);
#331=EDGE_CURVE('',#279,#276,#135,.T.);
#332=EDGE_CURVE('',#280,#279,#136,.T.);
#333=EDGE_CURVE('',#280,#275,#137,.T.);
#334=EDGE_CURVE('',#272,#281,#138,.T.);
#335=EDGE_CURVE('',#282,#281,#139,.T.);
#336=EDGE_CURVE('',#271,#282,#140,.T.);
#337=EDGE_CURVE('',#283,#284,#141,.T.);
#338=EDGE_CURVE('',#284,#285,#142,.T.);
#339=EDGE_CURVE('',#285,#286,#143,.T.);
#340=EDGE_CURVE('',#286,#283,#144,.T.);
#341=EDGE_CURVE('',#287,#285,#145,.T.);
#342=EDGE_CURVE('',#285,#288,#146,.T.);
#343=EDGE_CURVE('',#288,#289,#147,.T.);
#344=EDGE_CURVE('',#289,#287,#148,.T.);
#345=EDGE_CURVE('',#290,#288,#149,.T.);
#346=EDGE_CURVE('',#288,#291,#150,.T.);
#347=EDGE_CURVE('',#291,#292,#151,.T.);
#348=EDGE_CURVE('',#292,#290,#152,.T.);
#349=EDGE_CURVE('',#293,#291,#153,.T.);
#350=EDGE_CURVE('',#291,#284,#154,.T.);
#351=EDGE_CURVE('',#284,#294,#155,.T.);
#352=EDGE_CURVE('',#294,#293,#156,.T.);
#353=EDGE_CURVE('',#293,#292,#259,.T.);
#354=EDGE_CURVE('',#290,#289,#260,.T.);
#355=EDGE_CURVE('',#287,#286,#261,.T.);
#356=EDGE_CURVE('',#283,#294,#262,.T.);
#357=EDGE_CURVE('',#290,#295,#157,.T.);
#358=EDGE_CURVE('',#295,#296,#263,.T.);
#359=EDGE_CURVE('',#296,#289,#158,.T.);
#360=EDGE_CURVE('',#297,#292,#159,.T.);
#361=EDGE_CURVE('',#295,#297,#160,.T.);
#362=EDGE_CURVE('',#293,#298,#161,.T.);
#363=EDGE_CURVE('',#298,#297,#264,.T.);
#364=EDGE_CURVE('',#299,#294,#162,.T.);
#365=EDGE_CURVE('',#298,#299,#163,.T.);
#366=EDGE_CURVE('',#281,#300,#164,.T.);
#367=EDGE_CURVE('',#300,#301,#165,.T.);
#368=EDGE_CURVE('',#301,#282,#166,.T.);
#369=EDGE_CURVE('',#287,#302,#167,.T.);
#370=EDGE_CURVE('',#302,#303,#265,.T.);
#371=EDGE_CURVE('',#303,#286,#168,.T.);
#372=EDGE_CURVE('',#304,#303,#169,.T.);
#373=EDGE_CURVE('',#283,#304,#170,.T.);
#374=EDGE_CURVE('',#304,#299,#266,.T.);
#375=EDGE_CURVE('',#305,#306,#171,.T.);
#376=EDGE_CURVE('',#307,#305,#172,.T.);
#377=EDGE_CURVE('',#307,#308,#173,.T.);
#378=EDGE_CURVE('',#306,#308,#174,.T.);
#379=EDGE_CURVE('',#309,#310,#175,.T.);
#380=EDGE_CURVE('',#311,#309,#176,.T.);
#381=EDGE_CURVE('',#311,#312,#177,.T.);
#382=EDGE_CURVE('',#310,#312,#178,.T.);
#383=EDGE_CURVE('',#309,#306,#179,.T.);
#384=EDGE_CURVE('',#305,#310,#180,.T.);
#385=EDGE_CURVE('',#308,#311,#181,.T.);
#386=EDGE_CURVE('',#312,#307,#182,.T.);
#387=EDGE_CURVE('',#313,#314,#183,.T.);
#388=EDGE_CURVE('',#313,#301,#184,.T.);
#389=EDGE_CURVE('',#314,#300,#185,.T.);
#390=EDGE_CURVE('',#279,#313,#186,.T.);
#391=EDGE_CURVE('',#314,#280,#187,.T.);
#392=EDGE_CURVE('',#302,#296,#188,.T.);
#393=ORIENTED_EDGE('',*,*,#315,.F.);
#394=ORIENTED_EDGE('',*,*,#316,.T.);
#395=ORIENTED_EDGE('',*,*,#317,.T.);
#396=ORIENTED_EDGE('',*,*,#316,.F.);
#397=ORIENTED_EDGE('',*,*,#317,.F.);
#398=ORIENTED_EDGE('',*,*,#318,.F.);
#399=ORIENTED_EDGE('',*,*,#318,.T.);
#400=ORIENTED_EDGE('',*,*,#319,.T.);
#401=ORIENTED_EDGE('',*,*,#320,.F.);
#402=ORIENTED_EDGE('',*,*,#319,.F.);
#403=ORIENTED_EDGE('',*,*,#321,.F.);
#404=ORIENTED_EDGE('',*,*,#322,.T.);
#405=ORIENTED_EDGE('',*,*,#323,.T.);
#406=ORIENTED_EDGE('',*,*,#324,.F.);
#407=ORIENTED_EDGE('',*,*,#325,.F.);
#408=ORIENTED_EDGE('',*,*,#326,.T.);
#409=ORIENTED_EDGE('',*,*,#327,.T.);
#410=ORIENTED_EDGE('',*,*,#328,.F.);
#411=ORIENTED_EDGE('',*,*,#320,.T.);
#412=ORIENTED_EDGE('',*,*,#327,.F.);
#413=ORIENTED_EDGE('',*,*,#329,.F.);
#414=ORIENTED_EDGE('',*,*,#323,.F.);
#415=ORIENTED_EDGE('',*,*,#330,.F.);
#416=ORIENTED_EDGE('',*,*,#325,.T.);
#417=ORIENTED_EDGE('',*,*,#331,.F.);
#418=ORIENTED_EDGE('',*,*,#332,.F.);
#419=ORIENTED_EDGE('',*,*,#333,.T.);
#420=ORIENTED_EDGE('',*,*,#321,.T.);
#421=ORIENTED_EDGE('',*,*,#334,.T.);
#422=ORIENTED_EDGE('',*,*,#335,.F.);
#423=ORIENTED_EDGE('',*,*,#336,.F.);
#424=ORIENTED_EDGE('',*,*,#337,.T.);
#425=ORIENTED_EDGE('',*,*,#338,.T.);
#426=ORIENTED_EDGE('',*,*,#339,.T.);
#427=ORIENTED_EDGE('',*,*,#340,.T.);
#428=ORIENTED_EDGE('',*,*,#341,.T.);
#429=ORIENTED_EDGE('',*,*,#342,.T.);
#430=ORIENTED_EDGE('',*,*,#343,.T.);
#431=ORIENTED_EDGE('',*,*,#344,.T.);
#432=ORIENTED_EDGE('',*,*,#345,.T.);
#433=ORIENTED_EDGE('',*,*,#346,.T.);
#434=ORIENTED_EDGE('',*,*,#347,.T.);
#435=ORIENTED_EDGE('',*,*,#348,.T.);
#436=ORIENTED_EDGE('',*,*,#349,.T.);
#437=ORIENTED_EDGE('',*,*,#350,.T.);
#438=ORIENTED_EDGE('',*,*,#351,.T.);
#439=ORIENTED_EDGE('',*,*,#352,.T.);
#440=ORIENTED_EDGE('',*,*,#349,.F.);
#441=ORIENTED_EDGE('',*,*,#353,.T.);
#442=ORIENTED_EDGE('',*,*,#347,.F.);
#443=ORIENTED_EDGE('',*,*,#345,.F.);
#444=ORIENTED_EDGE('',*,*,#354,.T.);
#445=ORIENTED_EDGE('',*,*,#343,.F.);
#446=ORIENTED_EDGE('',*,*,#341,.F.);
#447=ORIENTED_EDGE('',*,*,#355,.T.);
#448=ORIENTED_EDGE('',*,*,#339,.F.);
#449=ORIENTED_EDGE('',*,*,#337,.F.);
#450=ORIENTED_EDGE('',*,*,#356,.T.);
#451=ORIENTED_EDGE('',*,*,#351,.F.);
#452=ORIENTED_EDGE('',*,*,#354,.F.);
#453=ORIENTED_EDGE('',*,*,#357,.T.);
#454=ORIENTED_EDGE('',*,*,#358,.T.);
#455=ORIENTED_EDGE('',*,*,#359,.T.);
#456=ORIENTED_EDGE('',*,*,#348,.F.);
#457=ORIENTED_EDGE('',*,*,#360,.F.);
#458=ORIENTED_EDGE('',*,*,#361,.F.);
#459=ORIENTED_EDGE('',*,*,#357,.F.);
#460=ORIENTED_EDGE('',*,*,#353,.F.);
#461=ORIENTED_EDGE('',*,*,#362,.T.);
#462=ORIENTED_EDGE('',*,*,#363,.T.);
#463=ORIENTED_EDGE('',*,*,#360,.T.);
#464=ORIENTED_EDGE('',*,*,#352,.F.);
#465=ORIENTED_EDGE('',*,*,#364,.F.);
#466=ORIENTED_EDGE('',*,*,#365,.F.);
#467=ORIENTED_EDGE('',*,*,#362,.F.);
#468=ORIENTED_EDGE('',*,*,#338,.F.);
#469=ORIENTED_EDGE('',*,*,#350,.F.);
#470=ORIENTED_EDGE('',*,*,#346,.F.);
#471=ORIENTED_EDGE('',*,*,#342,.F.);
#472=ORIENTED_EDGE('',*,*,#366,.T.);
#473=ORIENTED_EDGE('',*,*,#367,.T.);
#474=ORIENTED_EDGE('',*,*,#368,.T.);
#475=ORIENTED_EDGE('',*,*,#335,.T.);
#476=ORIENTED_EDGE('',*,*,#355,.F.);
#477=ORIENTED_EDGE('',*,*,#369,.T.);
#478=ORIENTED_EDGE('',*,*,#370,.T.);
#479=ORIENTED_EDGE('',*,*,#371,.T.);
#480=ORIENTED_EDGE('',*,*,#340,.F.);
#481=ORIENTED_EDGE('',*,*,#371,.F.);
#482=ORIENTED_EDGE('',*,*,#372,.F.);
#483=ORIENTED_EDGE('',*,*,#373,.F.);
#484=ORIENTED_EDGE('',*,*,#356,.F.);
#485=ORIENTED_EDGE('',*,*,#373,.T.);
#486=ORIENTED_EDGE('',*,*,#374,.T.);
#487=ORIENTED_EDGE('',*,*,#364,.T.);
#488=ORIENTED_EDGE('',*,*,#375,.F.);
#489=ORIENTED_EDGE('',*,*,#376,.F.);
#490=ORIENTED_EDGE('',*,*,#377,.T.);
#491=ORIENTED_EDGE('',*,*,#378,.F.);
#492=ORIENTED_EDGE('',*,*,#379,.F.);
#493=ORIENTED_EDGE('',*,*,#380,.F.);
#494=ORIENTED_EDGE('',*,*,#381,.T.);
#495=ORIENTED_EDGE('',*,*,#382,.F.);
#496=ORIENTED_EDGE('',*,*,#383,.F.);
#497=ORIENTED_EDGE('',*,*,#379,.T.);
#498=ORIENTED_EDGE('',*,*,#384,.F.);
#499=ORIENTED_EDGE('',*,*,#375,.T.);
#500=ORIENTED_EDGE('',*,*,#385,.F.);
#501=ORIENTED_EDGE('',*,*,#377,.F.);
#502=ORIENTED_EDGE('',*,*,#386,.F.);
#503=ORIENTED_EDGE('',*,*,#381,.F.);
#504=ORIENTED_EDGE('',*,*,#387,.F.);
#505=ORIENTED_EDGE('',*,*,#388,.T.);
#506=ORIENTED_EDGE('',*,*,#367,.F.);
#507=ORIENTED_EDGE('',*,*,#389,.F.);
#508=ORIENTED_EDGE('',*,*,#390,.F.);
#509=ORIENTED_EDGE('',*,*,#331,.T.);
#510=ORIENTED_EDGE('',*,*,#328,.T.);
#511=ORIENTED_EDGE('',*,*,#330,.T.);
#512=ORIENTED_EDGE('',*,*,#322,.F.);
#513=ORIENTED_EDGE('',*,*,#336,.T.);
#514=ORIENTED_EDGE('',*,*,#368,.F.);
#515=ORIENTED_EDGE('',*,*,#388,.F.);
#516=ORIENTED_EDGE('',*,*,#391,.F.);
#517=ORIENTED_EDGE('',*,*,#389,.T.);
#518=ORIENTED_EDGE('',*,*,#366,.F.);
#519=ORIENTED_EDGE('',*,*,#334,.F.);
#520=ORIENTED_EDGE('',*,*,#324,.T.);
#521=ORIENTED_EDGE('',*,*,#329,.T.);
#522=ORIENTED_EDGE('',*,*,#326,.F.);
#523=ORIENTED_EDGE('',*,*,#333,.F.);
#524=ORIENTED_EDGE('',*,*,#382,.T.);
#525=ORIENTED_EDGE('',*,*,#386,.T.);
#526=ORIENTED_EDGE('',*,*,#376,.T.);
#527=ORIENTED_EDGE('',*,*,#384,.T.);
#528=ORIENTED_EDGE('',*,*,#344,.F.);
#529=ORIENTED_EDGE('',*,*,#359,.F.);
#530=ORIENTED_EDGE('',*,*,#392,.F.);
#531=ORIENTED_EDGE('',*,*,#369,.F.);
#532=ORIENTED_EDGE('',*,*,#380,.T.);
#533=ORIENTED_EDGE('',*,*,#383,.T.);
#534=ORIENTED_EDGE('',*,*,#378,.T.);
#535=ORIENTED_EDGE('',*,*,#385,.T.);
#536=ORIENTED_EDGE('',*,*,#390,.T.);
#537=ORIENTED_EDGE('',*,*,#387,.T.);
#538=ORIENTED_EDGE('',*,*,#391,.T.);
#539=ORIENTED_EDGE('',*,*,#332,.T.);
#540=ORIENTED_EDGE('',*,*,#358,.F.);
#541=ORIENTED_EDGE('',*,*,#361,.T.);
#542=ORIENTED_EDGE('',*,*,#363,.F.);
#543=ORIENTED_EDGE('',*,*,#365,.T.);
#544=ORIENTED_EDGE('',*,*,#374,.F.);
#545=ORIENTED_EDGE('',*,*,#372,.T.);
#546=ORIENTED_EDGE('',*,*,#370,.F.);
#547=ORIENTED_EDGE('',*,*,#392,.T.);
#548=ORIENTED_EDGE('',*,*,#315,.T.);
#549=CYLINDRICAL_SURFACE('',#591,0.114848411915041);
#550=CYLINDRICAL_SURFACE('',#596,0.0599999999999999);
#551=CYLINDRICAL_SURFACE('',#615,0.118110236220472);
#552=CYLINDRICAL_SURFACE('',#618,0.118110236220472);
#553=CYLINDRICAL_SURFACE('',#622,0.118110236220472);
#554=CYLINDRICAL_SURFACE('',#625,0.118110236220472);
#555=ADVANCED_FACE('',(#49),#549,.F.);
#556=ADVANCED_FACE('',(#50,#19),#25,.T.);
#557=ADVANCED_FACE('',(#51),#550,.F.);
#558=ADVANCED_FACE('',(#52),#26,.F.);
#559=ADVANCED_FACE('',(#53,#20),#27,.F.);
#560=ADVANCED_FACE('',(#54),#28,.F.);
#561=ADVANCED_FACE('',(#55),#29,.T.);
#562=ADVANCED_FACE('',(#56),#30,.T.);
#563=ADVANCED_FACE('',(#57),#31,.T.);
#564=ADVANCED_FACE('',(#58),#32,.T.);
#565=ADVANCED_FACE('',(#59),#33,.T.);
#566=ADVANCED_FACE('',(#60),#34,.T.);
#567=ADVANCED_FACE('',(#61),#15,.T.);
#568=ADVANCED_FACE('',(#62),#16,.T.);
#569=ADVANCED_FACE('',(#63),#17,.T.);
#570=ADVANCED_FACE('',(#64),#18,.T.);
#571=ADVANCED_FACE('',(#65),#551,.T.);
#572=ADVANCED_FACE('',(#66),#35,.T.);
#573=ADVANCED_FACE('',(#67),#552,.T.);
#574=ADVANCED_FACE('',(#68),#36,.T.);
#575=ADVANCED_FACE('',(#69,#21),#37,.T.);
#576=ADVANCED_FACE('',(#70),#553,.T.);
#577=ADVANCED_FACE('',(#71),#38,.T.);
#578=ADVANCED_FACE('',(#72),#554,.T.);
#579=ADVANCED_FACE('',(#73),#39,.F.);
#580=ADVANCED_FACE('',(#74),#40,.F.);
#581=ADVANCED_FACE('',(#75),#41,.F.);
#582=ADVANCED_FACE('',(#76),#42,.F.);
#583=ADVANCED_FACE('',(#77),#43,.T.);
#584=ADVANCED_FACE('',(#78),#44,.T.);
#585=ADVANCED_FACE('',(#79,#22),#45,.T.);
#586=ADVANCED_FACE('',(#80,#23),#46,.T.);
#587=ADVANCED_FACE('',(#81),#47,.T.);
#588=ADVANCED_FACE('',(#82,#24),#48,.F.);
#589=CLOSED_SHELL('',(#555,#556,#557,#558,#559,#560,#561,#562,#563,#564,
#565,#566,#567,#568,#569,#570,#571,#572,#573,#574,#575,#576,#577,#578,#579,
#580,#581,#582,#583,#584,#585,#586,#587,#588));
#590=AXIS2_PLACEMENT_3D('',#797,#637,#638);
#591=AXIS2_PLACEMENT_3D('',#798,#639,#640);
#592=AXIS2_PLACEMENT_3D('',#800,#641,#642);
#593=AXIS2_PLACEMENT_3D('',#803,#644,#645);
#594=AXIS2_PLACEMENT_3D('',#804,#646,#647);
#595=AXIS2_PLACEMENT_3D('',#806,#648,#649);
#596=AXIS2_PLACEMENT_3D('',#807,#650,#651);
#597=AXIS2_PLACEMENT_3D('',#810,#653,#654);
#598=AXIS2_PLACEMENT_3D('',#811,#655,#656);
#599=AXIS2_PLACEMENT_3D('',#820,#661,#662);
#600=AXIS2_PLACEMENT_3D('',#829,#667,#668);
#601=AXIS2_PLACEMENT_3D('',#832,#671,#672);
#602=AXIS2_PLACEMENT_3D('',#838,#676,#677);
#603=AXIS2_PLACEMENT_3D('',#844,#681,#682);
#604=AXIS2_PLACEMENT_3D('',#853,#687,#688);
#605=AXIS2_PLACEMENT_3D('',#861,#693,#694);
#606=AXIS2_PLACEMENT_3D('',#869,#699,#700);
#607=AXIS2_PLACEMENT_3D('',#876,#705,#706);
#608=AXIS2_PLACEMENT_3D('',#877,#707,#708);
#609=AXIS2_PLACEMENT_3D('',#878,#709,#710);
#610=AXIS2_PLACEMENT_3D('',#879,#711,#712);
#611=AXIS2_PLACEMENT_3D('',#880,#713,#714);
#612=AXIS2_PLACEMENT_3D('',#881,#715,#716);
#613=AXIS2_PLACEMENT_3D('',#882,#717,#718);
#614=AXIS2_PLACEMENT_3D('',#883,#719,#720);
#615=AXIS2_PLACEMENT_3D('',#884,#721,#722);
#616=AXIS2_PLACEMENT_3D('',#888,#724,#725);
#617=AXIS2_PLACEMENT_3D('',#890,#727,#728);
#618=AXIS2_PLACEMENT_3D('',#894,#731,#732);
#619=AXIS2_PLACEMENT_3D('',#897,#734,#735);
#620=AXIS2_PLACEMENT_3D('',#898,#736,#737);
#621=AXIS2_PLACEMENT_3D('',#902,#740,#741);
#622=AXIS2_PLACEMENT_3D('',#908,#745,#746);
#623=AXIS2_PLACEMENT_3D('',#912,#748,#749);
#624=AXIS2_PLACEMENT_3D('',#914,#751,#752);
#625=AXIS2_PLACEMENT_3D('',#918,#755,#756);
#626=AXIS2_PLACEMENT_3D('',#919,#757,#758);
#627=AXIS2_PLACEMENT_3D('',#920,#759,#760);
#628=AXIS2_PLACEMENT_3D('',#929,#765,#766);
#629=AXIS2_PLACEMENT_3D('',#938,#771,#772);
#630=AXIS2_PLACEMENT_3D('',#941,#775,#776);
#631=AXIS2_PLACEMENT_3D('',#944,#779,#780);
#632=AXIS2_PLACEMENT_3D('',#950,#784,#785);
#633=AXIS2_PLACEMENT_3D('',#952,#787,#788);
#634=AXIS2_PLACEMENT_3D('',#954,#790,#791);
#635=AXIS2_PLACEMENT_3D('',#956,#793,#794);
#636=AXIS2_PLACEMENT_3D('',#957,#795,#796);
#637=DIRECTION('axis',(0.,0.,1.));
#638=DIRECTION('refdir',(1.,0.,0.));
#639=DIRECTION('center_axis',(0.,0.,1.));
#640=DIRECTION('ref_axis',(1.,0.,0.));
#641=DIRECTION('center_axis',(0.,0.,1.));
#642=DIRECTION('ref_axis',(1.,0.,0.));
#643=DIRECTION('',(0.,0.,1.));
#644=DIRECTION('center_axis',(0.,0.,1.));
#645=DIRECTION('ref_axis',(1.,0.,0.));
#646=DIRECTION('center_axis',(0.,0.,-1.));
#647=DIRECTION('ref_axis',(1.,0.,0.));
#648=DIRECTION('center_axis',(0.,0.,-1.));
#649=DIRECTION('ref_axis',(1.,0.,0.));
#650=DIRECTION('center_axis',(0.,0.,1.));
#651=DIRECTION('ref_axis',(1.,0.,0.));
#652=DIRECTION('',(0.,0.,1.));
#653=DIRECTION('center_axis',(0.,0.,-1.));
#654=DIRECTION('ref_axis',(1.,0.,0.));
#655=DIRECTION('center_axis',(0.,0.,1.));
#656=DIRECTION('ref_axis',(0.,1.,0.));
#657=DIRECTION('',(0.,1.,0.));
#658=DIRECTION('',(-1.,0.,0.));
#659=DIRECTION('',(0.,1.,0.));
#660=DIRECTION('',(-1.,0.,0.));
#661=DIRECTION('center_axis',(0.,0.,-1.));
#662=DIRECTION('ref_axis',(0.,-1.,0.));
#663=DIRECTION('',(0.,-1.,0.));
#664=DIRECTION('',(-1.,0.,0.));
#665=DIRECTION('',(0.,-1.,0.));
#666=DIRECTION('',(-1.,0.,0.));
#667=DIRECTION('center_axis',(-1.,0.,0.));
#668=DIRECTION('ref_axis',(0.,0.,1.));
#669=DIRECTION('',(0.,0.,-1.));
#670=DIRECTION('',(0.,0.,1.));
#671=DIRECTION('center_axis',(1.,0.,0.));
#672=DIRECTION('ref_axis',(0.,1.,0.));
#673=DIRECTION('',(0.,0.,1.));
#674=DIRECTION('',(0.,-1.,0.));
#675=DIRECTION('',(0.,0.,1.));
#676=DIRECTION('center_axis',(1.,0.,0.));
#677=DIRECTION('ref_axis',(0.,1.,0.));
#678=DIRECTION('',(0.,0.,1.));
#679=DIRECTION('',(0.,1.,0.));
#680=DIRECTION('',(0.,0.,1.));
#681=DIRECTION('center_axis',(-0.707106781186546,0.,0.707106781186549));
#682=DIRECTION('ref_axis',(0.707106781186549,0.,0.707106781186546));
#683=DIRECTION('',(0.707106781186549,0.,0.707106781186546));
#684=DIRECTION('',(0.,1.,0.));
#685=DIRECTION('',(-0.707106781186549,0.,-0.707106781186546));
#686=DIRECTION('',(0.,-1.,0.));
#687=DIRECTION('center_axis',(0.,0.707106781186549,0.707106781186546));
#688=DIRECTION('ref_axis',(1.,0.,0.));
#689=DIRECTION('',(0.,-0.707106781186546,0.707106781186549));
#690=DIRECTION('',(1.,0.,0.));
#691=DIRECTION('',(0.,0.707106781186546,-0.707106781186549));
#692=DIRECTION('',(-1.,0.,0.));
#693=DIRECTION('center_axis',(0.707106781186551,0.,0.707106781186544));
#694=DIRECTION('ref_axis',(0.707106781186544,0.,-0.707106781186551));
#695=DIRECTION('',(-0.707106781186544,0.,0.707106781186551));
#696=DIRECTION('',(0.,-1.,0.));
#697=DIRECTION('',(0.707106781186544,0.,-0.707106781186551));
#698=DIRECTION('',(0.,1.,0.));
#699=DIRECTION('center_axis',(0.,-0.707106781186547,0.707106781186548));
#700=DIRECTION('ref_axis',(1.,0.,0.));
#701=DIRECTION('',(0.,0.707106781186548,0.707106781186547));
#702=DIRECTION('',(-1.,0.,0.));
#703=DIRECTION('',(0.,-0.707106781186548,-0.707106781186547));
#704=DIRECTION('',(1.,0.,0.));
#705=DIRECTION('center_axis',(0.,0.,-1.));
#706=DIRECTION('ref_axis',(0.707106781186553,-0.707106781186542,0.));
#707=DIRECTION('center_axis',(0.,0.,1.));
#708=DIRECTION('ref_axis',(0.707106781186553,-0.707106781186542,0.));
#709=DIRECTION('center_axis',(0.,0.,-1.));
#710=DIRECTION('ref_axis',(0.707106781186539,0.707106781186556,0.));
#711=DIRECTION('center_axis',(0.,0.,1.));
#712=DIRECTION('ref_axis',(0.707106781186539,0.707106781186556,0.));
#713=DIRECTION('center_axis',(0.,0.,-1.));
#714=DIRECTION('ref_axis',(-0.707106781186548,0.707106781186548,0.));
#715=DIRECTION('center_axis',(0.,0.,1.));
#716=DIRECTION('ref_axis',(-0.707106781186548,0.707106781186548,0.));
#717=DIRECTION('center_axis',(0.,0.,-1.));
#718=DIRECTION('ref_axis',(-0.70710678118655,-0.707106781186545,0.));
#719=DIRECTION('center_axis',(0.,0.,1.));
#720=DIRECTION('ref_axis',(-0.70710678118655,-0.707106781186545,0.));
#721=DIRECTION('center_axis',(0.,0.,1.));
#722=DIRECTION('ref_axis',(0.707106781186544,0.707106781186551,0.));
#723=DIRECTION('',(0.,0.,-1.));
#724=DIRECTION('center_axis',(0.,0.,1.));
#725=DIRECTION('ref_axis',(0.707106781186544,0.707106781186551,0.));
#726=DIRECTION('',(0.,0.,1.));
#727=DIRECTION('center_axis',(1.,0.,0.));
#728=DIRECTION('ref_axis',(0.,1.,0.));
#729=DIRECTION('',(0.,0.,1.));
#730=DIRECTION('',(0.,-1.,0.));
#731=DIRECTION('center_axis',(0.,0.,1.));
#732=DIRECTION('ref_axis',(0.707106781186548,-0.707106781186548,0.));
#733=DIRECTION('',(0.,0.,-1.));
#734=DIRECTION('center_axis',(0.,0.,1.));
#735=DIRECTION('ref_axis',(0.707106781186548,-0.707106781186548,0.));
#736=DIRECTION('center_axis',(0.,-1.,0.));
#737=DIRECTION('ref_axis',(1.,0.,0.));
#738=DIRECTION('',(0.,0.,1.));
#739=DIRECTION('',(-1.,0.,0.));
#740=DIRECTION('center_axis',(0.,0.,1.));
#741=DIRECTION('ref_axis',(1.,0.,0.));
#742=DIRECTION('',(1.,0.,0.));
#743=DIRECTION('',(0.,-1.,0.));
#744=DIRECTION('',(-1.,0.,0.));
#745=DIRECTION('center_axis',(0.,0.,1.));
#746=DIRECTION('ref_axis',(-0.707106781186548,0.707106781186548,0.));
#747=DIRECTION('',(0.,0.,-1.));
#748=DIRECTION('center_axis',(0.,0.,1.));
#749=DIRECTION('ref_axis',(-0.707106781186548,0.707106781186548,0.));
#750=DIRECTION('',(0.,0.,1.));
#751=DIRECTION('center_axis',(-1.,0.,0.));
#752=DIRECTION('ref_axis',(0.,-1.,0.));
#753=DIRECTION('',(0.,1.,0.));
#754=DIRECTION('',(0.,0.,-1.));
#755=DIRECTION('center_axis',(0.,0.,1.));
#756=DIRECTION('ref_axis',(-0.707106781186551,-0.707106781186544,0.));
#757=DIRECTION('center_axis',(0.,0.,1.));
#758=DIRECTION('ref_axis',(-0.707106781186551,-0.707106781186544,0.));
#759=DIRECTION('center_axis',(-1.,0.,0.));
#760=DIRECTION('ref_axis',(0.,1.,0.));
#761=DIRECTION('',(0.,1.,0.));
#762=DIRECTION('',(0.,0.,1.));
#763=DIRECTION('',(0.,1.,0.));
#764=DIRECTION('',(0.,0.,-1.));
#765=DIRECTION('center_axis',(1.,0.,0.));
#766=DIRECTION('ref_axis',(0.,-1.,0.));
#767=DIRECTION('',(0.,-1.,0.));
#768=DIRECTION('',(0.,0.,1.));
#769=DIRECTION('',(0.,-1.,0.));
#770=DIRECTION('',(0.,0.,-1.));
#771=DIRECTION('center_axis',(0.,0.,1.));
#772=DIRECTION('ref_axis',(-1.,0.,0.));
#773=DIRECTION('',(-1.,0.,0.));
#774=DIRECTION('',(1.,0.,0.));
#775=DIRECTION('center_axis',(0.,0.,-1.));
#776=DIRECTION('ref_axis',(-1.,0.,0.));
#777=DIRECTION('',(1.,0.,0.));
#778=DIRECTION('',(-1.,0.,0.));
#779=DIRECTION('center_axis',(-1.,0.,0.));
#780=DIRECTION('ref_axis',(0.,-1.,0.));
#781=DIRECTION('',(0.,1.,0.));
#782=DIRECTION('',(0.,0.,1.));
#783=DIRECTION('',(0.,0.,1.));
#784=DIRECTION('center_axis',(0.,1.,0.));
#785=DIRECTION('ref_axis',(-1.,0.,0.));
#786=DIRECTION('',(1.,0.,0.));
#787=DIRECTION('center_axis',(0.,-1.,0.));
#788=DIRECTION('ref_axis',(1.,0.,0.));
#789=DIRECTION('',(-1.,0.,0.));
#790=DIRECTION('center_axis',(0.,1.,0.));
#791=DIRECTION('ref_axis',(-1.,0.,0.));
#792=DIRECTION('',(1.,0.,0.));
#793=DIRECTION('center_axis',(0.,0.,1.));
#794=DIRECTION('ref_axis',(1.,0.,0.));
#795=DIRECTION('center_axis',(0.,0.,1.));
#796=DIRECTION('ref_axis',(1.,0.,0.));
#797=CARTESIAN_POINT('',(0.,0.,0.));
#798=CARTESIAN_POINT('Origin',(1.38392964429413,-4.27494922118861,0.));
#799=CARTESIAN_POINT('',(1.26908123237908,-4.27494922118861,0.));
#800=CARTESIAN_POINT('Origin',(1.38392964429413,-4.27494922118861,0.));
#801=CARTESIAN_POINT('',(1.26908123237908,-4.27494922118861,0.05));
#802=CARTESIAN_POINT('',(1.26908123237908,-4.27494922118861,0.));
#803=CARTESIAN_POINT('Origin',(1.38392964429413,-4.27494922118861,0.05));
#804=CARTESIAN_POINT('Origin',(1.38392964429413,-4.27494922118861,0.05));
#805=CARTESIAN_POINT('',(1.32392964429413,-4.27494922118861,0.05));
#806=CARTESIAN_POINT('Origin',(1.38392964429413,-4.27494922118861,0.05));
#807=CARTESIAN_POINT('Origin',(1.38392964429413,-4.27494922118861,0.));
#808=CARTESIAN_POINT('',(1.32392964429413,-4.27494922118861,0.388740157480315));
#809=CARTESIAN_POINT('',(1.32392964429413,-4.27494922118861,0.));
#810=CARTESIAN_POINT('Origin',(1.38392964429413,-4.27494922118861,0.388740157480315));
#811=CARTESIAN_POINT('Origin',(1.46249435026676,-6.79463426055869,0.458740157480315));
#812=CARTESIAN_POINT('',(1.46249435026676,-6.79463426055869,0.458740157480315));
#813=CARTESIAN_POINT('',(1.46249435026676,-1.75526418181853,0.458740157480315));
#814=CARTESIAN_POINT('',(1.46249435026676,-6.79463426055869,0.458740157480315));
#815=CARTESIAN_POINT('',(1.26249435026676,-6.79463426055869,0.458740157480315));
#816=CARTESIAN_POINT('',(1.46249435026676,-6.79463426055869,0.458740157480315));
#817=CARTESIAN_POINT('',(1.26249435026676,-1.75526418181853,0.458740157480315));
#818=CARTESIAN_POINT('',(1.26249435026676,-6.79463426055869,0.458740157480315));
#819=CARTESIAN_POINT('',(1.46249435026676,-1.75526418181853,0.458740157480315));
#820=CARTESIAN_POINT('Origin',(1.46249435026676,-1.75526418181853,0.388740157480315));
#821=CARTESIAN_POINT('',(1.46249435026676,-1.75526418181853,0.388740157480315));
#822=CARTESIAN_POINT('',(1.46249435026676,-6.79463426055869,0.388740157480315));
#823=CARTESIAN_POINT('',(1.46249435026676,-4.27494922118861,0.388740157480315));
#824=CARTESIAN_POINT('',(1.26249435026676,-1.75526418181853,0.388740157480315));
#825=CARTESIAN_POINT('',(1.46249435026676,-1.75526418181853,0.388740157480315));
#826=CARTESIAN_POINT('',(1.26249435026676,-6.79463426055869,0.388740157480315));
#827=CARTESIAN_POINT('',(1.26249435026676,-1.75526418181853,0.388740157480315));
#828=CARTESIAN_POINT('',(1.46249435026676,-6.79463426055869,0.388740157480315));
#829=CARTESIAN_POINT('Origin',(1.26249435026676,-4.27494922118861,0.423740157480315));
#830=CARTESIAN_POINT('',(1.26249435026676,-1.75526418181853,0.458740157480315));
#831=CARTESIAN_POINT('',(1.26249435026676,-6.79463426055869,0.388740157480315));
#832=CARTESIAN_POINT('Origin',(1.46249435026676,-6.79463426055869,0.));
#833=CARTESIAN_POINT('',(1.46249435026676,-6.79463426055869,0.078740157480315));
#834=CARTESIAN_POINT('',(1.46249435026676,-6.79463426055869,0.));
#835=CARTESIAN_POINT('',(1.46249435026676,-1.75526418181853,0.078740157480315));
#836=CARTESIAN_POINT('',(1.46249435026676,-6.79463426055869,0.078740157480315));
#837=CARTESIAN_POINT('',(1.46249435026676,-1.75526418181853,0.));
#838=CARTESIAN_POINT('Origin',(1.46249435026676,-6.79463426055869,0.));
#839=CARTESIAN_POINT('',(1.46249435026676,-1.75526418181853,0.590551181102362));
#840=CARTESIAN_POINT('',(1.46249435026676,-1.75526418181853,0.));
#841=CARTESIAN_POINT('',(1.46249435026676,-6.79463426055869,0.590551181102362));
#842=CARTESIAN_POINT('',(1.46249435026676,-6.79463426055869,0.590551181102362));
#843=CARTESIAN_POINT('',(1.46249435026676,-6.79463426055869,0.));
#844=CARTESIAN_POINT('Origin',(1.20658883845573,-2.85762638654294,0.531496062992126));
#845=CARTESIAN_POINT('',(1.1475337203455,-6.99148465425947,0.47244094488189));
#846=CARTESIAN_POINT('',(1.26564395656597,-6.99148465425947,0.590551181102362));
#847=CARTESIAN_POINT('',(1.1475337203455,-6.99148465425947,0.47244094488189));
#848=CARTESIAN_POINT('',(1.26564395656597,-1.55841378811774,0.590551181102362));
#849=CARTESIAN_POINT('',(1.26564395656597,-2.85762638654294,0.590551181102362));
#850=CARTESIAN_POINT('',(1.1475337203455,-1.55841378811774,0.47244094488189));
#851=CARTESIAN_POINT('',(1.26564395656597,-1.55841378811774,0.590551181102362));
#852=CARTESIAN_POINT('',(1.1475337203455,-2.85762638654294,0.47244094488189));
#853=CARTESIAN_POINT('Origin',(10.9211557675896,-1.49935867000751,0.531496062992126));
#854=CARTESIAN_POINT('',(1.26564395656597,-1.44030355189727,0.47244094488189));
#855=CARTESIAN_POINT('',(1.26564395656597,-1.44030355189727,0.47244094488189));
#856=CARTESIAN_POINT('',(14.0609195471171,-1.55841378811774,0.590551181102362));
#857=CARTESIAN_POINT('',(10.9211557675896,-1.55841378811774,0.590551181102362));
#858=CARTESIAN_POINT('',(14.0609195471171,-1.44030355189727,0.47244094488189));
#859=CARTESIAN_POINT('',(14.0609195471171,-1.55841378811774,0.590551181102362));
#860=CARTESIAN_POINT('',(10.9211557675896,-1.44030355189727,0.47244094488189));
#861=CARTESIAN_POINT('Origin',(14.1199746652274,-5.69227205583428,0.531496062992126));
#862=CARTESIAN_POINT('',(14.1790297833376,-1.55841378811774,0.47244094488189));
#863=CARTESIAN_POINT('',(14.1790297833376,-1.55841378811774,0.47244094488189));
#864=CARTESIAN_POINT('',(14.0609195471171,-6.99148465425947,0.590551181102362));
#865=CARTESIAN_POINT('',(14.0609195471171,-5.69227205583428,0.590551181102362));
#866=CARTESIAN_POINT('',(14.1790297833376,-6.99148465425947,0.47244094488189));
#867=CARTESIAN_POINT('',(14.0609195471171,-6.99148465425947,0.590551181102362));
#868=CARTESIAN_POINT('',(14.1790297833376,-5.69227205583428,0.47244094488189));
#869=CARTESIAN_POINT('Origin',(4.40540773609353,-7.05053977236971,0.531496062992126));
#870=CARTESIAN_POINT('',(14.0609195471171,-7.10959489047995,0.47244094488189));
#871=CARTESIAN_POINT('',(14.0609195471171,-7.10959489047995,0.47244094488189));
#872=CARTESIAN_POINT('',(4.40540773609353,-6.99148465425947,0.590551181102362));
#873=CARTESIAN_POINT('',(1.26564395656597,-7.10959489047995,0.47244094488189));
#874=CARTESIAN_POINT('',(1.26564395656597,-6.99148465425947,0.590551181102362));
#875=CARTESIAN_POINT('',(4.40540773609353,-7.10959489047995,0.47244094488189));
#876=CARTESIAN_POINT('Origin',(14.0609195471171,-6.99148465425947,0.47244094488189));
#877=CARTESIAN_POINT('Origin',(14.0609195471171,-6.99148465425947,0.47244094488189));
#878=CARTESIAN_POINT('Origin',(14.0609195471171,-1.55841378811774,0.47244094488189));
#879=CARTESIAN_POINT('Origin',(14.0609195471171,-1.55841378811774,0.47244094488189));
#880=CARTESIAN_POINT('Origin',(1.26564395656597,-1.55841378811774,0.47244094488189));
#881=CARTESIAN_POINT('Origin',(1.26564395656597,-1.55841378811774,0.47244094488189));
#882=CARTESIAN_POINT('Origin',(1.26564395656597,-6.99148465425947,0.47244094488189));
#883=CARTESIAN_POINT('Origin',(1.26564395656597,-6.99148465425947,0.47244094488189));
#884=CARTESIAN_POINT('Origin',(14.0609195471171,-1.55841378811774,0.));
#885=CARTESIAN_POINT('',(14.1790297833376,-1.55841378811774,0.));
#886=CARTESIAN_POINT('',(14.1790297833376,-1.55841378811774,0.));
#887=CARTESIAN_POINT('',(14.0609195471171,-1.44030355189727,0.));
#888=CARTESIAN_POINT('Origin',(14.0609195471171,-1.55841378811774,0.));
#889=CARTESIAN_POINT('',(14.0609195471171,-1.44030355189727,0.));
#890=CARTESIAN_POINT('Origin',(14.1790297833376,-7.10959489047995,0.));
#891=CARTESIAN_POINT('',(14.1790297833376,-6.99148465425947,0.));
#892=CARTESIAN_POINT('',(14.1790297833376,-6.99148465425947,0.));
#893=CARTESIAN_POINT('',(14.1790297833376,-1.44030355189727,0.));
#894=CARTESIAN_POINT('Origin',(14.0609195471171,-6.99148465425947,0.));
#895=CARTESIAN_POINT('',(14.0609195471171,-7.10959489047995,0.));
#896=CARTESIAN_POINT('',(14.0609195471171,-7.10959489047995,0.));
#897=CARTESIAN_POINT('Origin',(14.0609195471171,-6.99148465425947,0.));
#898=CARTESIAN_POINT('Origin',(1.1475337203455,-7.10959489047995,0.));
#899=CARTESIAN_POINT('',(1.26564395656597,-7.10959489047995,0.));
#900=CARTESIAN_POINT('',(1.26564395656597,-7.10959489047995,0.));
#901=CARTESIAN_POINT('',(14.1790297833376,-7.10959489047995,0.));
#902=CARTESIAN_POINT('Origin',(7.66328175184156,-4.27494922118861,0.590551181102362));
#903=CARTESIAN_POINT('',(13.8640691534164,-1.75526418181853,0.590551181102362));
#904=CARTESIAN_POINT('',(1.46249435026676,-1.75526418181853,0.590551181102362));
#905=CARTESIAN_POINT('',(13.8640691534164,-6.79463426055869,0.590551181102362));
#906=CARTESIAN_POINT('',(13.8640691534164,-1.75526418181853,0.590551181102362));
#907=CARTESIAN_POINT('',(13.8640691534164,-6.79463426055869,0.590551181102362));
#908=CARTESIAN_POINT('Origin',(1.26564395656597,-1.55841378811774,0.));
#909=CARTESIAN_POINT('',(1.26564395656597,-1.44030355189727,0.));
#910=CARTESIAN_POINT('',(1.26564395656597,-1.44030355189727,0.));
#911=CARTESIAN_POINT('',(1.1475337203455,-1.55841378811774,0.));
#912=CARTESIAN_POINT('Origin',(1.26564395656597,-1.55841378811774,0.));
#913=CARTESIAN_POINT('',(1.1475337203455,-1.55841378811774,0.));
#914=CARTESIAN_POINT('Origin',(1.1475337203455,-1.44030355189727,0.));
#915=CARTESIAN_POINT('',(1.1475337203455,-6.99148465425947,0.));
#916=CARTESIAN_POINT('',(1.1475337203455,-7.10959489047995,0.));
#917=CARTESIAN_POINT('',(1.1475337203455,-6.99148465425947,0.));
#918=CARTESIAN_POINT('Origin',(1.26564395656597,-6.99148465425947,0.));
#919=CARTESIAN_POINT('Origin',(1.26564395656597,-6.99148465425947,0.));
#920=CARTESIAN_POINT('Origin',(7.56485655499117,-1.75526418181853,0.393700787401575));
#921=CARTESIAN_POINT('',(7.56485655499117,-1.75526418181853,0.393700787401575));
#922=CARTESIAN_POINT('',(7.56485655499117,-1.44030355189727,0.393700787401575));
#923=CARTESIAN_POINT('',(7.56485655499117,-1.75526418181853,0.393700787401575));
#924=CARTESIAN_POINT('',(7.56485655499117,-1.75526418181853,0.196850393700787));
#925=CARTESIAN_POINT('',(7.56485655499117,-1.75526418181853,0.196850393700787));
#926=CARTESIAN_POINT('',(7.56485655499117,-1.44030355189727,0.196850393700787));
#927=CARTESIAN_POINT('',(7.56485655499117,-1.75526418181853,0.196850393700787));
#928=CARTESIAN_POINT('',(7.56485655499117,-1.44030355189727,0.196850393700787));
#929=CARTESIAN_POINT('Origin',(7.76170694869195,-1.44030355189727,0.393700787401575));
#930=CARTESIAN_POINT('',(7.76170694869195,-1.44030355189727,0.393700787401575));
#931=CARTESIAN_POINT('',(7.76170694869195,-1.75526418181853,0.393700787401575));
#932=CARTESIAN_POINT('',(7.76170694869195,-1.44030355189727,0.393700787401575));
#933=CARTESIAN_POINT('',(7.76170694869195,-1.44030355189727,0.196850393700787));
#934=CARTESIAN_POINT('',(7.76170694869195,-1.44030355189727,0.196850393700787));
#935=CARTESIAN_POINT('',(7.76170694869195,-1.75526418181853,0.196850393700787));
#936=CARTESIAN_POINT('',(7.76170694869195,-1.44030355189727,0.196850393700787));
#937=CARTESIAN_POINT('',(7.76170694869195,-1.75526418181853,0.196850393700787));
#938=CARTESIAN_POINT('Origin',(7.66328175184156,-1.5977838668579,0.393700787401575));
#939=CARTESIAN_POINT('',(10.9211557675896,-1.44030355189727,0.393700787401575));
#940=CARTESIAN_POINT('',(4.56288805105416,-1.75526418181853,0.393700787401575));
#941=CARTESIAN_POINT('Origin',(7.66328175184156,-1.5977838668579,0.196850393700787));
#942=CARTESIAN_POINT('',(10.9211557675896,-1.44030355189727,0.196850393700787));
#943=CARTESIAN_POINT('',(4.56288805105416,-1.75526418181853,0.196850393700787));
#944=CARTESIAN_POINT('Origin',(13.8640691534164,-1.75526418181853,0.));
#945=CARTESIAN_POINT('',(13.8640691534164,-6.79463426055869,0.078740157480315));
#946=CARTESIAN_POINT('',(13.8640691534164,-1.75526418181853,0.078740157480315));
#947=CARTESIAN_POINT('',(13.8640691534164,-1.75526418181853,0.078740157480315));
#948=CARTESIAN_POINT('',(13.8640691534164,-6.79463426055869,0.));
#949=CARTESIAN_POINT('',(13.8640691534164,-1.75526418181853,0.));
#950=CARTESIAN_POINT('Origin',(13.8640691534164,-6.79463426055869,0.));
#951=CARTESIAN_POINT('',(13.8640691534164,-6.79463426055869,0.078740157480315));
#952=CARTESIAN_POINT('Origin',(1.46249435026676,-1.75526418181853,0.));
#953=CARTESIAN_POINT('',(1.46249435026676,-1.75526418181853,0.078740157480315));
#954=CARTESIAN_POINT('Origin',(14.1790297833376,-1.44030355189727,0.));
#955=CARTESIAN_POINT('',(1.1475337203455,-1.44030355189727,0.));
#956=CARTESIAN_POINT('Origin',(7.66328175184156,-4.27494922118861,0.078740157480315));
#957=CARTESIAN_POINT('Origin',(7.66328175184156,-4.27494922118861,0.));
#958=UNCERTAINTY_MEASURE_WITH_UNIT(LENGTH_MEASURE(0.000393700787401575),
#963,'DISTANCE_ACCURACY_VALUE',
'Maximum model space distance between geometric entities at asserted c
onnectivities');
#959=UNCERTAINTY_MEASURE_WITH_UNIT(LENGTH_MEASURE(0.000393700787401575),
#963,'DISTANCE_ACCURACY_VALUE',
'Maximum model space distance between geometric entities at asserted c
onnectivities');
#960=(
GEOMETRIC_REPRESENTATION_CONTEXT(3)
GLOBAL_UNCERTAINTY_ASSIGNED_CONTEXT((#958))
GLOBAL_UNIT_ASSIGNED_CONTEXT((#963,#966,#967))
REPRESENTATION_CONTEXT('','3D')
);
#961=(
GEOMETRIC_REPRESENTATION_CONTEXT(3)
GLOBAL_UNCERTAINTY_ASSIGNED_CONTEXT((#959))
GLOBAL_UNIT_ASSIGNED_CONTEXT((#963,#966,#967))
REPRESENTATION_CONTEXT('','3D')
);
#962=DIMENSIONAL_EXPONENTS(1.,0.,0.,0.,0.,0.,0.);
#963=(
CONVERSION_BASED_UNIT('inch',#965)
LENGTH_UNIT()
NAMED_UNIT(#962)
);
#964=(
LENGTH_UNIT()
NAMED_UNIT(*)
SI_UNIT(.MILLI.,.METRE.)
);
#965=LENGTH_MEASURE_WITH_UNIT(LENGTH_MEASURE(25.4),#964);
#966=(
NAMED_UNIT(*)
PLANE_ANGLE_UNIT()
SI_UNIT($,.RADIAN.)
);
#967=(
NAMED_UNIT(*)
SI_UNIT($,.STERADIAN.)
SOLID_ANGLE_UNIT()
);
#968=SHAPE_DEFINITION_REPRESENTATION(#969,#970);
#969=PRODUCT_DEFINITION_SHAPE('',$,#972);
#970=SHAPE_REPRESENTATION('',(#590),#960);
#971=PRODUCT_DEFINITION_CONTEXT('part definition',#976,'design');
#972=PRODUCT_DEFINITION('case','case v14',#973,#971);
#973=PRODUCT_DEFINITION_FORMATION('',$,#978);
#974=PRODUCT_RELATED_PRODUCT_CATEGORY('case v14','case v14',(#978));
#975=APPLICATION_PROTOCOL_DEFINITION('international standard',
'automotive_design',2009,#976);
#976=APPLICATION_CONTEXT(
'Core Data for Automotive Mechanical Design Process');
#977=PRODUCT_CONTEXT('part definition',#976,'mechanical');
#978=PRODUCT('case','case v14',$,(#977));
#979=PRESENTATION_STYLE_ASSIGNMENT((#980));
#980=SURFACE_STYLE_USAGE(.BOTH.,#981);
#981=SURFACE_SIDE_STYLE('',(#982));
#982=SURFACE_STYLE_FILL_AREA(#983);
#983=FILL_AREA_STYLE('Steel - Satin',(#984));
#984=FILL_AREA_STYLE_COLOUR('Steel - Satin',#985);
#985=COLOUR_RGB('Steel - Satin',0.627450980392157,0.627450980392157,0.627450980392157);
ENDSEC;
END-ISO-10303-21;
