ISO-10303-21;
HEADER;
/* Generated by software containing ST-Developer
 * from STEP Tools, Inc. (www.steptools.com) 
 */

FILE_DESCRIPTION(
/* description */ (''),
/* implementation_level */ '2;1');

FILE_NAME(
/* name */ 'case v23.step',
/* time_stamp */ '2025-08-10T03:10:09-04:00',
/* author */ (''),
/* organization */ (''),
/* preprocessor_version */ 'ST-DEVELOPER v20.1',
/* originating_system */ 'Autodesk Translation Framework v14.10.0.0',
/* authorisation */ '');

FILE_SCHEMA (('AUTOMOTIVE_DESIGN { 1 0 10303 214 3 1 1 }'));
ENDSEC;

DATA;
#10=MECHANICAL_DESIGN_GEOMETRIC_PRESENTATION_REPRESENTATION('',(#13,#14,
#15),#1817);
#11=SHAPE_REPRESENTATION_RELATIONSHIP('SRR','None',#1826,#12);
#12=ADVANCED_BREP_SHAPE_REPRESENTATION('',(#16,#17,#18),#1816);
#13=STYLED_ITEM('',(#1835),#16);
#14=STYLED_ITEM('',(#1835),#17);
#15=STYLED_ITEM('',(#1835),#18);
#16=MANIFOLD_SOLID_BREP('Body1',#1099);
#17=MANIFOLD_SOLID_BREP('Body6',#1100);
#18=MANIFOLD_SOLID_BREP('Body7',#1101);
#19=CONICAL_SURFACE('',#1145,0.118110236220473,0.785398163397451);
#20=CONICAL_SURFACE('',#1147,0.118110236220472,0.785398163397445);
#21=CONICAL_SURFACE('',#1149,0.118110236220472,0.785398163397448);
#22=CONICAL_SURFACE('',#1151,0.118110236220473,0.785398163397449);
#23=FACE_BOUND('',#164,.T.);
#24=FACE_BOUND('',#167,.T.);
#25=FACE_BOUND('',#172,.T.);
#26=FACE_BOUND('',#175,.T.);
#27=FACE_BOUND('',#179,.T.);
#28=FACE_BOUND('',#180,.T.);
#29=FACE_BOUND('',#182,.T.);
#30=FACE_BOUND('',#183,.T.);
#31=FACE_BOUND('',#186,.T.);
#32=FACE_BOUND('',#206,.T.);
#33=FACE_BOUND('',#209,.T.);
#34=FACE_BOUND('',#210,.T.);
#35=FACE_BOUND('',#211,.T.);
#36=FACE_BOUND('',#212,.T.);
#37=FACE_BOUND('',#216,.T.);
#38=FACE_BOUND('',#217,.T.);
#39=FACE_BOUND('',#232,.T.);
#40=FACE_BOUND('',#233,.T.);
#41=CIRCLE('',#1111,0.0939430665359127);
#42=CIRCLE('',#1112,0.0939430665359127);
#43=CIRCLE('',#1114,0.06);
#44=CIRCLE('',#1116,0.0939430665359127);
#45=CIRCLE('',#1117,0.0939430665359127);
#46=CIRCLE('',#1119,0.06);
#47=CIRCLE('',#1121,0.06);
#48=CIRCLE('',#1123,0.06);
#49=CIRCLE('',#1125,0.114848411915041);
#50=CIRCLE('',#1126,0.114848411915041);
#51=CIRCLE('',#1128,0.0599999999999999);
#52=CIRCLE('',#1130,0.114848411915041);
#53=CIRCLE('',#1131,0.114848411915041);
#54=CIRCLE('',#1133,0.0599999999999999);
#55=CIRCLE('',#1135,0.0599999999999999);
#56=CIRCLE('',#1137,0.0599999999999999);
#57=CIRCLE('',#1146,0.118110236220473);
#58=CIRCLE('',#1148,0.118110236220472);
#59=CIRCLE('',#1150,0.118110236220472);
#60=CIRCLE('',#1152,0.118110236220473);
#61=CIRCLE('',#1154,0.118110236220472);
#62=CIRCLE('',#1156,0.118110236220472);
#63=CIRCLE('',#1159,0.118110236220472);
#64=CIRCLE('',#1161,0.118110236220472);
#65=CIRCLE('',#1174,0.0599999999999999);
#66=CIRCLE('',#1175,0.0599999999999999);
#67=CIRCLE('',#1181,0.0599999999999999);
#68=CIRCLE('',#1184,0.0599999999999999);
#69=CIRCLE('',#1192,0.06);
#70=CIRCLE('',#1193,0.06);
#71=CIRCLE('',#1196,0.06);
#72=CIRCLE('',#1199,0.06);
#73=CYLINDRICAL_SURFACE('',#1110,0.0939430665359127);
#74=CYLINDRICAL_SURFACE('',#1115,0.0939430665359127);
#75=CYLINDRICAL_SURFACE('',#1120,0.06);
#76=CYLINDRICAL_SURFACE('',#1122,0.06);
#77=CYLINDRICAL_SURFACE('',#1124,0.114848411915041);
#78=CYLINDRICAL_SURFACE('',#1129,0.114848411915041);
#79=CYLINDRICAL_SURFACE('',#1134,0.0599999999999999);
#80=CYLINDRICAL_SURFACE('',#1136,0.0599999999999999);
#81=CYLINDRICAL_SURFACE('',#1153,0.118110236220472);
#82=CYLINDRICAL_SURFACE('',#1155,0.118110236220472);
#83=CYLINDRICAL_SURFACE('',#1158,0.118110236220472);
#84=CYLINDRICAL_SURFACE('',#1160,0.118110236220472);
#85=CYLINDRICAL_SURFACE('',#1182,0.0599999999999999);
#86=CYLINDRICAL_SURFACE('',#1185,0.0599999999999999);
#87=CYLINDRICAL_SURFACE('',#1197,0.06);
#88=CYLINDRICAL_SURFACE('',#1200,0.06);
#89=FACE_OUTER_BOUND('',#155,.T.);
#90=FACE_OUTER_BOUND('',#156,.T.);
#91=FACE_OUTER_BOUND('',#157,.T.);
#92=FACE_OUTER_BOUND('',#158,.T.);
#93=FACE_OUTER_BOUND('',#159,.T.);
#94=FACE_OUTER_BOUND('',#160,.T.);
#95=FACE_OUTER_BOUND('',#161,.T.);
#96=FACE_OUTER_BOUND('',#162,.T.);
#97=FACE_OUTER_BOUND('',#163,.T.);
#98=FACE_OUTER_BOUND('',#165,.T.);
#99=FACE_OUTER_BOUND('',#166,.T.);
#100=FACE_OUTER_BOUND('',#168,.T.);
#101=FACE_OUTER_BOUND('',#169,.T.);
#102=FACE_OUTER_BOUND('',#170,.T.);
#103=FACE_OUTER_BOUND('',#171,.T.);
#104=FACE_OUTER_BOUND('',#173,.T.);
#105=FACE_OUTER_BOUND('',#174,.T.);
#106=FACE_OUTER_BOUND('',#176,.T.);
#107=FACE_OUTER_BOUND('',#177,.T.);
#108=FACE_OUTER_BOUND('',#178,.T.);
#109=FACE_OUTER_BOUND('',#181,.T.);
#110=FACE_OUTER_BOUND('',#184,.T.);
#111=FACE_OUTER_BOUND('',#185,.T.);
#112=FACE_OUTER_BOUND('',#187,.T.);
#113=FACE_OUTER_BOUND('',#188,.T.);
#114=FACE_OUTER_BOUND('',#189,.T.);
#115=FACE_OUTER_BOUND('',#190,.T.);
#116=FACE_OUTER_BOUND('',#191,.T.);
#117=FACE_OUTER_BOUND('',#192,.T.);
#118=FACE_OUTER_BOUND('',#193,.T.);
#119=FACE_OUTER_BOUND('',#194,.T.);
#120=FACE_OUTER_BOUND('',#195,.T.);
#121=FACE_OUTER_BOUND('',#196,.T.);
#122=FACE_OUTER_BOUND('',#197,.T.);
#123=FACE_OUTER_BOUND('',#198,.T.);
#124=FACE_OUTER_BOUND('',#199,.T.);
#125=FACE_OUTER_BOUND('',#200,.T.);
#126=FACE_OUTER_BOUND('',#201,.T.);
#127=FACE_OUTER_BOUND('',#202,.T.);
#128=FACE_OUTER_BOUND('',#203,.T.);
#129=FACE_OUTER_BOUND('',#204,.T.);
#130=FACE_OUTER_BOUND('',#205,.T.);
#131=FACE_OUTER_BOUND('',#207,.T.);
#132=FACE_OUTER_BOUND('',#208,.T.);
#133=FACE_OUTER_BOUND('',#213,.T.);
#134=FACE_OUTER_BOUND('',#214,.T.);
#135=FACE_OUTER_BOUND('',#215,.T.);
#136=FACE_OUTER_BOUND('',#218,.T.);
#137=FACE_OUTER_BOUND('',#219,.T.);
#138=FACE_OUTER_BOUND('',#220,.T.);
#139=FACE_OUTER_BOUND('',#221,.T.);
#140=FACE_OUTER_BOUND('',#222,.T.);
#141=FACE_OUTER_BOUND('',#223,.T.);
#142=FACE_OUTER_BOUND('',#224,.T.);
#143=FACE_OUTER_BOUND('',#225,.T.);
#144=FACE_OUTER_BOUND('',#226,.T.);
#145=FACE_OUTER_BOUND('',#227,.T.);
#146=FACE_OUTER_BOUND('',#228,.T.);
#147=FACE_OUTER_BOUND('',#229,.T.);
#148=FACE_OUTER_BOUND('',#230,.T.);
#149=FACE_OUTER_BOUND('',#231,.T.);
#150=FACE_OUTER_BOUND('',#234,.T.);
#151=FACE_OUTER_BOUND('',#235,.T.);
#152=FACE_OUTER_BOUND('',#236,.T.);
#153=FACE_OUTER_BOUND('',#237,.T.);
#154=FACE_OUTER_BOUND('',#238,.T.);
#155=EDGE_LOOP('',(#699,#700,#701,#702));
#156=EDGE_LOOP('',(#703,#704,#705,#706));
#157=EDGE_LOOP('',(#707,#708,#709,#710,#711,#712,#713,#714));
#158=EDGE_LOOP('',(#715,#716,#717,#718));
#159=EDGE_LOOP('',(#719,#720,#721,#722,#723,#724,#725,#726));
#160=EDGE_LOOP('',(#727,#728,#729,#730));
#161=EDGE_LOOP('',(#731,#732,#733,#734));
#162=EDGE_LOOP('',(#735,#736,#737,#738));
#163=EDGE_LOOP('',(#739));
#164=EDGE_LOOP('',(#740));
#165=EDGE_LOOP('',(#741,#742,#743,#744));
#166=EDGE_LOOP('',(#745));
#167=EDGE_LOOP('',(#746));
#168=EDGE_LOOP('',(#747,#748,#749,#750));
#169=EDGE_LOOP('',(#751,#752,#753,#754));
#170=EDGE_LOOP('',(#755,#756,#757,#758));
#171=EDGE_LOOP('',(#759));
#172=EDGE_LOOP('',(#760));
#173=EDGE_LOOP('',(#761,#762,#763,#764));
#174=EDGE_LOOP('',(#765));
#175=EDGE_LOOP('',(#766));
#176=EDGE_LOOP('',(#767,#768,#769,#770));
#177=EDGE_LOOP('',(#771,#772,#773,#774));
#178=EDGE_LOOP('',(#775,#776,#777,#778));
#179=EDGE_LOOP('',(#779));
#180=EDGE_LOOP('',(#780));
#181=EDGE_LOOP('',(#781,#782,#783,#784));
#182=EDGE_LOOP('',(#785));
#183=EDGE_LOOP('',(#786));
#184=EDGE_LOOP('',(#787,#788,#789,#790));
#185=EDGE_LOOP('',(#791,#792,#793,#794,#795,#796,#797,#798,#799,#800));
#186=EDGE_LOOP('',(#801,#802,#803,#804));
#187=EDGE_LOOP('',(#805,#806,#807,#808));
#188=EDGE_LOOP('',(#809,#810,#811,#812));
#189=EDGE_LOOP('',(#813,#814,#815,#816));
#190=EDGE_LOOP('',(#817,#818,#819));
#191=EDGE_LOOP('',(#820,#821,#822));
#192=EDGE_LOOP('',(#823,#824,#825));
#193=EDGE_LOOP('',(#826,#827,#828));
#194=EDGE_LOOP('',(#829,#830,#831,#832));
#195=EDGE_LOOP('',(#833,#834,#835,#836));
#196=EDGE_LOOP('',(#837,#838,#839,#840));
#197=EDGE_LOOP('',(#841,#842,#843,#844));
#198=EDGE_LOOP('',(#845,#846,#847,#848));
#199=EDGE_LOOP('',(#849,#850,#851,#852));
#200=EDGE_LOOP('',(#853,#854,#855,#856));
#201=EDGE_LOOP('',(#857,#858,#859,#860));
#202=EDGE_LOOP('',(#861,#862,#863,#864));
#203=EDGE_LOOP('',(#865,#866,#867,#868,#869,#870,#871,#872,#873,#874));
#204=EDGE_LOOP('',(#875,#876,#877,#878));
#205=EDGE_LOOP('',(#879,#880,#881,#882));
#206=EDGE_LOOP('',(#883,#884,#885,#886));
#207=EDGE_LOOP('',(#887,#888,#889,#890));
#208=EDGE_LOOP('',(#891,#892,#893,#894,#895,#896,#897,#898));
#209=EDGE_LOOP('',(#899));
#210=EDGE_LOOP('',(#900));
#211=EDGE_LOOP('',(#901));
#212=EDGE_LOOP('',(#902));
#213=EDGE_LOOP('',(#903,#904,#905,#906,#907));
#214=EDGE_LOOP('',(#908,#909,#910,#911));
#215=EDGE_LOOP('',(#912,#913,#914,#915));
#216=EDGE_LOOP('',(#916));
#217=EDGE_LOOP('',(#917));
#218=EDGE_LOOP('',(#918,#919,#920,#921,#922));
#219=EDGE_LOOP('',(#923,#924,#925,#926));
#220=EDGE_LOOP('',(#927,#928,#929,#930));
#221=EDGE_LOOP('',(#931,#932,#933,#934));
#222=EDGE_LOOP('',(#935));
#223=EDGE_LOOP('',(#936,#937,#938,#939));
#224=EDGE_LOOP('',(#940));
#225=EDGE_LOOP('',(#941,#942,#943,#944));
#226=EDGE_LOOP('',(#945,#946,#947,#948,#949));
#227=EDGE_LOOP('',(#950,#951,#952,#953));
#228=EDGE_LOOP('',(#954,#955,#956,#957));
#229=EDGE_LOOP('',(#958,#959,#960,#961));
#230=EDGE_LOOP('',(#962,#963,#964,#965,#966));
#231=EDGE_LOOP('',(#967,#968,#969,#970));
#232=EDGE_LOOP('',(#971));
#233=EDGE_LOOP('',(#972));
#234=EDGE_LOOP('',(#973,#974,#975,#976));
#235=EDGE_LOOP('',(#977));
#236=EDGE_LOOP('',(#978,#979,#980,#981));
#237=EDGE_LOOP('',(#982));
#238=EDGE_LOOP('',(#983,#984,#985,#986));
#239=LINE('',#1515,#351);
#240=LINE('',#1517,#352);
#241=LINE('',#1519,#353);
#242=LINE('',#1520,#354);
#243=LINE('',#1524,#355);
#244=LINE('',#1526,#356);
#245=LINE('',#1528,#357);
#246=LINE('',#1529,#358);
#247=LINE('',#1532,#359);
#248=LINE('',#1534,#360);
#249=LINE('',#1535,#361);
#250=LINE('',#1537,#362);
#251=LINE('',#1539,#363);
#252=LINE('',#1540,#364);
#253=LINE('',#1543,#365);
#254=LINE('',#1545,#366);
#255=LINE('',#1546,#367);
#256=LINE('',#1550,#368);
#257=LINE('',#1552,#369);
#258=LINE('',#1554,#370);
#259=LINE('',#1556,#371);
#260=LINE('',#1558,#372);
#261=LINE('',#1560,#373);
#262=LINE('',#1562,#374);
#263=LINE('',#1563,#375);
#264=LINE('',#1566,#376);
#265=LINE('',#1568,#377);
#266=LINE('',#1569,#378);
#267=LINE('',#1571,#379);
#268=LINE('',#1572,#380);
#269=LINE('',#1577,#381);
#270=LINE('',#1586,#382);
#271=LINE('',#1593,#383);
#272=LINE('',#1597,#384);
#273=LINE('',#1603,#385);
#274=LINE('',#1612,#386);
#275=LINE('',#1619,#387);
#276=LINE('',#1623,#388);
#277=LINE('',#1627,#389);
#278=LINE('',#1629,#390);
#279=LINE('',#1630,#391);
#280=LINE('',#1633,#392);
#281=LINE('',#1635,#393);
#282=LINE('',#1636,#394);
#283=LINE('',#1639,#395);
#284=LINE('',#1641,#396);
#285=LINE('',#1642,#397);
#286=LINE('',#1644,#398);
#287=LINE('',#1646,#399);
#288=LINE('',#1647,#400);
#289=LINE('',#1650,#401);
#290=LINE('',#1652,#402);
#291=LINE('',#1654,#403);
#292=LINE('',#1655,#404);
#293=LINE('',#1657,#405);
#294=LINE('',#1660,#406);
#295=LINE('',#1662,#407);
#296=LINE('',#1663,#408);
#297=LINE('',#1666,#409);
#298=LINE('',#1668,#410);
#299=LINE('',#1669,#411);
#300=LINE('',#1681,#412);
#301=LINE('',#1684,#413);
#302=LINE('',#1688,#414);
#303=LINE('',#1689,#415);
#304=LINE('',#1692,#416);
#305=LINE('',#1698,#417);
#306=LINE('',#1700,#418);
#307=LINE('',#1701,#419);
#308=LINE('',#1704,#420);
#309=LINE('',#1706,#421);
#310=LINE('',#1707,#422);
#311=LINE('',#1709,#423);
#312=LINE('',#1711,#424);
#313=LINE('',#1714,#425);
#314=LINE('',#1715,#426);
#315=LINE('',#1717,#427);
#316=LINE('',#1719,#428);
#317=LINE('',#1725,#429);
#318=LINE('',#1727,#430);
#319=LINE('',#1729,#431);
#320=LINE('',#1731,#432);
#321=LINE('',#1732,#433);
#322=LINE('',#1735,#434);
#323=LINE('',#1737,#435);
#324=LINE('',#1738,#436);
#325=LINE('',#1741,#437);
#326=LINE('',#1742,#438);
#327=LINE('',#1749,#439);
#328=LINE('',#1751,#440);
#329=LINE('',#1752,#441);
#330=LINE('',#1754,#442);
#331=LINE('',#1755,#443);
#332=LINE('',#1762,#444);
#333=LINE('',#1767,#445);
#334=LINE('',#1771,#446);
#335=LINE('',#1773,#447);
#336=LINE('',#1775,#448);
#337=LINE('',#1777,#449);
#338=LINE('',#1778,#450);
#339=LINE('',#1781,#451);
#340=LINE('',#1783,#452);
#341=LINE('',#1784,#453);
#342=LINE('',#1787,#454);
#343=LINE('',#1788,#455);
#344=LINE('',#1791,#456);
#345=LINE('',#1792,#457);
#346=LINE('',#1795,#458);
#347=LINE('',#1796,#459);
#348=LINE('',#1798,#460);
#349=LINE('',#1808,#461);
#350=LINE('',#1813,#462);
#351=VECTOR('',#1205,0.393700787401575);
#352=VECTOR('',#1206,0.393700787401575);
#353=VECTOR('',#1207,0.393700787401575);
#354=VECTOR('',#1208,0.393700787401575);
#355=VECTOR('',#1211,0.393700787401575);
#356=VECTOR('',#1212,0.393700787401575);
#357=VECTOR('',#1213,0.393700787401575);
#358=VECTOR('',#1214,0.393700787401575);
#359=VECTOR('',#1217,0.393700787401575);
#360=VECTOR('',#1218,0.393700787401575);
#361=VECTOR('',#1219,0.393700787401575);
#362=VECTOR('',#1220,0.393700787401575);
#363=VECTOR('',#1221,0.393700787401575);
#364=VECTOR('',#1222,0.393700787401575);
#365=VECTOR('',#1225,0.393700787401575);
#366=VECTOR('',#1226,0.393700787401575);
#367=VECTOR('',#1227,0.393700787401575);
#368=VECTOR('',#1230,0.393700787401575);
#369=VECTOR('',#1231,0.393700787401575);
#370=VECTOR('',#1232,0.393700787401575);
#371=VECTOR('',#1233,0.393700787401575);
#372=VECTOR('',#1234,0.393700787401575);
#373=VECTOR('',#1235,0.393700787401575);
#374=VECTOR('',#1236,0.393700787401575);
#375=VECTOR('',#1237,0.393700787401575);
#376=VECTOR('',#1240,0.393700787401575);
#377=VECTOR('',#1241,0.393700787401575);
#378=VECTOR('',#1242,0.393700787401575);
#379=VECTOR('',#1245,0.393700787401575);
#380=VECTOR('',#1246,0.393700787401575);
#381=VECTOR('',#1251,0.0939430665359127);
#382=VECTOR('',#1262,0.0939430665359127);
#383=VECTOR('',#1271,0.06);
#384=VECTOR('',#1276,0.06);
#385=VECTOR('',#1283,0.114848411915041);
#386=VECTOR('',#1294,0.114848411915041);
#387=VECTOR('',#1303,0.0599999999999999);
#388=VECTOR('',#1308,0.0599999999999999);
#389=VECTOR('',#1313,0.393700787401575);
#390=VECTOR('',#1314,0.393700787401575);
#391=VECTOR('',#1315,0.393700787401575);
#392=VECTOR('',#1318,0.393700787401575);
#393=VECTOR('',#1319,0.393700787401575);
#394=VECTOR('',#1320,0.393700787401575);
#395=VECTOR('',#1323,0.393700787401575);
#396=VECTOR('',#1324,0.393700787401575);
#397=VECTOR('',#1325,0.393700787401575);
#398=VECTOR('',#1328,0.393700787401575);
#399=VECTOR('',#1329,0.393700787401575);
#400=VECTOR('',#1330,0.393700787401575);
#401=VECTOR('',#1331,0.393700787401575);
#402=VECTOR('',#1332,0.393700787401575);
#403=VECTOR('',#1333,0.393700787401575);
#404=VECTOR('',#1334,0.393700787401575);
#405=VECTOR('',#1337,0.393700787401575);
#406=VECTOR('',#1340,0.393700787401575);
#407=VECTOR('',#1341,0.393700787401575);
#408=VECTOR('',#1342,0.393700787401575);
#409=VECTOR('',#1345,0.393700787401575);
#410=VECTOR('',#1346,0.393700787401575);
#411=VECTOR('',#1347,0.393700787401575);
#412=VECTOR('',#1368,0.393700787401575);
#413=VECTOR('',#1371,0.393700787401575);
#414=VECTOR('',#1376,0.393700787401575);
#415=VECTOR('',#1377,0.393700787401575);
#416=VECTOR('',#1380,0.393700787401575);
#417=VECTOR('',#1389,0.393700787401575);
#418=VECTOR('',#1390,0.393700787401575);
#419=VECTOR('',#1391,0.393700787401575);
#420=VECTOR('',#1394,0.393700787401575);
#421=VECTOR('',#1395,0.393700787401575);
#422=VECTOR('',#1396,0.393700787401575);
#423=VECTOR('',#1399,0.393700787401575);
#424=VECTOR('',#1402,0.393700787401575);
#425=VECTOR('',#1405,0.393700787401575);
#426=VECTOR('',#1406,0.393700787401575);
#427=VECTOR('',#1409,0.393700787401575);
#428=VECTOR('',#1412,0.393700787401575);
#429=VECTOR('',#1419,0.393700787401575);
#430=VECTOR('',#1420,0.393700787401575);
#431=VECTOR('',#1421,0.393700787401575);
#432=VECTOR('',#1422,0.393700787401575);
#433=VECTOR('',#1423,0.393700787401575);
#434=VECTOR('',#1426,0.393700787401575);
#435=VECTOR('',#1427,0.393700787401575);
#436=VECTOR('',#1428,0.393700787401575);
#437=VECTOR('',#1431,0.393700787401575);
#438=VECTOR('',#1432,0.393700787401575);
#439=VECTOR('',#1439,0.393700787401575);
#440=VECTOR('',#1440,0.393700787401575);
#441=VECTOR('',#1441,0.393700787401575);
#442=VECTOR('',#1444,0.393700787401575);
#443=VECTOR('',#1445,0.393700787401575);
#444=VECTOR('',#1456,0.0599999999999999);
#445=VECTOR('',#1463,0.0599999999999999);
#446=VECTOR('',#1466,0.393700787401575);
#447=VECTOR('',#1467,0.393700787401575);
#448=VECTOR('',#1468,0.393700787401575);
#449=VECTOR('',#1469,0.393700787401575);
#450=VECTOR('',#1470,0.393700787401575);
#451=VECTOR('',#1473,0.393700787401575);
#452=VECTOR('',#1474,0.393700787401575);
#453=VECTOR('',#1475,0.393700787401575);
#454=VECTOR('',#1478,0.393700787401575);
#455=VECTOR('',#1479,0.393700787401575);
#456=VECTOR('',#1482,0.393700787401575);
#457=VECTOR('',#1483,0.393700787401575);
#458=VECTOR('',#1486,0.393700787401575);
#459=VECTOR('',#1487,0.393700787401575);
#460=VECTOR('',#1490,0.393700787401575);
#461=VECTOR('',#1503,0.06);
#462=VECTOR('',#1510,0.06);
#463=VERTEX_POINT('',#1513);
#464=VERTEX_POINT('',#1514);
#465=VERTEX_POINT('',#1516);
#466=VERTEX_POINT('',#1518);
#467=VERTEX_POINT('',#1522);
#468=VERTEX_POINT('',#1523);
#469=VERTEX_POINT('',#1525);
#470=VERTEX_POINT('',#1527);
#471=VERTEX_POINT('',#1531);
#472=VERTEX_POINT('',#1533);
#473=VERTEX_POINT('',#1536);
#474=VERTEX_POINT('',#1538);
#475=VERTEX_POINT('',#1542);
#476=VERTEX_POINT('',#1544);
#477=VERTEX_POINT('',#1548);
#478=VERTEX_POINT('',#1549);
#479=VERTEX_POINT('',#1551);
#480=VERTEX_POINT('',#1553);
#481=VERTEX_POINT('',#1555);
#482=VERTEX_POINT('',#1557);
#483=VERTEX_POINT('',#1559);
#484=VERTEX_POINT('',#1561);
#485=VERTEX_POINT('',#1565);
#486=VERTEX_POINT('',#1567);
#487=VERTEX_POINT('',#1574);
#488=VERTEX_POINT('',#1576);
#489=VERTEX_POINT('',#1580);
#490=VERTEX_POINT('',#1583);
#491=VERTEX_POINT('',#1585);
#492=VERTEX_POINT('',#1589);
#493=VERTEX_POINT('',#1592);
#494=VERTEX_POINT('',#1596);
#495=VERTEX_POINT('',#1600);
#496=VERTEX_POINT('',#1602);
#497=VERTEX_POINT('',#1606);
#498=VERTEX_POINT('',#1609);
#499=VERTEX_POINT('',#1611);
#500=VERTEX_POINT('',#1615);
#501=VERTEX_POINT('',#1618);
#502=VERTEX_POINT('',#1622);
#503=VERTEX_POINT('',#1626);
#504=VERTEX_POINT('',#1628);
#505=VERTEX_POINT('',#1632);
#506=VERTEX_POINT('',#1634);
#507=VERTEX_POINT('',#1638);
#508=VERTEX_POINT('',#1640);
#509=VERTEX_POINT('',#1645);
#510=VERTEX_POINT('',#1648);
#511=VERTEX_POINT('',#1649);
#512=VERTEX_POINT('',#1651);
#513=VERTEX_POINT('',#1653);
#514=VERTEX_POINT('',#1659);
#515=VERTEX_POINT('',#1661);
#516=VERTEX_POINT('',#1665);
#517=VERTEX_POINT('',#1667);
#518=VERTEX_POINT('',#1679);
#519=VERTEX_POINT('',#1683);
#520=VERTEX_POINT('',#1687);
#521=VERTEX_POINT('',#1691);
#522=VERTEX_POINT('',#1697);
#523=VERTEX_POINT('',#1699);
#524=VERTEX_POINT('',#1703);
#525=VERTEX_POINT('',#1705);
#526=VERTEX_POINT('',#1713);
#527=VERTEX_POINT('',#1723);
#528=VERTEX_POINT('',#1724);
#529=VERTEX_POINT('',#1726);
#530=VERTEX_POINT('',#1728);
#531=VERTEX_POINT('',#1730);
#532=VERTEX_POINT('',#1734);
#533=VERTEX_POINT('',#1736);
#534=VERTEX_POINT('',#1740);
#535=VERTEX_POINT('',#1743);
#536=VERTEX_POINT('',#1745);
#537=VERTEX_POINT('',#1748);
#538=VERTEX_POINT('',#1750);
#539=VERTEX_POINT('',#1759);
#540=VERTEX_POINT('',#1764);
#541=VERTEX_POINT('',#1769);
#542=VERTEX_POINT('',#1770);
#543=VERTEX_POINT('',#1772);
#544=VERTEX_POINT('',#1774);
#545=VERTEX_POINT('',#1776);
#546=VERTEX_POINT('',#1780);
#547=VERTEX_POINT('',#1782);
#548=VERTEX_POINT('',#1786);
#549=VERTEX_POINT('',#1790);
#550=VERTEX_POINT('',#1794);
#551=VERTEX_POINT('',#1799);
#552=VERTEX_POINT('',#1801);
#553=VERTEX_POINT('',#1805);
#554=VERTEX_POINT('',#1810);
#555=EDGE_CURVE('',#463,#464,#239,.T.);
#556=EDGE_CURVE('',#464,#465,#240,.T.);
#557=EDGE_CURVE('',#465,#466,#241,.T.);
#558=EDGE_CURVE('',#466,#463,#242,.T.);
#559=EDGE_CURVE('',#467,#468,#243,.T.);
#560=EDGE_CURVE('',#468,#469,#244,.T.);
#561=EDGE_CURVE('',#469,#470,#245,.T.);
#562=EDGE_CURVE('',#470,#467,#246,.T.);
#563=EDGE_CURVE('',#468,#471,#247,.T.);
#564=EDGE_CURVE('',#471,#472,#248,.T.);
#565=EDGE_CURVE('',#472,#463,#249,.T.);
#566=EDGE_CURVE('',#473,#466,#250,.T.);
#567=EDGE_CURVE('',#474,#473,#251,.T.);
#568=EDGE_CURVE('',#469,#474,#252,.T.);
#569=EDGE_CURVE('',#464,#475,#253,.T.);
#570=EDGE_CURVE('',#476,#475,#254,.T.);
#571=EDGE_CURVE('',#465,#476,#255,.T.);
#572=EDGE_CURVE('',#477,#478,#256,.T.);
#573=EDGE_CURVE('',#479,#478,#257,.T.);
#574=EDGE_CURVE('',#480,#479,#258,.T.);
#575=EDGE_CURVE('',#481,#480,#259,.T.);
#576=EDGE_CURVE('',#482,#481,#260,.T.);
#577=EDGE_CURVE('',#483,#482,#261,.T.);
#578=EDGE_CURVE('',#483,#484,#262,.T.);
#579=EDGE_CURVE('',#484,#477,#263,.T.);
#580=EDGE_CURVE('',#485,#467,#264,.T.);
#581=EDGE_CURVE('',#486,#470,#265,.T.);
#582=EDGE_CURVE('',#485,#486,#266,.T.);
#583=EDGE_CURVE('',#475,#483,#267,.T.);
#584=EDGE_CURVE('',#482,#476,#268,.T.);
#585=EDGE_CURVE('',#487,#487,#41,.T.);
#586=EDGE_CURVE('',#487,#488,#269,.T.);
#587=EDGE_CURVE('',#488,#488,#42,.T.);
#588=EDGE_CURVE('',#489,#489,#43,.T.);
#589=EDGE_CURVE('',#490,#490,#44,.T.);
#590=EDGE_CURVE('',#490,#491,#270,.T.);
#591=EDGE_CURVE('',#491,#491,#45,.T.);
#592=EDGE_CURVE('',#492,#492,#46,.T.);
#593=EDGE_CURVE('',#489,#493,#271,.T.);
#594=EDGE_CURVE('',#493,#493,#47,.T.);
#595=EDGE_CURVE('',#492,#494,#272,.T.);
#596=EDGE_CURVE('',#494,#494,#48,.T.);
#597=EDGE_CURVE('',#495,#495,#49,.T.);
#598=EDGE_CURVE('',#495,#496,#273,.T.);
#599=EDGE_CURVE('',#496,#496,#50,.T.);
#600=EDGE_CURVE('',#497,#497,#51,.T.);
#601=EDGE_CURVE('',#498,#498,#52,.T.);
#602=EDGE_CURVE('',#498,#499,#274,.T.);
#603=EDGE_CURVE('',#499,#499,#53,.T.);
#604=EDGE_CURVE('',#500,#500,#54,.T.);
#605=EDGE_CURVE('',#497,#501,#275,.T.);
#606=EDGE_CURVE('',#501,#501,#55,.T.);
#607=EDGE_CURVE('',#500,#502,#276,.T.);
#608=EDGE_CURVE('',#502,#502,#56,.T.);
#609=EDGE_CURVE('',#503,#484,#277,.T.);
#610=EDGE_CURVE('',#504,#503,#278,.T.);
#611=EDGE_CURVE('',#477,#504,#279,.T.);
#612=EDGE_CURVE('',#505,#471,#280,.T.);
#613=EDGE_CURVE('',#506,#505,#281,.T.);
#614=EDGE_CURVE('',#472,#506,#282,.T.);
#615=EDGE_CURVE('',#507,#505,#283,.T.);
#616=EDGE_CURVE('',#508,#507,#284,.T.);
#617=EDGE_CURVE('',#508,#506,#285,.T.);
#618=EDGE_CURVE('',#478,#485,#286,.T.);
#619=EDGE_CURVE('',#509,#504,#287,.T.);
#620=EDGE_CURVE('',#507,#509,#288,.T.);
#621=EDGE_CURVE('',#510,#511,#289,.T.);
#622=EDGE_CURVE('',#511,#512,#290,.T.);
#623=EDGE_CURVE('',#512,#513,#291,.T.);
#624=EDGE_CURVE('',#513,#510,#292,.T.);
#625=EDGE_CURVE('',#486,#479,#293,.T.);
#626=EDGE_CURVE('',#514,#486,#294,.T.);
#627=EDGE_CURVE('',#470,#515,#295,.T.);
#628=EDGE_CURVE('',#515,#514,#296,.T.);
#629=EDGE_CURVE('',#516,#465,#297,.T.);
#630=EDGE_CURVE('',#476,#517,#298,.T.);
#631=EDGE_CURVE('',#517,#516,#299,.T.);
#632=EDGE_CURVE('',#516,#466,#57,.T.);
#633=EDGE_CURVE('',#469,#515,#58,.T.);
#634=EDGE_CURVE('',#514,#479,#59,.T.);
#635=EDGE_CURVE('',#482,#517,#60,.T.);
#636=EDGE_CURVE('',#474,#518,#61,.T.);
#637=EDGE_CURVE('',#518,#515,#300,.T.);
#638=EDGE_CURVE('',#516,#519,#301,.T.);
#639=EDGE_CURVE('',#519,#473,#62,.T.);
#640=EDGE_CURVE('',#520,#517,#302,.T.);
#641=EDGE_CURVE('',#519,#520,#303,.T.);
#642=EDGE_CURVE('',#514,#521,#304,.T.);
#643=EDGE_CURVE('',#521,#480,#63,.T.);
#644=EDGE_CURVE('',#481,#520,#64,.T.);
#645=EDGE_CURVE('',#513,#522,#305,.T.);
#646=EDGE_CURVE('',#512,#523,#306,.T.);
#647=EDGE_CURVE('',#522,#523,#307,.T.);
#648=EDGE_CURVE('',#524,#510,#308,.T.);
#649=EDGE_CURVE('',#525,#524,#309,.T.);
#650=EDGE_CURVE('',#525,#511,#310,.T.);
#651=EDGE_CURVE('',#524,#522,#311,.T.);
#652=EDGE_CURVE('',#523,#525,#312,.T.);
#653=EDGE_CURVE('',#526,#508,#313,.T.);
#654=EDGE_CURVE('',#526,#503,#314,.T.);
#655=EDGE_CURVE('',#509,#526,#315,.T.);
#656=EDGE_CURVE('',#521,#518,#316,.T.);
#657=EDGE_CURVE('',#527,#528,#317,.T.);
#658=EDGE_CURVE('',#529,#527,#318,.T.);
#659=EDGE_CURVE('',#530,#529,#319,.T.);
#660=EDGE_CURVE('',#531,#530,#320,.T.);
#661=EDGE_CURVE('',#528,#531,#321,.T.);
#662=EDGE_CURVE('',#528,#532,#322,.T.);
#663=EDGE_CURVE('',#532,#533,#323,.T.);
#664=EDGE_CURVE('',#527,#533,#324,.T.);
#665=EDGE_CURVE('',#531,#534,#325,.T.);
#666=EDGE_CURVE('',#534,#532,#326,.T.);
#667=EDGE_CURVE('',#535,#535,#65,.T.);
#668=EDGE_CURVE('',#536,#536,#66,.T.);
#669=EDGE_CURVE('',#537,#534,#327,.T.);
#670=EDGE_CURVE('',#538,#537,#328,.T.);
#671=EDGE_CURVE('',#533,#538,#329,.T.);
#672=EDGE_CURVE('',#529,#538,#330,.T.);
#673=EDGE_CURVE('',#537,#530,#331,.T.);
#674=EDGE_CURVE('',#539,#539,#67,.T.);
#675=EDGE_CURVE('',#535,#539,#332,.T.);
#676=EDGE_CURVE('',#540,#540,#68,.T.);
#677=EDGE_CURVE('',#536,#540,#333,.T.);
#678=EDGE_CURVE('',#541,#542,#334,.T.);
#679=EDGE_CURVE('',#543,#541,#335,.T.);
#680=EDGE_CURVE('',#544,#543,#336,.T.);
#681=EDGE_CURVE('',#545,#544,#337,.T.);
#682=EDGE_CURVE('',#542,#545,#338,.T.);
#683=EDGE_CURVE('',#546,#543,#339,.T.);
#684=EDGE_CURVE('',#546,#547,#340,.T.);
#685=EDGE_CURVE('',#547,#544,#341,.T.);
#686=EDGE_CURVE('',#541,#548,#342,.T.);
#687=EDGE_CURVE('',#548,#546,#343,.T.);
#688=EDGE_CURVE('',#549,#542,#344,.T.);
#689=EDGE_CURVE('',#549,#548,#345,.T.);
#690=EDGE_CURVE('',#550,#549,#346,.T.);
#691=EDGE_CURVE('',#547,#550,#347,.T.);
#692=EDGE_CURVE('',#550,#545,#348,.T.);
#693=EDGE_CURVE('',#551,#551,#69,.T.);
#694=EDGE_CURVE('',#552,#552,#70,.T.);
#695=EDGE_CURVE('',#553,#553,#71,.T.);
#696=EDGE_CURVE('',#552,#553,#349,.T.);
#697=EDGE_CURVE('',#554,#554,#72,.T.);
#698=EDGE_CURVE('',#551,#554,#350,.T.);
#699=ORIENTED_EDGE('',*,*,#555,.T.);
#700=ORIENTED_EDGE('',*,*,#556,.T.);
#701=ORIENTED_EDGE('',*,*,#557,.T.);
#702=ORIENTED_EDGE('',*,*,#558,.T.);
#703=ORIENTED_EDGE('',*,*,#559,.T.);
#704=ORIENTED_EDGE('',*,*,#560,.T.);
#705=ORIENTED_EDGE('',*,*,#561,.T.);
#706=ORIENTED_EDGE('',*,*,#562,.T.);
#707=ORIENTED_EDGE('',*,*,#563,.T.);
#708=ORIENTED_EDGE('',*,*,#564,.T.);
#709=ORIENTED_EDGE('',*,*,#565,.T.);
#710=ORIENTED_EDGE('',*,*,#558,.F.);
#711=ORIENTED_EDGE('',*,*,#566,.F.);
#712=ORIENTED_EDGE('',*,*,#567,.F.);
#713=ORIENTED_EDGE('',*,*,#568,.F.);
#714=ORIENTED_EDGE('',*,*,#560,.F.);
#715=ORIENTED_EDGE('',*,*,#569,.T.);
#716=ORIENTED_EDGE('',*,*,#570,.F.);
#717=ORIENTED_EDGE('',*,*,#571,.F.);
#718=ORIENTED_EDGE('',*,*,#556,.F.);
#719=ORIENTED_EDGE('',*,*,#572,.T.);
#720=ORIENTED_EDGE('',*,*,#573,.F.);
#721=ORIENTED_EDGE('',*,*,#574,.F.);
#722=ORIENTED_EDGE('',*,*,#575,.F.);
#723=ORIENTED_EDGE('',*,*,#576,.F.);
#724=ORIENTED_EDGE('',*,*,#577,.F.);
#725=ORIENTED_EDGE('',*,*,#578,.T.);
#726=ORIENTED_EDGE('',*,*,#579,.T.);
#727=ORIENTED_EDGE('',*,*,#580,.T.);
#728=ORIENTED_EDGE('',*,*,#562,.F.);
#729=ORIENTED_EDGE('',*,*,#581,.F.);
#730=ORIENTED_EDGE('',*,*,#582,.F.);
#731=ORIENTED_EDGE('',*,*,#583,.T.);
#732=ORIENTED_EDGE('',*,*,#577,.T.);
#733=ORIENTED_EDGE('',*,*,#584,.T.);
#734=ORIENTED_EDGE('',*,*,#570,.T.);
#735=ORIENTED_EDGE('',*,*,#585,.F.);
#736=ORIENTED_EDGE('',*,*,#586,.T.);
#737=ORIENTED_EDGE('',*,*,#587,.T.);
#738=ORIENTED_EDGE('',*,*,#586,.F.);
#739=ORIENTED_EDGE('',*,*,#587,.F.);
#740=ORIENTED_EDGE('',*,*,#588,.F.);
#741=ORIENTED_EDGE('',*,*,#589,.F.);
#742=ORIENTED_EDGE('',*,*,#590,.T.);
#743=ORIENTED_EDGE('',*,*,#591,.T.);
#744=ORIENTED_EDGE('',*,*,#590,.F.);
#745=ORIENTED_EDGE('',*,*,#591,.F.);
#746=ORIENTED_EDGE('',*,*,#592,.F.);
#747=ORIENTED_EDGE('',*,*,#588,.T.);
#748=ORIENTED_EDGE('',*,*,#593,.T.);
#749=ORIENTED_EDGE('',*,*,#594,.F.);
#750=ORIENTED_EDGE('',*,*,#593,.F.);
#751=ORIENTED_EDGE('',*,*,#592,.T.);
#752=ORIENTED_EDGE('',*,*,#595,.T.);
#753=ORIENTED_EDGE('',*,*,#596,.F.);
#754=ORIENTED_EDGE('',*,*,#595,.F.);
#755=ORIENTED_EDGE('',*,*,#597,.F.);
#756=ORIENTED_EDGE('',*,*,#598,.T.);
#757=ORIENTED_EDGE('',*,*,#599,.T.);
#758=ORIENTED_EDGE('',*,*,#598,.F.);
#759=ORIENTED_EDGE('',*,*,#599,.F.);
#760=ORIENTED_EDGE('',*,*,#600,.F.);
#761=ORIENTED_EDGE('',*,*,#601,.F.);
#762=ORIENTED_EDGE('',*,*,#602,.T.);
#763=ORIENTED_EDGE('',*,*,#603,.T.);
#764=ORIENTED_EDGE('',*,*,#602,.F.);
#765=ORIENTED_EDGE('',*,*,#603,.F.);
#766=ORIENTED_EDGE('',*,*,#604,.F.);
#767=ORIENTED_EDGE('',*,*,#600,.T.);
#768=ORIENTED_EDGE('',*,*,#605,.T.);
#769=ORIENTED_EDGE('',*,*,#606,.F.);
#770=ORIENTED_EDGE('',*,*,#605,.F.);
#771=ORIENTED_EDGE('',*,*,#604,.T.);
#772=ORIENTED_EDGE('',*,*,#607,.T.);
#773=ORIENTED_EDGE('',*,*,#608,.F.);
#774=ORIENTED_EDGE('',*,*,#607,.F.);
#775=ORIENTED_EDGE('',*,*,#579,.F.);
#776=ORIENTED_EDGE('',*,*,#609,.F.);
#777=ORIENTED_EDGE('',*,*,#610,.F.);
#778=ORIENTED_EDGE('',*,*,#611,.F.);
#779=ORIENTED_EDGE('',*,*,#606,.T.);
#780=ORIENTED_EDGE('',*,*,#608,.T.);
#781=ORIENTED_EDGE('',*,*,#564,.F.);
#782=ORIENTED_EDGE('',*,*,#612,.F.);
#783=ORIENTED_EDGE('',*,*,#613,.F.);
#784=ORIENTED_EDGE('',*,*,#614,.F.);
#785=ORIENTED_EDGE('',*,*,#594,.T.);
#786=ORIENTED_EDGE('',*,*,#596,.T.);
#787=ORIENTED_EDGE('',*,*,#613,.T.);
#788=ORIENTED_EDGE('',*,*,#615,.F.);
#789=ORIENTED_EDGE('',*,*,#616,.F.);
#790=ORIENTED_EDGE('',*,*,#617,.T.);
#791=ORIENTED_EDGE('',*,*,#580,.F.);
#792=ORIENTED_EDGE('',*,*,#618,.F.);
#793=ORIENTED_EDGE('',*,*,#572,.F.);
#794=ORIENTED_EDGE('',*,*,#611,.T.);
#795=ORIENTED_EDGE('',*,*,#619,.F.);
#796=ORIENTED_EDGE('',*,*,#620,.F.);
#797=ORIENTED_EDGE('',*,*,#615,.T.);
#798=ORIENTED_EDGE('',*,*,#612,.T.);
#799=ORIENTED_EDGE('',*,*,#563,.F.);
#800=ORIENTED_EDGE('',*,*,#559,.F.);
#801=ORIENTED_EDGE('',*,*,#621,.T.);
#802=ORIENTED_EDGE('',*,*,#622,.T.);
#803=ORIENTED_EDGE('',*,*,#623,.T.);
#804=ORIENTED_EDGE('',*,*,#624,.T.);
#805=ORIENTED_EDGE('',*,*,#618,.T.);
#806=ORIENTED_EDGE('',*,*,#582,.T.);
#807=ORIENTED_EDGE('',*,*,#625,.T.);
#808=ORIENTED_EDGE('',*,*,#573,.T.);
#809=ORIENTED_EDGE('',*,*,#626,.T.);
#810=ORIENTED_EDGE('',*,*,#581,.T.);
#811=ORIENTED_EDGE('',*,*,#627,.T.);
#812=ORIENTED_EDGE('',*,*,#628,.T.);
#813=ORIENTED_EDGE('',*,*,#629,.T.);
#814=ORIENTED_EDGE('',*,*,#571,.T.);
#815=ORIENTED_EDGE('',*,*,#630,.T.);
#816=ORIENTED_EDGE('',*,*,#631,.T.);
#817=ORIENTED_EDGE('',*,*,#629,.F.);
#818=ORIENTED_EDGE('',*,*,#632,.T.);
#819=ORIENTED_EDGE('',*,*,#557,.F.);
#820=ORIENTED_EDGE('',*,*,#561,.F.);
#821=ORIENTED_EDGE('',*,*,#633,.T.);
#822=ORIENTED_EDGE('',*,*,#627,.F.);
#823=ORIENTED_EDGE('',*,*,#626,.F.);
#824=ORIENTED_EDGE('',*,*,#634,.T.);
#825=ORIENTED_EDGE('',*,*,#625,.F.);
#826=ORIENTED_EDGE('',*,*,#584,.F.);
#827=ORIENTED_EDGE('',*,*,#635,.T.);
#828=ORIENTED_EDGE('',*,*,#630,.F.);
#829=ORIENTED_EDGE('',*,*,#633,.F.);
#830=ORIENTED_EDGE('',*,*,#568,.T.);
#831=ORIENTED_EDGE('',*,*,#636,.T.);
#832=ORIENTED_EDGE('',*,*,#637,.T.);
#833=ORIENTED_EDGE('',*,*,#632,.F.);
#834=ORIENTED_EDGE('',*,*,#638,.T.);
#835=ORIENTED_EDGE('',*,*,#639,.T.);
#836=ORIENTED_EDGE('',*,*,#566,.T.);
#837=ORIENTED_EDGE('',*,*,#631,.F.);
#838=ORIENTED_EDGE('',*,*,#640,.F.);
#839=ORIENTED_EDGE('',*,*,#641,.F.);
#840=ORIENTED_EDGE('',*,*,#638,.F.);
#841=ORIENTED_EDGE('',*,*,#634,.F.);
#842=ORIENTED_EDGE('',*,*,#642,.T.);
#843=ORIENTED_EDGE('',*,*,#643,.T.);
#844=ORIENTED_EDGE('',*,*,#574,.T.);
#845=ORIENTED_EDGE('',*,*,#635,.F.);
#846=ORIENTED_EDGE('',*,*,#576,.T.);
#847=ORIENTED_EDGE('',*,*,#644,.T.);
#848=ORIENTED_EDGE('',*,*,#640,.T.);
#849=ORIENTED_EDGE('',*,*,#645,.F.);
#850=ORIENTED_EDGE('',*,*,#623,.F.);
#851=ORIENTED_EDGE('',*,*,#646,.T.);
#852=ORIENTED_EDGE('',*,*,#647,.F.);
#853=ORIENTED_EDGE('',*,*,#648,.F.);
#854=ORIENTED_EDGE('',*,*,#649,.F.);
#855=ORIENTED_EDGE('',*,*,#650,.T.);
#856=ORIENTED_EDGE('',*,*,#621,.F.);
#857=ORIENTED_EDGE('',*,*,#651,.F.);
#858=ORIENTED_EDGE('',*,*,#648,.T.);
#859=ORIENTED_EDGE('',*,*,#624,.F.);
#860=ORIENTED_EDGE('',*,*,#645,.T.);
#861=ORIENTED_EDGE('',*,*,#652,.F.);
#862=ORIENTED_EDGE('',*,*,#646,.F.);
#863=ORIENTED_EDGE('',*,*,#622,.F.);
#864=ORIENTED_EDGE('',*,*,#650,.F.);
#865=ORIENTED_EDGE('',*,*,#617,.F.);
#866=ORIENTED_EDGE('',*,*,#653,.F.);
#867=ORIENTED_EDGE('',*,*,#654,.T.);
#868=ORIENTED_EDGE('',*,*,#609,.T.);
#869=ORIENTED_EDGE('',*,*,#578,.F.);
#870=ORIENTED_EDGE('',*,*,#583,.F.);
#871=ORIENTED_EDGE('',*,*,#569,.F.);
#872=ORIENTED_EDGE('',*,*,#555,.F.);
#873=ORIENTED_EDGE('',*,*,#565,.F.);
#874=ORIENTED_EDGE('',*,*,#614,.T.);
#875=ORIENTED_EDGE('',*,*,#610,.T.);
#876=ORIENTED_EDGE('',*,*,#654,.F.);
#877=ORIENTED_EDGE('',*,*,#655,.F.);
#878=ORIENTED_EDGE('',*,*,#619,.T.);
#879=ORIENTED_EDGE('',*,*,#628,.F.);
#880=ORIENTED_EDGE('',*,*,#637,.F.);
#881=ORIENTED_EDGE('',*,*,#656,.F.);
#882=ORIENTED_EDGE('',*,*,#642,.F.);
#883=ORIENTED_EDGE('',*,*,#649,.T.);
#884=ORIENTED_EDGE('',*,*,#651,.T.);
#885=ORIENTED_EDGE('',*,*,#647,.T.);
#886=ORIENTED_EDGE('',*,*,#652,.T.);
#887=ORIENTED_EDGE('',*,*,#653,.T.);
#888=ORIENTED_EDGE('',*,*,#616,.T.);
#889=ORIENTED_EDGE('',*,*,#620,.T.);
#890=ORIENTED_EDGE('',*,*,#655,.T.);
#891=ORIENTED_EDGE('',*,*,#636,.F.);
#892=ORIENTED_EDGE('',*,*,#567,.T.);
#893=ORIENTED_EDGE('',*,*,#639,.F.);
#894=ORIENTED_EDGE('',*,*,#641,.T.);
#895=ORIENTED_EDGE('',*,*,#644,.F.);
#896=ORIENTED_EDGE('',*,*,#575,.T.);
#897=ORIENTED_EDGE('',*,*,#643,.F.);
#898=ORIENTED_EDGE('',*,*,#656,.T.);
#899=ORIENTED_EDGE('',*,*,#585,.T.);
#900=ORIENTED_EDGE('',*,*,#589,.T.);
#901=ORIENTED_EDGE('',*,*,#597,.T.);
#902=ORIENTED_EDGE('',*,*,#601,.T.);
#903=ORIENTED_EDGE('',*,*,#657,.F.);
#904=ORIENTED_EDGE('',*,*,#658,.F.);
#905=ORIENTED_EDGE('',*,*,#659,.F.);
#906=ORIENTED_EDGE('',*,*,#660,.F.);
#907=ORIENTED_EDGE('',*,*,#661,.F.);
#908=ORIENTED_EDGE('',*,*,#657,.T.);
#909=ORIENTED_EDGE('',*,*,#662,.T.);
#910=ORIENTED_EDGE('',*,*,#663,.T.);
#911=ORIENTED_EDGE('',*,*,#664,.F.);
#912=ORIENTED_EDGE('',*,*,#661,.T.);
#913=ORIENTED_EDGE('',*,*,#665,.T.);
#914=ORIENTED_EDGE('',*,*,#666,.T.);
#915=ORIENTED_EDGE('',*,*,#662,.F.);
#916=ORIENTED_EDGE('',*,*,#667,.T.);
#917=ORIENTED_EDGE('',*,*,#668,.T.);
#918=ORIENTED_EDGE('',*,*,#663,.F.);
#919=ORIENTED_EDGE('',*,*,#666,.F.);
#920=ORIENTED_EDGE('',*,*,#669,.F.);
#921=ORIENTED_EDGE('',*,*,#670,.F.);
#922=ORIENTED_EDGE('',*,*,#671,.F.);
#923=ORIENTED_EDGE('',*,*,#659,.T.);
#924=ORIENTED_EDGE('',*,*,#672,.T.);
#925=ORIENTED_EDGE('',*,*,#670,.T.);
#926=ORIENTED_EDGE('',*,*,#673,.T.);
#927=ORIENTED_EDGE('',*,*,#660,.T.);
#928=ORIENTED_EDGE('',*,*,#673,.F.);
#929=ORIENTED_EDGE('',*,*,#669,.T.);
#930=ORIENTED_EDGE('',*,*,#665,.F.);
#931=ORIENTED_EDGE('',*,*,#658,.T.);
#932=ORIENTED_EDGE('',*,*,#664,.T.);
#933=ORIENTED_EDGE('',*,*,#671,.T.);
#934=ORIENTED_EDGE('',*,*,#672,.F.);
#935=ORIENTED_EDGE('',*,*,#674,.F.);
#936=ORIENTED_EDGE('',*,*,#667,.F.);
#937=ORIENTED_EDGE('',*,*,#675,.T.);
#938=ORIENTED_EDGE('',*,*,#674,.T.);
#939=ORIENTED_EDGE('',*,*,#675,.F.);
#940=ORIENTED_EDGE('',*,*,#676,.F.);
#941=ORIENTED_EDGE('',*,*,#668,.F.);
#942=ORIENTED_EDGE('',*,*,#677,.T.);
#943=ORIENTED_EDGE('',*,*,#676,.T.);
#944=ORIENTED_EDGE('',*,*,#677,.F.);
#945=ORIENTED_EDGE('',*,*,#678,.F.);
#946=ORIENTED_EDGE('',*,*,#679,.F.);
#947=ORIENTED_EDGE('',*,*,#680,.F.);
#948=ORIENTED_EDGE('',*,*,#681,.F.);
#949=ORIENTED_EDGE('',*,*,#682,.F.);
#950=ORIENTED_EDGE('',*,*,#680,.T.);
#951=ORIENTED_EDGE('',*,*,#683,.F.);
#952=ORIENTED_EDGE('',*,*,#684,.T.);
#953=ORIENTED_EDGE('',*,*,#685,.T.);
#954=ORIENTED_EDGE('',*,*,#679,.T.);
#955=ORIENTED_EDGE('',*,*,#686,.T.);
#956=ORIENTED_EDGE('',*,*,#687,.T.);
#957=ORIENTED_EDGE('',*,*,#683,.T.);
#958=ORIENTED_EDGE('',*,*,#678,.T.);
#959=ORIENTED_EDGE('',*,*,#688,.F.);
#960=ORIENTED_EDGE('',*,*,#689,.T.);
#961=ORIENTED_EDGE('',*,*,#686,.F.);
#962=ORIENTED_EDGE('',*,*,#684,.F.);
#963=ORIENTED_EDGE('',*,*,#687,.F.);
#964=ORIENTED_EDGE('',*,*,#689,.F.);
#965=ORIENTED_EDGE('',*,*,#690,.F.);
#966=ORIENTED_EDGE('',*,*,#691,.F.);
#967=ORIENTED_EDGE('',*,*,#682,.T.);
#968=ORIENTED_EDGE('',*,*,#692,.F.);
#969=ORIENTED_EDGE('',*,*,#690,.T.);
#970=ORIENTED_EDGE('',*,*,#688,.T.);
#971=ORIENTED_EDGE('',*,*,#693,.T.);
#972=ORIENTED_EDGE('',*,*,#694,.T.);
#973=ORIENTED_EDGE('',*,*,#681,.T.);
#974=ORIENTED_EDGE('',*,*,#685,.F.);
#975=ORIENTED_EDGE('',*,*,#691,.T.);
#976=ORIENTED_EDGE('',*,*,#692,.T.);
#977=ORIENTED_EDGE('',*,*,#695,.F.);
#978=ORIENTED_EDGE('',*,*,#694,.F.);
#979=ORIENTED_EDGE('',*,*,#696,.T.);
#980=ORIENTED_EDGE('',*,*,#695,.T.);
#981=ORIENTED_EDGE('',*,*,#696,.F.);
#982=ORIENTED_EDGE('',*,*,#697,.F.);
#983=ORIENTED_EDGE('',*,*,#693,.F.);
#984=ORIENTED_EDGE('',*,*,#698,.T.);
#985=ORIENTED_EDGE('',*,*,#697,.T.);
#986=ORIENTED_EDGE('',*,*,#698,.F.);
#987=PLANE('',#1103);
#988=PLANE('',#1104);
#989=PLANE('',#1105);
#990=PLANE('',#1106);
#991=PLANE('',#1107);
#992=PLANE('',#1108);
#993=PLANE('',#1109);
#994=PLANE('',#1113);
#995=PLANE('',#1118);
#996=PLANE('',#1127);
#997=PLANE('',#1132);
#998=PLANE('',#1138);
#999=PLANE('',#1139);
#1000=PLANE('',#1140);
#1001=PLANE('',#1141);
#1002=PLANE('',#1142);
#1003=PLANE('',#1143);
#1004=PLANE('',#1144);
#1005=PLANE('',#1157);
#1006=PLANE('',#1162);
#1007=PLANE('',#1163);
#1008=PLANE('',#1164);
#1009=PLANE('',#1165);
#1010=PLANE('',#1166);
#1011=PLANE('',#1167);
#1012=PLANE('',#1168);
#1013=PLANE('',#1169);
#1014=PLANE('',#1170);
#1015=PLANE('',#1171);
#1016=PLANE('',#1172);
#1017=PLANE('',#1173);
#1018=PLANE('',#1176);
#1019=PLANE('',#1177);
#1020=PLANE('',#1178);
#1021=PLANE('',#1179);
#1022=PLANE('',#1180);
#1023=PLANE('',#1183);
#1024=PLANE('',#1186);
#1025=PLANE('',#1187);
#1026=PLANE('',#1188);
#1027=PLANE('',#1189);
#1028=PLANE('',#1190);
#1029=PLANE('',#1191);
#1030=PLANE('',#1194);
#1031=PLANE('',#1195);
#1032=PLANE('',#1198);
#1033=ADVANCED_FACE('',(#89),#987,.T.);
#1034=ADVANCED_FACE('',(#90),#988,.T.);
#1035=ADVANCED_FACE('',(#91),#989,.T.);
#1036=ADVANCED_FACE('',(#92),#990,.T.);
#1037=ADVANCED_FACE('',(#93),#991,.T.);
#1038=ADVANCED_FACE('',(#94),#992,.T.);
#1039=ADVANCED_FACE('',(#95),#993,.T.);
#1040=ADVANCED_FACE('',(#96),#73,.F.);
#1041=ADVANCED_FACE('',(#97,#23),#994,.T.);
#1042=ADVANCED_FACE('',(#98),#74,.F.);
#1043=ADVANCED_FACE('',(#99,#24),#995,.T.);
#1044=ADVANCED_FACE('',(#100),#75,.F.);
#1045=ADVANCED_FACE('',(#101),#76,.F.);
#1046=ADVANCED_FACE('',(#102),#77,.F.);
#1047=ADVANCED_FACE('',(#103,#25),#996,.T.);
#1048=ADVANCED_FACE('',(#104),#78,.F.);
#1049=ADVANCED_FACE('',(#105,#26),#997,.T.);
#1050=ADVANCED_FACE('',(#106),#79,.F.);
#1051=ADVANCED_FACE('',(#107),#80,.F.);
#1052=ADVANCED_FACE('',(#108,#27,#28),#998,.F.);
#1053=ADVANCED_FACE('',(#109,#29,#30),#999,.F.);
#1054=ADVANCED_FACE('',(#110),#1000,.T.);
#1055=ADVANCED_FACE('',(#111,#31),#1001,.T.);
#1056=ADVANCED_FACE('',(#112),#1002,.T.);
#1057=ADVANCED_FACE('',(#113),#1003,.T.);
#1058=ADVANCED_FACE('',(#114),#1004,.T.);
#1059=ADVANCED_FACE('',(#115),#19,.T.);
#1060=ADVANCED_FACE('',(#116),#20,.T.);
#1061=ADVANCED_FACE('',(#117),#21,.T.);
#1062=ADVANCED_FACE('',(#118),#22,.T.);
#1063=ADVANCED_FACE('',(#119),#81,.T.);
#1064=ADVANCED_FACE('',(#120),#82,.T.);
#1065=ADVANCED_FACE('',(#121),#1005,.T.);
#1066=ADVANCED_FACE('',(#122),#83,.T.);
#1067=ADVANCED_FACE('',(#123),#84,.T.);
#1068=ADVANCED_FACE('',(#124),#1006,.F.);
#1069=ADVANCED_FACE('',(#125),#1007,.F.);
#1070=ADVANCED_FACE('',(#126),#1008,.F.);
#1071=ADVANCED_FACE('',(#127),#1009,.F.);
#1072=ADVANCED_FACE('',(#128),#1010,.T.);
#1073=ADVANCED_FACE('',(#129),#1011,.T.);
#1074=ADVANCED_FACE('',(#130,#32),#1012,.T.);
#1075=ADVANCED_FACE('',(#131),#1013,.T.);
#1076=ADVANCED_FACE('',(#132,#33,#34,#35,#36),#1014,.F.);
#1077=ADVANCED_FACE('',(#133),#1015,.F.);
#1078=ADVANCED_FACE('',(#134),#1016,.T.);
#1079=ADVANCED_FACE('',(#135,#37,#38),#1017,.T.);
#1080=ADVANCED_FACE('',(#136),#1018,.F.);
#1081=ADVANCED_FACE('',(#137),#1019,.T.);
#1082=ADVANCED_FACE('',(#138),#1020,.T.);
#1083=ADVANCED_FACE('',(#139),#1021,.T.);
#1084=ADVANCED_FACE('',(#140),#1022,.T.);
#1085=ADVANCED_FACE('',(#141),#85,.F.);
#1086=ADVANCED_FACE('',(#142),#1023,.T.);
#1087=ADVANCED_FACE('',(#143),#86,.F.);
#1088=ADVANCED_FACE('',(#144),#1024,.F.);
#1089=ADVANCED_FACE('',(#145),#1025,.T.);
#1090=ADVANCED_FACE('',(#146),#1026,.T.);
#1091=ADVANCED_FACE('',(#147),#1027,.T.);
#1092=ADVANCED_FACE('',(#148),#1028,.F.);
#1093=ADVANCED_FACE('',(#149,#39,#40),#1029,.T.);
#1094=ADVANCED_FACE('',(#150),#1030,.T.);
#1095=ADVANCED_FACE('',(#151),#1031,.T.);
#1096=ADVANCED_FACE('',(#152),#87,.F.);
#1097=ADVANCED_FACE('',(#153),#1032,.T.);
#1098=ADVANCED_FACE('',(#154),#88,.F.);
#1099=CLOSED_SHELL('',(#1033,#1034,#1035,#1036,#1037,#1038,#1039,#1040,
#1041,#1042,#1043,#1044,#1045,#1046,#1047,#1048,#1049,#1050,#1051,#1052,
#1053,#1054,#1055,#1056,#1057,#1058,#1059,#1060,#1061,#1062,#1063,#1064,
#1065,#1066,#1067,#1068,#1069,#1070,#1071,#1072,#1073,#1074,#1075,#1076));
#1100=CLOSED_SHELL('',(#1077,#1078,#1079,#1080,#1081,#1082,#1083,#1084,
#1085,#1086,#1087));
#1101=CLOSED_SHELL('',(#1088,#1089,#1090,#1091,#1092,#1093,#1094,#1095,
#1096,#1097,#1098));
#1102=AXIS2_PLACEMENT_3D('',#1511,#1201,#1202);
#1103=AXIS2_PLACEMENT_3D('',#1512,#1203,#1204);
#1104=AXIS2_PLACEMENT_3D('',#1521,#1209,#1210);
#1105=AXIS2_PLACEMENT_3D('',#1530,#1215,#1216);
#1106=AXIS2_PLACEMENT_3D('',#1541,#1223,#1224);
#1107=AXIS2_PLACEMENT_3D('',#1547,#1228,#1229);
#1108=AXIS2_PLACEMENT_3D('',#1564,#1238,#1239);
#1109=AXIS2_PLACEMENT_3D('',#1570,#1243,#1244);
#1110=AXIS2_PLACEMENT_3D('',#1573,#1247,#1248);
#1111=AXIS2_PLACEMENT_3D('',#1575,#1249,#1250);
#1112=AXIS2_PLACEMENT_3D('',#1578,#1252,#1253);
#1113=AXIS2_PLACEMENT_3D('',#1579,#1254,#1255);
#1114=AXIS2_PLACEMENT_3D('',#1581,#1256,#1257);
#1115=AXIS2_PLACEMENT_3D('',#1582,#1258,#1259);
#1116=AXIS2_PLACEMENT_3D('',#1584,#1260,#1261);
#1117=AXIS2_PLACEMENT_3D('',#1587,#1263,#1264);
#1118=AXIS2_PLACEMENT_3D('',#1588,#1265,#1266);
#1119=AXIS2_PLACEMENT_3D('',#1590,#1267,#1268);
#1120=AXIS2_PLACEMENT_3D('',#1591,#1269,#1270);
#1121=AXIS2_PLACEMENT_3D('',#1594,#1272,#1273);
#1122=AXIS2_PLACEMENT_3D('',#1595,#1274,#1275);
#1123=AXIS2_PLACEMENT_3D('',#1598,#1277,#1278);
#1124=AXIS2_PLACEMENT_3D('',#1599,#1279,#1280);
#1125=AXIS2_PLACEMENT_3D('',#1601,#1281,#1282);
#1126=AXIS2_PLACEMENT_3D('',#1604,#1284,#1285);
#1127=AXIS2_PLACEMENT_3D('',#1605,#1286,#1287);
#1128=AXIS2_PLACEMENT_3D('',#1607,#1288,#1289);
#1129=AXIS2_PLACEMENT_3D('',#1608,#1290,#1291);
#1130=AXIS2_PLACEMENT_3D('',#1610,#1292,#1293);
#1131=AXIS2_PLACEMENT_3D('',#1613,#1295,#1296);
#1132=AXIS2_PLACEMENT_3D('',#1614,#1297,#1298);
#1133=AXIS2_PLACEMENT_3D('',#1616,#1299,#1300);
#1134=AXIS2_PLACEMENT_3D('',#1617,#1301,#1302);
#1135=AXIS2_PLACEMENT_3D('',#1620,#1304,#1305);
#1136=AXIS2_PLACEMENT_3D('',#1621,#1306,#1307);
#1137=AXIS2_PLACEMENT_3D('',#1624,#1309,#1310);
#1138=AXIS2_PLACEMENT_3D('',#1625,#1311,#1312);
#1139=AXIS2_PLACEMENT_3D('',#1631,#1316,#1317);
#1140=AXIS2_PLACEMENT_3D('',#1637,#1321,#1322);
#1141=AXIS2_PLACEMENT_3D('',#1643,#1326,#1327);
#1142=AXIS2_PLACEMENT_3D('',#1656,#1335,#1336);
#1143=AXIS2_PLACEMENT_3D('',#1658,#1338,#1339);
#1144=AXIS2_PLACEMENT_3D('',#1664,#1343,#1344);
#1145=AXIS2_PLACEMENT_3D('',#1670,#1348,#1349);
#1146=AXIS2_PLACEMENT_3D('',#1671,#1350,#1351);
#1147=AXIS2_PLACEMENT_3D('',#1672,#1352,#1353);
#1148=AXIS2_PLACEMENT_3D('',#1673,#1354,#1355);
#1149=AXIS2_PLACEMENT_3D('',#1674,#1356,#1357);
#1150=AXIS2_PLACEMENT_3D('',#1675,#1358,#1359);
#1151=AXIS2_PLACEMENT_3D('',#1676,#1360,#1361);
#1152=AXIS2_PLACEMENT_3D('',#1677,#1362,#1363);
#1153=AXIS2_PLACEMENT_3D('',#1678,#1364,#1365);
#1154=AXIS2_PLACEMENT_3D('',#1680,#1366,#1367);
#1155=AXIS2_PLACEMENT_3D('',#1682,#1369,#1370);
#1156=AXIS2_PLACEMENT_3D('',#1685,#1372,#1373);
#1157=AXIS2_PLACEMENT_3D('',#1686,#1374,#1375);
#1158=AXIS2_PLACEMENT_3D('',#1690,#1378,#1379);
#1159=AXIS2_PLACEMENT_3D('',#1693,#1381,#1382);
#1160=AXIS2_PLACEMENT_3D('',#1694,#1383,#1384);
#1161=AXIS2_PLACEMENT_3D('',#1695,#1385,#1386);
#1162=AXIS2_PLACEMENT_3D('',#1696,#1387,#1388);
#1163=AXIS2_PLACEMENT_3D('',#1702,#1392,#1393);
#1164=AXIS2_PLACEMENT_3D('',#1708,#1397,#1398);
#1165=AXIS2_PLACEMENT_3D('',#1710,#1400,#1401);
#1166=AXIS2_PLACEMENT_3D('',#1712,#1403,#1404);
#1167=AXIS2_PLACEMENT_3D('',#1716,#1407,#1408);
#1168=AXIS2_PLACEMENT_3D('',#1718,#1410,#1411);
#1169=AXIS2_PLACEMENT_3D('',#1720,#1413,#1414);
#1170=AXIS2_PLACEMENT_3D('',#1721,#1415,#1416);
#1171=AXIS2_PLACEMENT_3D('',#1722,#1417,#1418);
#1172=AXIS2_PLACEMENT_3D('',#1733,#1424,#1425);
#1173=AXIS2_PLACEMENT_3D('',#1739,#1429,#1430);
#1174=AXIS2_PLACEMENT_3D('',#1744,#1433,#1434);
#1175=AXIS2_PLACEMENT_3D('',#1746,#1435,#1436);
#1176=AXIS2_PLACEMENT_3D('',#1747,#1437,#1438);
#1177=AXIS2_PLACEMENT_3D('',#1753,#1442,#1443);
#1178=AXIS2_PLACEMENT_3D('',#1756,#1446,#1447);
#1179=AXIS2_PLACEMENT_3D('',#1757,#1448,#1449);
#1180=AXIS2_PLACEMENT_3D('',#1758,#1450,#1451);
#1181=AXIS2_PLACEMENT_3D('',#1760,#1452,#1453);
#1182=AXIS2_PLACEMENT_3D('',#1761,#1454,#1455);
#1183=AXIS2_PLACEMENT_3D('',#1763,#1457,#1458);
#1184=AXIS2_PLACEMENT_3D('',#1765,#1459,#1460);
#1185=AXIS2_PLACEMENT_3D('',#1766,#1461,#1462);
#1186=AXIS2_PLACEMENT_3D('',#1768,#1464,#1465);
#1187=AXIS2_PLACEMENT_3D('',#1779,#1471,#1472);
#1188=AXIS2_PLACEMENT_3D('',#1785,#1476,#1477);
#1189=AXIS2_PLACEMENT_3D('',#1789,#1480,#1481);
#1190=AXIS2_PLACEMENT_3D('',#1793,#1484,#1485);
#1191=AXIS2_PLACEMENT_3D('',#1797,#1488,#1489);
#1192=AXIS2_PLACEMENT_3D('',#1800,#1491,#1492);
#1193=AXIS2_PLACEMENT_3D('',#1802,#1493,#1494);
#1194=AXIS2_PLACEMENT_3D('',#1803,#1495,#1496);
#1195=AXIS2_PLACEMENT_3D('',#1804,#1497,#1498);
#1196=AXIS2_PLACEMENT_3D('',#1806,#1499,#1500);
#1197=AXIS2_PLACEMENT_3D('',#1807,#1501,#1502);
#1198=AXIS2_PLACEMENT_3D('',#1809,#1504,#1505);
#1199=AXIS2_PLACEMENT_3D('',#1811,#1506,#1507);
#1200=AXIS2_PLACEMENT_3D('',#1812,#1508,#1509);
#1201=DIRECTION('axis',(0.,0.,1.));
#1202=DIRECTION('refdir',(1.,0.,0.));
#1203=DIRECTION('center_axis',(0.707106781186551,0.,0.707106781186544));
#1204=DIRECTION('ref_axis',(0.707106781186544,0.,-0.707106781186551));
#1205=DIRECTION('',(-0.707106781186544,0.,0.707106781186551));
#1206=DIRECTION('',(0.,-1.,0.));
#1207=DIRECTION('',(0.707106781186544,0.,-0.707106781186551));
#1208=DIRECTION('',(0.,1.,0.));
#1209=DIRECTION('center_axis',(0.707106781186551,0.,0.707106781186544));
#1210=DIRECTION('ref_axis',(0.707106781186544,0.,-0.707106781186551));
#1211=DIRECTION('',(0.707106781186544,0.,-0.707106781186551));
#1212=DIRECTION('',(0.,1.,0.));
#1213=DIRECTION('',(-0.707106781186544,0.,0.707106781186551));
#1214=DIRECTION('',(0.,-1.,0.));
#1215=DIRECTION('center_axis',(1.,0.,0.));
#1216=DIRECTION('ref_axis',(0.,1.,0.));
#1217=DIRECTION('',(0.,0.,-1.));
#1218=DIRECTION('',(0.,-1.,0.));
#1219=DIRECTION('',(0.,0.,1.));
#1220=DIRECTION('',(0.,0.,1.));
#1221=DIRECTION('',(0.,-1.,0.));
#1222=DIRECTION('',(0.,0.,-1.));
#1223=DIRECTION('center_axis',(0.,0.,1.));
#1224=DIRECTION('ref_axis',(1.,0.,0.));
#1225=DIRECTION('',(-1.,0.,0.));
#1226=DIRECTION('',(0.,1.,0.));
#1227=DIRECTION('',(-1.,0.,0.));
#1228=DIRECTION('center_axis',(-1.,0.,0.));
#1229=DIRECTION('ref_axis',(0.,-1.,0.));
#1230=DIRECTION('',(0.,0.,1.));
#1231=DIRECTION('',(0.,-1.,0.));
#1232=DIRECTION('',(0.,0.,1.));
#1233=DIRECTION('',(0.,1.,0.));
#1234=DIRECTION('',(0.,0.,-1.));
#1235=DIRECTION('',(0.,-1.,0.));
#1236=DIRECTION('',(0.,0.,-1.));
#1237=DIRECTION('',(0.,1.,0.));
#1238=DIRECTION('center_axis',(0.,0.,1.));
#1239=DIRECTION('ref_axis',(1.,0.,0.));
#1240=DIRECTION('',(1.,0.,0.));
#1241=DIRECTION('',(1.,0.,0.));
#1242=DIRECTION('',(0.,1.,0.));
#1243=DIRECTION('center_axis',(-0.707106781186546,0.,0.707106781186549));
#1244=DIRECTION('ref_axis',(0.707106781186549,0.,0.707106781186546));
#1245=DIRECTION('',(-0.707106781186549,0.,-0.707106781186546));
#1246=DIRECTION('',(0.707106781186549,0.,0.707106781186546));
#1247=DIRECTION('center_axis',(0.,0.,1.));
#1248=DIRECTION('ref_axis',(1.,0.,0.));
#1249=DIRECTION('center_axis',(0.,0.,1.));
#1250=DIRECTION('ref_axis',(1.,0.,0.));
#1251=DIRECTION('',(0.,0.,1.));
#1252=DIRECTION('center_axis',(0.,0.,1.));
#1253=DIRECTION('ref_axis',(1.,0.,0.));
#1254=DIRECTION('center_axis',(0.,0.,-1.));
#1255=DIRECTION('ref_axis',(1.,0.,0.));
#1256=DIRECTION('center_axis',(0.,0.,-1.));
#1257=DIRECTION('ref_axis',(1.,0.,0.));
#1258=DIRECTION('center_axis',(0.,0.,1.));
#1259=DIRECTION('ref_axis',(1.,0.,0.));
#1260=DIRECTION('center_axis',(0.,0.,1.));
#1261=DIRECTION('ref_axis',(1.,0.,0.));
#1262=DIRECTION('',(0.,0.,1.));
#1263=DIRECTION('center_axis',(0.,0.,1.));
#1264=DIRECTION('ref_axis',(1.,0.,0.));
#1265=DIRECTION('center_axis',(0.,0.,-1.));
#1266=DIRECTION('ref_axis',(1.,0.,0.));
#1267=DIRECTION('center_axis',(0.,0.,-1.));
#1268=DIRECTION('ref_axis',(1.,0.,0.));
#1269=DIRECTION('center_axis',(0.,0.,1.));
#1270=DIRECTION('ref_axis',(1.,0.,0.));
#1271=DIRECTION('',(0.,0.,1.));
#1272=DIRECTION('center_axis',(0.,0.,-1.));
#1273=DIRECTION('ref_axis',(1.,0.,0.));
#1274=DIRECTION('center_axis',(0.,0.,1.));
#1275=DIRECTION('ref_axis',(1.,0.,0.));
#1276=DIRECTION('',(0.,0.,1.));
#1277=DIRECTION('center_axis',(0.,0.,-1.));
#1278=DIRECTION('ref_axis',(1.,0.,0.));
#1279=DIRECTION('center_axis',(0.,0.,1.));
#1280=DIRECTION('ref_axis',(1.,0.,0.));
#1281=DIRECTION('center_axis',(0.,0.,1.));
#1282=DIRECTION('ref_axis',(1.,0.,0.));
#1283=DIRECTION('',(0.,0.,1.));
#1284=DIRECTION('center_axis',(0.,0.,1.));
#1285=DIRECTION('ref_axis',(1.,0.,0.));
#1286=DIRECTION('center_axis',(0.,0.,-1.));
#1287=DIRECTION('ref_axis',(1.,0.,0.));
#1288=DIRECTION('center_axis',(0.,0.,-1.));
#1289=DIRECTION('ref_axis',(1.,0.,0.));
#1290=DIRECTION('center_axis',(0.,0.,1.));
#1291=DIRECTION('ref_axis',(1.,0.,0.));
#1292=DIRECTION('center_axis',(0.,0.,1.));
#1293=DIRECTION('ref_axis',(1.,0.,0.));
#1294=DIRECTION('',(0.,0.,1.));
#1295=DIRECTION('center_axis',(0.,0.,1.));
#1296=DIRECTION('ref_axis',(1.,0.,0.));
#1297=DIRECTION('center_axis',(0.,0.,-1.));
#1298=DIRECTION('ref_axis',(1.,0.,0.));
#1299=DIRECTION('center_axis',(0.,0.,-1.));
#1300=DIRECTION('ref_axis',(1.,0.,0.));
#1301=DIRECTION('center_axis',(0.,0.,1.));
#1302=DIRECTION('ref_axis',(1.,0.,0.));
#1303=DIRECTION('',(0.,0.,1.));
#1304=DIRECTION('center_axis',(0.,0.,-1.));
#1305=DIRECTION('ref_axis',(1.,0.,0.));
#1306=DIRECTION('center_axis',(0.,0.,1.));
#1307=DIRECTION('ref_axis',(1.,0.,0.));
#1308=DIRECTION('',(0.,0.,1.));
#1309=DIRECTION('center_axis',(0.,0.,-1.));
#1310=DIRECTION('ref_axis',(1.,0.,0.));
#1311=DIRECTION('center_axis',(0.,0.,-1.));
#1312=DIRECTION('ref_axis',(0.,-1.,0.));
#1313=DIRECTION('',(-1.,0.,0.));
#1314=DIRECTION('',(0.,-1.,0.));
#1315=DIRECTION('',(1.,0.,0.));
#1316=DIRECTION('center_axis',(0.,0.,-1.));
#1317=DIRECTION('ref_axis',(0.,-1.,0.));
#1318=DIRECTION('',(1.,0.,0.));
#1319=DIRECTION('',(0.,1.,0.));
#1320=DIRECTION('',(-1.,0.,0.));
#1321=DIRECTION('center_axis',(-1.,0.,0.));
#1322=DIRECTION('ref_axis',(0.,-1.,0.));
#1323=DIRECTION('',(0.,0.,1.));
#1324=DIRECTION('',(0.,1.,0.));
#1325=DIRECTION('',(0.,0.,1.));
#1326=DIRECTION('center_axis',(0.,-1.,0.));
#1327=DIRECTION('ref_axis',(1.,0.,0.));
#1328=DIRECTION('',(0.707106781186549,0.,0.707106781186546));
#1329=DIRECTION('',(0.,0.,1.));
#1330=DIRECTION('',(-1.,0.,0.));
#1331=DIRECTION('',(0.,0.,-1.));
#1332=DIRECTION('',(-1.,0.,0.));
#1333=DIRECTION('',(0.,0.,1.));
#1334=DIRECTION('',(1.,0.,0.));
#1335=DIRECTION('center_axis',(-0.707106781186546,0.,0.707106781186549));
#1336=DIRECTION('ref_axis',(0.707106781186549,0.,0.707106781186546));
#1337=DIRECTION('',(-0.707106781186549,0.,-0.707106781186546));
#1338=DIRECTION('center_axis',(0.,0.707106781186549,0.707106781186546));
#1339=DIRECTION('ref_axis',(1.,0.,0.));
#1340=DIRECTION('',(0.,-0.707106781186546,0.707106781186549));
#1341=DIRECTION('',(0.,0.707106781186546,-0.707106781186549));
#1342=DIRECTION('',(-1.,0.,0.));
#1343=DIRECTION('center_axis',(0.,-0.707106781186547,0.707106781186548));
#1344=DIRECTION('ref_axis',(1.,0.,0.));
#1345=DIRECTION('',(0.,0.707106781186548,0.707106781186547));
#1346=DIRECTION('',(0.,-0.707106781186548,-0.707106781186547));
#1347=DIRECTION('',(1.,0.,0.));
#1348=DIRECTION('center_axis',(0.,0.,-1.));
#1349=DIRECTION('ref_axis',(0.707106781186553,-0.707106781186542,0.));
#1350=DIRECTION('center_axis',(0.,0.,1.));
#1351=DIRECTION('ref_axis',(0.707106781186553,-0.707106781186542,0.));
#1352=DIRECTION('center_axis',(0.,0.,-1.));
#1353=DIRECTION('ref_axis',(0.707106781186539,0.707106781186556,0.));
#1354=DIRECTION('center_axis',(0.,0.,1.));
#1355=DIRECTION('ref_axis',(0.707106781186539,0.707106781186556,0.));
#1356=DIRECTION('center_axis',(0.,0.,-1.));
#1357=DIRECTION('ref_axis',(-0.707106781186548,0.707106781186548,0.));
#1358=DIRECTION('center_axis',(0.,0.,1.));
#1359=DIRECTION('ref_axis',(-0.707106781186548,0.707106781186548,0.));
#1360=DIRECTION('center_axis',(0.,0.,-1.));
#1361=DIRECTION('ref_axis',(-0.70710678118655,-0.707106781186545,0.));
#1362=DIRECTION('center_axis',(0.,0.,1.));
#1363=DIRECTION('ref_axis',(-0.70710678118655,-0.707106781186545,0.));
#1364=DIRECTION('center_axis',(0.,0.,1.));
#1365=DIRECTION('ref_axis',(0.707106781186544,0.707106781186551,0.));
#1366=DIRECTION('center_axis',(0.,0.,1.));
#1367=DIRECTION('ref_axis',(0.707106781186544,0.707106781186551,0.));
#1368=DIRECTION('',(0.,0.,1.));
#1369=DIRECTION('center_axis',(0.,0.,1.));
#1370=DIRECTION('ref_axis',(0.707106781186548,-0.707106781186548,0.));
#1371=DIRECTION('',(0.,0.,-1.));
#1372=DIRECTION('center_axis',(0.,0.,1.));
#1373=DIRECTION('ref_axis',(0.707106781186548,-0.707106781186548,0.));
#1374=DIRECTION('center_axis',(0.,-1.,0.));
#1375=DIRECTION('ref_axis',(1.,0.,0.));
#1376=DIRECTION('',(0.,0.,1.));
#1377=DIRECTION('',(-1.,0.,0.));
#1378=DIRECTION('center_axis',(0.,0.,1.));
#1379=DIRECTION('ref_axis',(-0.707106781186548,0.707106781186548,0.));
#1380=DIRECTION('',(0.,0.,-1.));
#1381=DIRECTION('center_axis',(0.,0.,1.));
#1382=DIRECTION('ref_axis',(-0.707106781186548,0.707106781186548,0.));
#1383=DIRECTION('center_axis',(0.,0.,1.));
#1384=DIRECTION('ref_axis',(-0.707106781186551,-0.707106781186544,0.));
#1385=DIRECTION('center_axis',(0.,0.,1.));
#1386=DIRECTION('ref_axis',(-0.707106781186551,-0.707106781186544,0.));
#1387=DIRECTION('center_axis',(-1.,0.,0.));
#1388=DIRECTION('ref_axis',(0.,1.,0.));
#1389=DIRECTION('',(0.,1.,0.));
#1390=DIRECTION('',(0.,1.,0.));
#1391=DIRECTION('',(0.,0.,-1.));
#1392=DIRECTION('center_axis',(1.,0.,0.));
#1393=DIRECTION('ref_axis',(0.,-1.,0.));
#1394=DIRECTION('',(0.,-1.,0.));
#1395=DIRECTION('',(0.,0.,1.));
#1396=DIRECTION('',(0.,-1.,0.));
#1397=DIRECTION('center_axis',(0.,0.,1.));
#1398=DIRECTION('ref_axis',(-1.,0.,0.));
#1399=DIRECTION('',(-1.,0.,0.));
#1400=DIRECTION('center_axis',(0.,0.,-1.));
#1401=DIRECTION('ref_axis',(-1.,0.,0.));
#1402=DIRECTION('',(1.,0.,0.));
#1403=DIRECTION('center_axis',(0.,1.,0.));
#1404=DIRECTION('ref_axis',(-1.,0.,0.));
#1405=DIRECTION('',(1.,0.,0.));
#1406=DIRECTION('',(0.,0.,1.));
#1407=DIRECTION('center_axis',(1.,0.,0.));
#1408=DIRECTION('ref_axis',(0.,1.,0.));
#1409=DIRECTION('',(0.,-1.,0.));
#1410=DIRECTION('center_axis',(0.,1.,0.));
#1411=DIRECTION('ref_axis',(-1.,0.,0.));
#1412=DIRECTION('',(1.,0.,0.));
#1413=DIRECTION('center_axis',(0.,0.,1.));
#1414=DIRECTION('ref_axis',(1.,0.,0.));
#1415=DIRECTION('center_axis',(0.,0.,1.));
#1416=DIRECTION('ref_axis',(1.,0.,0.));
#1417=DIRECTION('center_axis',(0.,1.,0.));
#1418=DIRECTION('ref_axis',(0.,0.,1.));
#1419=DIRECTION('',(0.,0.,-1.));
#1420=DIRECTION('',(1.,0.,0.));
#1421=DIRECTION('',(0.707106781186549,0.,0.707106781186546));
#1422=DIRECTION('',(0.,0.,1.));
#1423=DIRECTION('',(-1.,0.,0.));
#1424=DIRECTION('center_axis',(1.,0.,0.));
#1425=DIRECTION('ref_axis',(0.,1.,0.));
#1426=DIRECTION('',(0.,1.,0.));
#1427=DIRECTION('',(0.,0.,1.));
#1428=DIRECTION('',(0.,1.,0.));
#1429=DIRECTION('center_axis',(0.,0.,-1.));
#1430=DIRECTION('ref_axis',(-1.,0.,0.));
#1431=DIRECTION('',(0.,1.,0.));
#1432=DIRECTION('',(1.,0.,0.));
#1433=DIRECTION('center_axis',(0.,0.,1.));
#1434=DIRECTION('ref_axis',(1.,0.,0.));
#1435=DIRECTION('center_axis',(0.,0.,1.));
#1436=DIRECTION('ref_axis',(1.,0.,0.));
#1437=DIRECTION('center_axis',(0.,-1.,0.));
#1438=DIRECTION('ref_axis',(0.,0.,-1.));
#1439=DIRECTION('',(0.,0.,-1.));
#1440=DIRECTION('',(-0.707106781186549,0.,-0.707106781186546));
#1441=DIRECTION('',(-1.,0.,0.));
#1442=DIRECTION('center_axis',(-0.707106781186546,0.,0.707106781186549));
#1443=DIRECTION('ref_axis',(0.707106781186549,0.,0.707106781186546));
#1444=DIRECTION('',(0.,1.,0.));
#1445=DIRECTION('',(0.,-1.,0.));
#1446=DIRECTION('center_axis',(-1.,0.,0.));
#1447=DIRECTION('ref_axis',(0.,-1.,0.));
#1448=DIRECTION('center_axis',(0.,0.,1.));
#1449=DIRECTION('ref_axis',(1.,0.,0.));
#1450=DIRECTION('center_axis',(0.,0.,-1.));
#1451=DIRECTION('ref_axis',(1.,0.,0.));
#1452=DIRECTION('center_axis',(0.,0.,1.));
#1453=DIRECTION('ref_axis',(1.,0.,0.));
#1454=DIRECTION('center_axis',(0.,0.,1.));
#1455=DIRECTION('ref_axis',(1.,0.,0.));
#1456=DIRECTION('',(0.,0.,1.));
#1457=DIRECTION('center_axis',(0.,0.,-1.));
#1458=DIRECTION('ref_axis',(1.,0.,0.));
#1459=DIRECTION('center_axis',(0.,0.,1.));
#1460=DIRECTION('ref_axis',(1.,0.,0.));
#1461=DIRECTION('center_axis',(0.,0.,1.));
#1462=DIRECTION('ref_axis',(1.,0.,0.));
#1463=DIRECTION('',(0.,0.,1.));
#1464=DIRECTION('center_axis',(0.,1.,0.));
#1465=DIRECTION('ref_axis',(0.,0.,1.));
#1466=DIRECTION('',(0.,0.,-1.));
#1467=DIRECTION('',(0.707106781186544,0.,-0.707106781186551));
#1468=DIRECTION('',(1.,0.,0.));
#1469=DIRECTION('',(0.,0.,1.));
#1470=DIRECTION('',(-1.,0.,0.));
#1471=DIRECTION('center_axis',(0.,0.,1.));
#1472=DIRECTION('ref_axis',(1.,0.,0.));
#1473=DIRECTION('',(0.,-1.,0.));
#1474=DIRECTION('',(-1.,0.,0.));
#1475=DIRECTION('',(0.,-1.,0.));
#1476=DIRECTION('center_axis',(0.707106781186551,0.,0.707106781186544));
#1477=DIRECTION('ref_axis',(0.707106781186544,0.,-0.707106781186551));
#1478=DIRECTION('',(0.,1.,0.));
#1479=DIRECTION('',(-0.707106781186544,0.,0.707106781186551));
#1480=DIRECTION('center_axis',(1.,0.,0.));
#1481=DIRECTION('ref_axis',(0.,1.,0.));
#1482=DIRECTION('',(0.,-1.,0.));
#1483=DIRECTION('',(0.,0.,1.));
#1484=DIRECTION('center_axis',(0.,-1.,0.));
#1485=DIRECTION('ref_axis',(0.,0.,-1.));
#1486=DIRECTION('',(1.,0.,0.));
#1487=DIRECTION('',(0.,0.,-1.));
#1488=DIRECTION('center_axis',(0.,0.,-1.));
#1489=DIRECTION('ref_axis',(-1.,0.,0.));
#1490=DIRECTION('',(0.,-1.,0.));
#1491=DIRECTION('center_axis',(0.,0.,1.));
#1492=DIRECTION('ref_axis',(1.,0.,0.));
#1493=DIRECTION('center_axis',(0.,0.,1.));
#1494=DIRECTION('ref_axis',(1.,0.,0.));
#1495=DIRECTION('center_axis',(-1.,0.,0.));
#1496=DIRECTION('ref_axis',(0.,-1.,0.));
#1497=DIRECTION('center_axis',(0.,0.,-1.));
#1498=DIRECTION('ref_axis',(1.,0.,0.));
#1499=DIRECTION('center_axis',(0.,0.,1.));
#1500=DIRECTION('ref_axis',(1.,0.,0.));
#1501=DIRECTION('center_axis',(0.,0.,1.));
#1502=DIRECTION('ref_axis',(1.,0.,0.));
#1503=DIRECTION('',(0.,0.,1.));
#1504=DIRECTION('center_axis',(0.,0.,-1.));
#1505=DIRECTION('ref_axis',(1.,0.,0.));
#1506=DIRECTION('center_axis',(0.,0.,1.));
#1507=DIRECTION('ref_axis',(1.,0.,0.));
#1508=DIRECTION('center_axis',(0.,0.,1.));
#1509=DIRECTION('ref_axis',(1.,0.,0.));
#1510=DIRECTION('',(0.,0.,1.));
#1511=CARTESIAN_POINT('',(0.,0.,0.));
#1512=CARTESIAN_POINT('Origin',(14.1199746652274,-5.69227205583428,0.531496062992126));
#1513=CARTESIAN_POINT('',(14.1790297833376,-6.79463426055869,0.47244094488189));
#1514=CARTESIAN_POINT('',(14.0609195471171,-6.79463426055869,0.590551181102362));
#1515=CARTESIAN_POINT('',(14.0741872636526,-6.79463426055869,0.577283464566928));
#1516=CARTESIAN_POINT('',(14.0609195471171,-6.99148465425947,0.590551181102362));
#1517=CARTESIAN_POINT('',(14.0609195471171,-5.69227205583428,0.590551181102362));
#1518=CARTESIAN_POINT('',(14.1790297833376,-6.99148465425947,0.47244094488189));
#1519=CARTESIAN_POINT('',(14.0609195471171,-6.99148465425947,0.590551181102362));
#1520=CARTESIAN_POINT('',(14.1790297833376,-5.69227205583428,0.47244094488189));
#1521=CARTESIAN_POINT('Origin',(14.1199746652274,-5.69227205583428,0.531496062992126));
#1522=CARTESIAN_POINT('',(14.0609195471171,-1.75526418181853,0.590551181102362));
#1523=CARTESIAN_POINT('',(14.1790297833376,-1.75526418181853,0.47244094488189));
#1524=CARTESIAN_POINT('',(14.1529274211329,-1.75526418181853,0.498543307086615));
#1525=CARTESIAN_POINT('',(14.1790297833376,-1.55841378811774,0.47244094488189));
#1526=CARTESIAN_POINT('',(14.1790297833376,-5.69227205583428,0.47244094488189));
#1527=CARTESIAN_POINT('',(14.0609195471171,-1.55841378811774,0.590551181102362));
#1528=CARTESIAN_POINT('',(14.1790297833376,-1.55841378811774,0.47244094488189));
#1529=CARTESIAN_POINT('',(14.0609195471171,-5.69227205583428,0.590551181102362));
#1530=CARTESIAN_POINT('Origin',(14.1790297833376,-7.10959489047995,0.));
#1531=CARTESIAN_POINT('',(14.1790297833376,-1.75526418181853,0.388740157480315));
#1532=CARTESIAN_POINT('',(14.1790297833376,-1.75526418181853,0.229370078740157));
#1533=CARTESIAN_POINT('',(14.1790297833376,-6.79463426055869,0.388740157480315));
#1534=CARTESIAN_POINT('',(14.1790297833376,-4.43242953614924,0.388740157480315));
#1535=CARTESIAN_POINT('',(14.1790297833376,-6.79463426055869,0.229370078740157));
#1536=CARTESIAN_POINT('',(14.1790297833376,-6.99148465425947,0.));
#1537=CARTESIAN_POINT('',(14.1790297833376,-6.99148465425947,0.));
#1538=CARTESIAN_POINT('',(14.1790297833376,-1.55841378811774,0.));
#1539=CARTESIAN_POINT('',(14.1790297833376,-1.44030355189727,0.));
#1540=CARTESIAN_POINT('',(14.1790297833376,-1.55841378811774,0.));
#1541=CARTESIAN_POINT('Origin',(7.66328175184156,-4.27494922118861,0.590551181102362));
#1542=CARTESIAN_POINT('',(1.26564395656597,-6.79463426055869,0.590551181102362));
#1543=CARTESIAN_POINT('',(10.763675452629,-6.79463426055869,0.590551181102362));
#1544=CARTESIAN_POINT('',(1.26564395656597,-6.99148465425947,0.590551181102362));
#1545=CARTESIAN_POINT('',(1.26564395656597,-2.85762638654294,0.590551181102362));
#1546=CARTESIAN_POINT('',(4.40540773609353,-6.99148465425947,0.590551181102362));
#1547=CARTESIAN_POINT('Origin',(1.1475337203455,-1.44030355189727,0.));
#1548=CARTESIAN_POINT('',(1.1475337203455,-1.75526418181853,0.388740157480315));
#1549=CARTESIAN_POINT('',(1.1475337203455,-1.75526418181853,0.47244094488189));
#1550=CARTESIAN_POINT('',(1.1475337203455,-1.75526418181853,0.229370078740157));
#1551=CARTESIAN_POINT('',(1.1475337203455,-1.55841378811774,0.47244094488189));
#1552=CARTESIAN_POINT('',(1.1475337203455,-2.85762638654294,0.47244094488189));
#1553=CARTESIAN_POINT('',(1.1475337203455,-1.55841378811774,0.));
#1554=CARTESIAN_POINT('',(1.1475337203455,-1.55841378811774,0.));
#1555=CARTESIAN_POINT('',(1.1475337203455,-6.99148465425947,0.));
#1556=CARTESIAN_POINT('',(1.1475337203455,-7.10959489047995,0.));
#1557=CARTESIAN_POINT('',(1.1475337203455,-6.99148465425947,0.47244094488189));
#1558=CARTESIAN_POINT('',(1.1475337203455,-6.99148465425947,0.));
#1559=CARTESIAN_POINT('',(1.1475337203455,-6.79463426055869,0.47244094488189));
#1560=CARTESIAN_POINT('',(1.1475337203455,-2.85762638654294,0.47244094488189));
#1561=CARTESIAN_POINT('',(1.1475337203455,-6.79463426055869,0.388740157480315));
#1562=CARTESIAN_POINT('',(1.1475337203455,-6.79463426055869,0.229370078740157));
#1563=CARTESIAN_POINT('',(1.1475337203455,-1.5977838668579,0.388740157480315));
#1564=CARTESIAN_POINT('Origin',(7.66328175184156,-4.27494922118861,0.590551181102362));
#1565=CARTESIAN_POINT('',(1.26564395656597,-1.75526418181853,0.590551181102362));
#1566=CARTESIAN_POINT('',(4.56288805105416,-1.75526418181853,0.590551181102362));
#1567=CARTESIAN_POINT('',(1.26564395656597,-1.55841378811774,0.590551181102362));
#1568=CARTESIAN_POINT('',(10.9211557675896,-1.55841378811774,0.590551181102362));
#1569=CARTESIAN_POINT('',(1.26564395656597,-2.85762638654294,0.590551181102362));
#1570=CARTESIAN_POINT('Origin',(1.20658883845573,-2.85762638654294,0.531496062992126));
#1571=CARTESIAN_POINT('',(1.17363608255022,-6.79463426055869,0.498543307086614));
#1572=CARTESIAN_POINT('',(1.1475337203455,-6.99148465425947,0.47244094488189));
#1573=CARTESIAN_POINT('Origin',(13.9809418026442,-5.27494922118861,0.));
#1574=CARTESIAN_POINT('',(13.8869987361083,-5.27494922118861,0.));
#1575=CARTESIAN_POINT('Origin',(13.9809418026442,-5.27494922118861,0.));
#1576=CARTESIAN_POINT('',(13.8869987361083,-5.27494922118861,0.1));
#1577=CARTESIAN_POINT('',(13.8869987361083,-5.27494922118861,0.));
#1578=CARTESIAN_POINT('Origin',(13.9809418026442,-5.27494922118861,0.1));
#1579=CARTESIAN_POINT('Origin',(13.9809418026442,-5.27494922118861,0.1));
#1580=CARTESIAN_POINT('',(13.9209418026442,-5.27494922118861,0.1));
#1581=CARTESIAN_POINT('Origin',(13.9809418026442,-5.27494922118861,0.1));
#1582=CARTESIAN_POINT('Origin',(13.9809418026442,-3.27494922118861,0.));
#1583=CARTESIAN_POINT('',(13.8869987361083,-3.27494922118861,0.));
#1584=CARTESIAN_POINT('Origin',(13.9809418026442,-3.27494922118861,0.));
#1585=CARTESIAN_POINT('',(13.8869987361083,-3.27494922118861,0.1));
#1586=CARTESIAN_POINT('',(13.8869987361083,-3.27494922118861,0.));
#1587=CARTESIAN_POINT('Origin',(13.9809418026442,-3.27494922118861,0.1));
#1588=CARTESIAN_POINT('Origin',(13.9809418026442,-3.27494922118861,0.1));
#1589=CARTESIAN_POINT('',(13.9209418026442,-3.27494922118861,0.1));
#1590=CARTESIAN_POINT('Origin',(13.9809418026442,-3.27494922118861,0.1));
#1591=CARTESIAN_POINT('Origin',(13.9809418026442,-5.27494922118861,0.));
#1592=CARTESIAN_POINT('',(13.9209418026442,-5.27494922118861,0.388740157480315));
#1593=CARTESIAN_POINT('',(13.9209418026442,-5.27494922118861,0.));
#1594=CARTESIAN_POINT('Origin',(13.9809418026442,-5.27494922118861,0.388740157480315));
#1595=CARTESIAN_POINT('Origin',(13.9809418026442,-3.27494922118861,0.));
#1596=CARTESIAN_POINT('',(13.9209418026442,-3.27494922118861,0.388740157480315));
#1597=CARTESIAN_POINT('',(13.9209418026442,-3.27494922118861,0.));
#1598=CARTESIAN_POINT('Origin',(13.9809418026442,-3.27494922118861,0.388740157480315));
#1599=CARTESIAN_POINT('Origin',(1.38392964429413,-5.27494922118861,0.));
#1600=CARTESIAN_POINT('',(1.26908123237908,-5.27494922118861,0.));
#1601=CARTESIAN_POINT('Origin',(1.38392964429413,-5.27494922118861,0.));
#1602=CARTESIAN_POINT('',(1.26908123237908,-5.27494922118861,0.05));
#1603=CARTESIAN_POINT('',(1.26908123237908,-5.27494922118861,0.));
#1604=CARTESIAN_POINT('Origin',(1.38392964429413,-5.27494922118861,0.05));
#1605=CARTESIAN_POINT('Origin',(1.38392964429413,-5.27494922118861,0.05));
#1606=CARTESIAN_POINT('',(1.32392964429413,-5.27494922118861,0.05));
#1607=CARTESIAN_POINT('Origin',(1.38392964429413,-5.27494922118861,0.05));
#1608=CARTESIAN_POINT('Origin',(1.38392964429413,-3.27494922118861,0.));
#1609=CARTESIAN_POINT('',(1.26908123237908,-3.27494922118861,0.));
#1610=CARTESIAN_POINT('Origin',(1.38392964429413,-3.27494922118861,0.));
#1611=CARTESIAN_POINT('',(1.26908123237908,-3.27494922118861,0.05));
#1612=CARTESIAN_POINT('',(1.26908123237908,-3.27494922118861,0.));
#1613=CARTESIAN_POINT('Origin',(1.38392964429413,-3.27494922118861,0.05));
#1614=CARTESIAN_POINT('Origin',(1.38392964429413,-3.27494922118861,0.05));
#1615=CARTESIAN_POINT('',(1.32392964429413,-3.27494922118861,0.05));
#1616=CARTESIAN_POINT('Origin',(1.38392964429413,-3.27494922118861,0.05));
#1617=CARTESIAN_POINT('Origin',(1.38392964429413,-5.27494922118861,0.));
#1618=CARTESIAN_POINT('',(1.32392964429413,-5.27494922118861,0.388740157480315));
#1619=CARTESIAN_POINT('',(1.32392964429413,-5.27494922118861,0.));
#1620=CARTESIAN_POINT('Origin',(1.38392964429413,-5.27494922118861,0.388740157480315));
#1621=CARTESIAN_POINT('Origin',(1.38392964429413,-3.27494922118861,0.));
#1622=CARTESIAN_POINT('',(1.32392964429413,-3.27494922118861,0.388740157480315));
#1623=CARTESIAN_POINT('',(1.32392964429413,-3.27494922118861,0.));
#1624=CARTESIAN_POINT('Origin',(1.38392964429413,-3.27494922118861,0.388740157480315));
#1625=CARTESIAN_POINT('Origin',(1.46249435026676,-1.75526418181853,0.388740157480315));
#1626=CARTESIAN_POINT('',(1.46249435026676,-6.79463426055869,0.388740157480315));
#1627=CARTESIAN_POINT('',(1.46249435026676,-6.79463426055869,0.388740157480315));
#1628=CARTESIAN_POINT('',(1.46249435026676,-1.75526418181853,0.388740157480315));
#1629=CARTESIAN_POINT('',(1.46249435026676,-4.27494922118861,0.388740157480315));
#1630=CARTESIAN_POINT('',(1.46249435026676,-1.75526418181853,0.388740157480315));
#1631=CARTESIAN_POINT('Origin',(1.46249435026676,-1.75526418181853,0.388740157480315));
#1632=CARTESIAN_POINT('',(13.8640691534164,-1.75526418181853,0.388740157480315));
#1633=CARTESIAN_POINT('',(1.46249435026676,-1.75526418181853,0.388740157480315));
#1634=CARTESIAN_POINT('',(13.8640691534164,-6.79463426055869,0.388740157480315));
#1635=CARTESIAN_POINT('',(13.8640691534164,-1.75526418181853,0.388740157480315));
#1636=CARTESIAN_POINT('',(1.46249435026676,-6.79463426055869,0.388740157480315));
#1637=CARTESIAN_POINT('Origin',(13.8640691534164,-1.75526418181853,0.));
#1638=CARTESIAN_POINT('',(13.8640691534164,-1.75526418181853,0.078740157480315));
#1639=CARTESIAN_POINT('',(13.8640691534164,-1.75526418181853,0.));
#1640=CARTESIAN_POINT('',(13.8640691534164,-6.79463426055869,0.078740157480315));
#1641=CARTESIAN_POINT('',(13.8640691534164,-1.75526418181853,0.078740157480315));
#1642=CARTESIAN_POINT('',(13.8640691534164,-6.79463426055869,0.));
#1643=CARTESIAN_POINT('Origin',(1.46249435026676,-1.75526418181853,0.));
#1644=CARTESIAN_POINT('',(1.25237624003054,-1.75526418181853,0.577283464566929));
#1645=CARTESIAN_POINT('',(1.46249435026676,-1.75526418181853,0.078740157480315));
#1646=CARTESIAN_POINT('',(1.46249435026676,-1.75526418181853,0.));
#1647=CARTESIAN_POINT('',(1.46249435026676,-1.75526418181853,0.078740157480315));
#1648=CARTESIAN_POINT('',(7.76170694869195,-1.75526418181853,0.393700787401575));
#1649=CARTESIAN_POINT('',(7.76170694869195,-1.75526418181853,0.196850393700787));
#1650=CARTESIAN_POINT('',(7.76170694869195,-1.75526418181853,0.196850393700787));
#1651=CARTESIAN_POINT('',(7.56485655499117,-1.75526418181853,0.196850393700787));
#1652=CARTESIAN_POINT('',(4.56288805105416,-1.75526418181853,0.196850393700787));
#1653=CARTESIAN_POINT('',(7.56485655499117,-1.75526418181853,0.393700787401575));
#1654=CARTESIAN_POINT('',(7.56485655499117,-1.75526418181853,0.196850393700787));
#1655=CARTESIAN_POINT('',(4.56288805105416,-1.75526418181853,0.393700787401575));
#1656=CARTESIAN_POINT('Origin',(1.20658883845573,-2.85762638654294,0.531496062992126));
#1657=CARTESIAN_POINT('',(1.26564395656597,-1.55841378811774,0.590551181102362));
#1658=CARTESIAN_POINT('Origin',(10.9211557675896,-1.49935867000751,0.531496062992126));
#1659=CARTESIAN_POINT('',(1.26564395656597,-1.44030355189727,0.47244094488189));
#1660=CARTESIAN_POINT('',(1.26564395656597,-1.44030355189727,0.47244094488189));
#1661=CARTESIAN_POINT('',(14.0609195471171,-1.44030355189727,0.47244094488189));
#1662=CARTESIAN_POINT('',(14.0609195471171,-1.55841378811774,0.590551181102362));
#1663=CARTESIAN_POINT('',(10.9211557675896,-1.44030355189727,0.47244094488189));
#1664=CARTESIAN_POINT('Origin',(4.40540773609353,-7.05053977236971,0.531496062992126));
#1665=CARTESIAN_POINT('',(14.0609195471171,-7.10959489047995,0.47244094488189));
#1666=CARTESIAN_POINT('',(14.0609195471171,-7.10959489047995,0.47244094488189));
#1667=CARTESIAN_POINT('',(1.26564395656597,-7.10959489047995,0.47244094488189));
#1668=CARTESIAN_POINT('',(1.26564395656597,-6.99148465425947,0.590551181102362));
#1669=CARTESIAN_POINT('',(4.40540773609353,-7.10959489047995,0.47244094488189));
#1670=CARTESIAN_POINT('Origin',(14.0609195471171,-6.99148465425947,0.47244094488189));
#1671=CARTESIAN_POINT('Origin',(14.0609195471171,-6.99148465425947,0.47244094488189));
#1672=CARTESIAN_POINT('Origin',(14.0609195471171,-1.55841378811774,0.47244094488189));
#1673=CARTESIAN_POINT('Origin',(14.0609195471171,-1.55841378811774,0.47244094488189));
#1674=CARTESIAN_POINT('Origin',(1.26564395656597,-1.55841378811774,0.47244094488189));
#1675=CARTESIAN_POINT('Origin',(1.26564395656597,-1.55841378811774,0.47244094488189));
#1676=CARTESIAN_POINT('Origin',(1.26564395656597,-6.99148465425947,0.47244094488189));
#1677=CARTESIAN_POINT('Origin',(1.26564395656597,-6.99148465425947,0.47244094488189));
#1678=CARTESIAN_POINT('Origin',(14.0609195471171,-1.55841378811774,0.));
#1679=CARTESIAN_POINT('',(14.0609195471171,-1.44030355189727,0.));
#1680=CARTESIAN_POINT('Origin',(14.0609195471171,-1.55841378811774,0.));
#1681=CARTESIAN_POINT('',(14.0609195471171,-1.44030355189727,0.));
#1682=CARTESIAN_POINT('Origin',(14.0609195471171,-6.99148465425947,0.));
#1683=CARTESIAN_POINT('',(14.0609195471171,-7.10959489047995,0.));
#1684=CARTESIAN_POINT('',(14.0609195471171,-7.10959489047995,0.));
#1685=CARTESIAN_POINT('Origin',(14.0609195471171,-6.99148465425947,0.));
#1686=CARTESIAN_POINT('Origin',(1.1475337203455,-7.10959489047995,0.));
#1687=CARTESIAN_POINT('',(1.26564395656597,-7.10959489047995,0.));
#1688=CARTESIAN_POINT('',(1.26564395656597,-7.10959489047995,0.));
#1689=CARTESIAN_POINT('',(14.1790297833376,-7.10959489047995,0.));
#1690=CARTESIAN_POINT('Origin',(1.26564395656597,-1.55841378811774,0.));
#1691=CARTESIAN_POINT('',(1.26564395656597,-1.44030355189727,0.));
#1692=CARTESIAN_POINT('',(1.26564395656597,-1.44030355189727,0.));
#1693=CARTESIAN_POINT('Origin',(1.26564395656597,-1.55841378811774,0.));
#1694=CARTESIAN_POINT('Origin',(1.26564395656597,-6.99148465425947,0.));
#1695=CARTESIAN_POINT('Origin',(1.26564395656597,-6.99148465425947,0.));
#1696=CARTESIAN_POINT('Origin',(7.56485655499117,-1.75526418181853,0.393700787401575));
#1697=CARTESIAN_POINT('',(7.56485655499117,-1.44030355189727,0.393700787401575));
#1698=CARTESIAN_POINT('',(7.56485655499117,-1.75526418181853,0.393700787401575));
#1699=CARTESIAN_POINT('',(7.56485655499117,-1.44030355189727,0.196850393700787));
#1700=CARTESIAN_POINT('',(7.56485655499117,-1.75526418181853,0.196850393700787));
#1701=CARTESIAN_POINT('',(7.56485655499117,-1.44030355189727,0.196850393700787));
#1702=CARTESIAN_POINT('Origin',(7.76170694869195,-1.44030355189727,0.393700787401575));
#1703=CARTESIAN_POINT('',(7.76170694869195,-1.44030355189727,0.393700787401575));
#1704=CARTESIAN_POINT('',(7.76170694869195,-1.44030355189727,0.393700787401575));
#1705=CARTESIAN_POINT('',(7.76170694869195,-1.44030355189727,0.196850393700787));
#1706=CARTESIAN_POINT('',(7.76170694869195,-1.44030355189727,0.196850393700787));
#1707=CARTESIAN_POINT('',(7.76170694869195,-1.44030355189727,0.196850393700787));
#1708=CARTESIAN_POINT('Origin',(7.66328175184156,-1.5977838668579,0.393700787401575));
#1709=CARTESIAN_POINT('',(10.9211557675896,-1.44030355189727,0.393700787401575));
#1710=CARTESIAN_POINT('Origin',(7.66328175184156,-1.5977838668579,0.196850393700787));
#1711=CARTESIAN_POINT('',(10.9211557675896,-1.44030355189727,0.196850393700787));
#1712=CARTESIAN_POINT('Origin',(13.8640691534164,-6.79463426055869,0.));
#1713=CARTESIAN_POINT('',(1.46249435026676,-6.79463426055869,0.078740157480315));
#1714=CARTESIAN_POINT('',(13.8640691534164,-6.79463426055869,0.078740157480315));
#1715=CARTESIAN_POINT('',(1.46249435026676,-6.79463426055869,0.));
#1716=CARTESIAN_POINT('Origin',(1.46249435026676,-6.79463426055869,0.));
#1717=CARTESIAN_POINT('',(1.46249435026676,-6.79463426055869,0.078740157480315));
#1718=CARTESIAN_POINT('Origin',(14.1790297833376,-1.44030355189727,0.));
#1719=CARTESIAN_POINT('',(1.1475337203455,-1.44030355189727,0.));
#1720=CARTESIAN_POINT('Origin',(7.66328175184156,-4.27494922118861,0.078740157480315));
#1721=CARTESIAN_POINT('Origin',(7.66328175184156,-4.27494922118861,0.));
#1722=CARTESIAN_POINT('Origin',(13.8640691534164,-6.78963426055869,0.));
#1723=CARTESIAN_POINT('',(1.46249435026676,-6.78963426055869,0.590551181102362));
#1724=CARTESIAN_POINT('',(1.46249435026676,-6.78963426055869,0.458740157480315));
#1725=CARTESIAN_POINT('',(1.46249435026676,-6.78963426055869,0.));
#1726=CARTESIAN_POINT('',(1.26564395656597,-6.78963426055869,0.590551181102362));
#1727=CARTESIAN_POINT('',(10.763675452629,-6.78963426055869,0.590551181102362));
#1728=CARTESIAN_POINT('',(1.1475337203455,-6.78963426055869,0.47244094488189));
#1729=CARTESIAN_POINT('',(4.23808490144788,-6.78963426055869,3.56299212598425));
#1730=CARTESIAN_POINT('',(1.1475337203455,-6.78963426055869,0.458740157480315));
#1731=CARTESIAN_POINT('',(1.1475337203455,-6.78963426055869,0.));
#1732=CARTESIAN_POINT('',(10.763675452629,-6.78963426055869,0.458740157480315));
#1733=CARTESIAN_POINT('Origin',(1.46249435026676,-6.79463426055869,0.));
#1734=CARTESIAN_POINT('',(1.46249435026676,-1.76026418181853,0.458740157480315));
#1735=CARTESIAN_POINT('',(1.46249435026676,-6.79463426055869,0.458740157480315));
#1736=CARTESIAN_POINT('',(1.46249435026676,-1.76026418181853,0.590551181102362));
#1737=CARTESIAN_POINT('',(1.46249435026676,-1.76026418181853,0.));
#1738=CARTESIAN_POINT('',(1.46249435026676,-6.79463426055869,0.590551181102362));
#1739=CARTESIAN_POINT('Origin',(7.66328175184156,-4.27494922118861,0.458740157480315));
#1740=CARTESIAN_POINT('',(1.1475337203455,-1.76026418181853,0.458740157480315));
#1741=CARTESIAN_POINT('',(1.1475337203455,-2.85762638654294,0.458740157480315));
#1742=CARTESIAN_POINT('',(4.56288805105416,-1.76026418181853,0.458740157480315));
#1743=CARTESIAN_POINT('',(1.32392964429413,-3.27494922118861,0.458740157480315));
#1744=CARTESIAN_POINT('Origin',(1.38392964429413,-3.27494922118861,0.458740157480315));
#1745=CARTESIAN_POINT('',(1.32392964429413,-5.27494922118861,0.458740157480315));
#1746=CARTESIAN_POINT('Origin',(1.38392964429413,-5.27494922118861,0.458740157480315));
#1747=CARTESIAN_POINT('Origin',(1.46249435026676,-1.76026418181853,0.));
#1748=CARTESIAN_POINT('',(1.1475337203455,-1.76026418181853,0.47244094488189));
#1749=CARTESIAN_POINT('',(1.1475337203455,-1.76026418181853,0.));
#1750=CARTESIAN_POINT('',(1.26564395656597,-1.76026418181853,0.590551181102362));
#1751=CARTESIAN_POINT('',(1.13769120066046,-1.76026418181853,0.462598425196851));
#1752=CARTESIAN_POINT('',(4.56288805105416,-1.76026418181853,0.590551181102362));
#1753=CARTESIAN_POINT('Origin',(1.20658883845573,-2.85762638654294,0.531496062992126));
#1754=CARTESIAN_POINT('',(1.26564395656597,-2.85762638654294,0.590551181102362));
#1755=CARTESIAN_POINT('',(1.1475337203455,-2.85762638654294,0.47244094488189));
#1756=CARTESIAN_POINT('Origin',(1.1475337203455,-1.44030355189727,0.));
#1757=CARTESIAN_POINT('Origin',(7.66328175184156,-4.27494922118861,0.590551181102362));
#1758=CARTESIAN_POINT('Origin',(1.38392964429413,-3.27494922118861,0.559));
#1759=CARTESIAN_POINT('',(1.32392964429413,-3.27494922118861,0.559));
#1760=CARTESIAN_POINT('Origin',(1.38392964429413,-3.27494922118861,0.559));
#1761=CARTESIAN_POINT('Origin',(1.38392964429413,-3.27494922118861,0.));
#1762=CARTESIAN_POINT('',(1.32392964429413,-3.27494922118861,0.));
#1763=CARTESIAN_POINT('Origin',(1.38392964429413,-5.27494922118861,0.559));
#1764=CARTESIAN_POINT('',(1.32392964429413,-5.27494922118861,0.559));
#1765=CARTESIAN_POINT('Origin',(1.38392964429413,-5.27494922118861,0.559));
#1766=CARTESIAN_POINT('Origin',(1.38392964429413,-5.27494922118861,0.));
#1767=CARTESIAN_POINT('',(1.32392964429413,-5.27494922118861,0.));
#1768=CARTESIAN_POINT('Origin',(13.8640691534164,-6.78963426055869,0.));
#1769=CARTESIAN_POINT('',(14.1790297833376,-6.78963426055869,0.47244094488189));
#1770=CARTESIAN_POINT('',(14.1790297833376,-6.78963426055869,0.458740157480315));
#1771=CARTESIAN_POINT('',(14.1790297833376,-6.78963426055868,0.));
#1772=CARTESIAN_POINT('',(14.0609195471171,-6.78963426055869,0.590551181102362));
#1773=CARTESIAN_POINT('',(14.1888723030227,-6.78963426055869,0.462598425196848));
#1774=CARTESIAN_POINT('',(13.8640691534164,-6.78963426055869,0.590551181102362));
#1775=CARTESIAN_POINT('',(10.763675452629,-6.78963426055869,0.590551181102362));
#1776=CARTESIAN_POINT('',(13.8640691534164,-6.78963426055869,0.458740157480315));
#1777=CARTESIAN_POINT('',(13.8640691534164,-6.78963426055869,0.));
#1778=CARTESIAN_POINT('',(10.763675452629,-6.78963426055869,0.458740157480315));
#1779=CARTESIAN_POINT('Origin',(7.66328175184156,-4.27494922118861,0.590551181102362));
#1780=CARTESIAN_POINT('',(14.0609195471171,-1.76026418181853,0.590551181102362));
#1781=CARTESIAN_POINT('',(14.0609195471171,-5.69227205583428,0.590551181102362));
#1782=CARTESIAN_POINT('',(13.8640691534164,-1.76026418181853,0.590551181102362));
#1783=CARTESIAN_POINT('',(4.56288805105416,-1.76026418181853,0.590551181102362));
#1784=CARTESIAN_POINT('',(13.8640691534164,-1.75526418181853,0.590551181102362));
#1785=CARTESIAN_POINT('Origin',(14.1199746652274,-5.69227205583428,0.531496062992126));
#1786=CARTESIAN_POINT('',(14.1790297833376,-1.76026418181853,0.47244094488189));
#1787=CARTESIAN_POINT('',(14.1790297833376,-5.69227205583428,0.47244094488189));
#1788=CARTESIAN_POINT('',(11.0884786022353,-1.76026418181853,3.56299212598425));
#1789=CARTESIAN_POINT('Origin',(14.1790297833376,-7.10959489047995,0.));
#1790=CARTESIAN_POINT('',(14.1790297833376,-1.76026418181853,0.458740157480315));
#1791=CARTESIAN_POINT('',(14.1790297833376,-5.69227205583428,0.458740157480315));
#1792=CARTESIAN_POINT('',(14.1790297833376,-1.76026418181853,0.));
#1793=CARTESIAN_POINT('Origin',(1.46249435026676,-1.76026418181853,0.));
#1794=CARTESIAN_POINT('',(13.8640691534164,-1.76026418181853,0.458740157480315));
#1795=CARTESIAN_POINT('',(4.56288805105416,-1.76026418181853,0.458740157480315));
#1796=CARTESIAN_POINT('',(13.8640691534164,-1.76026418181853,0.));
#1797=CARTESIAN_POINT('Origin',(7.66328175184156,-4.27494922118861,0.458740157480315));
#1798=CARTESIAN_POINT('',(13.8640691534164,-4.27494922118861,0.458740157480315));
#1799=CARTESIAN_POINT('',(13.9209418026442,-5.27494922118861,0.458740157480315));
#1800=CARTESIAN_POINT('Origin',(13.9809418026442,-5.27494922118861,0.458740157480315));
#1801=CARTESIAN_POINT('',(13.9209418026442,-3.27494922118861,0.458740157480315));
#1802=CARTESIAN_POINT('Origin',(13.9809418026442,-3.27494922118861,0.458740157480315));
#1803=CARTESIAN_POINT('Origin',(13.8640691534164,-1.75526418181853,0.));
#1804=CARTESIAN_POINT('Origin',(13.9809418026442,-3.27494922118861,0.559));
#1805=CARTESIAN_POINT('',(13.9209418026442,-3.27494922118861,0.559));
#1806=CARTESIAN_POINT('Origin',(13.9809418026442,-3.27494922118861,0.559));
#1807=CARTESIAN_POINT('Origin',(13.9809418026442,-3.27494922118861,0.));
#1808=CARTESIAN_POINT('',(13.9209418026442,-3.27494922118861,0.));
#1809=CARTESIAN_POINT('Origin',(13.9809418026442,-5.27494922118861,0.559));
#1810=CARTESIAN_POINT('',(13.9209418026442,-5.27494922118861,0.559));
#1811=CARTESIAN_POINT('Origin',(13.9809418026442,-5.27494922118861,0.559));
#1812=CARTESIAN_POINT('Origin',(13.9809418026442,-5.27494922118861,0.));
#1813=CARTESIAN_POINT('',(13.9209418026442,-5.27494922118861,0.));
#1814=UNCERTAINTY_MEASURE_WITH_UNIT(LENGTH_MEASURE(0.000393700787401575),
#1819,'DISTANCE_ACCURACY_VALUE',
'Maximum model space distance between geometric entities at asserted c
onnectivities');
#1815=UNCERTAINTY_MEASURE_WITH_UNIT(LENGTH_MEASURE(0.000393700787401575),
#1819,'DISTANCE_ACCURACY_VALUE',
'Maximum model space distance between geometric entities at asserted c
onnectivities');
#1816=(
GEOMETRIC_REPRESENTATION_CONTEXT(3)
GLOBAL_UNCERTAINTY_ASSIGNED_CONTEXT((#1814))
GLOBAL_UNIT_ASSIGNED_CONTEXT((#1819,#1822,#1823))
REPRESENTATION_CONTEXT('','3D')
);
#1817=(
GEOMETRIC_REPRESENTATION_CONTEXT(3)
GLOBAL_UNCERTAINTY_ASSIGNED_CONTEXT((#1815))
GLOBAL_UNIT_ASSIGNED_CONTEXT((#1819,#1822,#1823))
REPRESENTATION_CONTEXT('','3D')
);
#1818=DIMENSIONAL_EXPONENTS(1.,0.,0.,0.,0.,0.,0.);
#1819=(
CONVERSION_BASED_UNIT('inch',#1821)
LENGTH_UNIT()
NAMED_UNIT(#1818)
);
#1820=(
LENGTH_UNIT()
NAMED_UNIT(*)
SI_UNIT(.MILLI.,.METRE.)
);
#1821=LENGTH_MEASURE_WITH_UNIT(LENGTH_MEASURE(25.4),#1820);
#1822=(
NAMED_UNIT(*)
PLANE_ANGLE_UNIT()
SI_UNIT($,.RADIAN.)
);
#1823=(
NAMED_UNIT(*)
SI_UNIT($,.STERADIAN.)
SOLID_ANGLE_UNIT()
);
#1824=SHAPE_DEFINITION_REPRESENTATION(#1825,#1826);
#1825=PRODUCT_DEFINITION_SHAPE('',$,#1828);
#1826=SHAPE_REPRESENTATION('',(#1102),#1816);
#1827=PRODUCT_DEFINITION_CONTEXT('part definition',#1832,'design');
#1828=PRODUCT_DEFINITION('case','case v22',#1829,#1827);
#1829=PRODUCT_DEFINITION_FORMATION('',$,#1834);
#1830=PRODUCT_RELATED_PRODUCT_CATEGORY('case v22','case v22',(#1834));
#1831=APPLICATION_PROTOCOL_DEFINITION('international standard',
'automotive_design',2009,#1832);
#1832=APPLICATION_CONTEXT(
'Core Data for Automotive Mechanical Design Process');
#1833=PRODUCT_CONTEXT('part definition',#1832,'mechanical');
#1834=PRODUCT('case','case v22',$,(#1833));
#1835=PRESENTATION_STYLE_ASSIGNMENT((#1836));
#1836=SURFACE_STYLE_USAGE(.BOTH.,#1837);
#1837=SURFACE_SIDE_STYLE('',(#1838));
#1838=SURFACE_STYLE_FILL_AREA(#1839);
#1839=FILL_AREA_STYLE('Steel - Satin',(#1840));
#1840=FILL_AREA_STYLE_COLOUR('Steel - Satin',#1841);
#1841=COLOUR_RGB('Steel - Satin',0.627450980392157,0.627450980392157,0.627450980392157);
ENDSEC;
END-ISO-10303-21;
