ISO-10303-21;
HEADER;
/* Generated by software containing ST-Developer
 * from STEP Tools, Inc. (www.steptools.com) 
 */

FILE_DESCRIPTION(
/* description */ (''),
/* implementation_level */ '2;1');

FILE_NAME(
/* name */ 'case v17.step',
/* time_stamp */ '2025-08-10T02:26:59-04:00',
/* author */ (''),
/* organization */ (''),
/* preprocessor_version */ 'ST-DEVELOPER v20.1',
/* originating_system */ 'Autodesk Translation Framework v14.10.0.0',
/* authorisation */ '');

FILE_SCHEMA (('AUTOMOTIVE_DESIGN { 1 0 10303 214 3 1 1 }'));
ENDSEC;

DATA;
#10=MECHANICAL_DESIGN_GEOMETRIC_PRESENTATION_REPRESENTATION('',(#13),#1177);
#11=SHAPE_REPRESENTATION_RELATIONSHIP('SRR','None',#1186,#12);
#12=ADVANCED_BREP_SHAPE_REPRESENTATION('',(#14),#1176);
#13=STYLED_ITEM('',(#1195),#14);
#14=MANIFOLD_SOLID_BREP('Body1',#721);
#15=CONICAL_SURFACE('',#751,0.118110236220473,0.785398163397451);
#16=CONICAL_SURFACE('',#753,0.118110236220472,0.785398163397445);
#17=CONICAL_SURFACE('',#755,0.118110236220472,0.785398163397448);
#18=CONICAL_SURFACE('',#757,0.118110236220473,0.785398163397449);
#19=FACE_BOUND('',#100,.T.);
#20=FACE_BOUND('',#104,.T.);
#21=FACE_BOUND('',#107,.T.);
#22=FACE_BOUND('',#109,.T.);
#23=FACE_BOUND('',#117,.T.);
#24=FACE_BOUND('',#132,.T.);
#25=FACE_BOUND('',#143,.T.);
#26=FACE_BOUND('',#146,.T.);
#27=FACE_BOUND('',#147,.T.);
#28=PLANE('',#726);
#29=PLANE('',#733);
#30=PLANE('',#737);
#31=PLANE('',#738);
#32=PLANE('',#739);
#33=PLANE('',#740);
#34=PLANE('',#741);
#35=PLANE('',#742);
#36=PLANE('',#743);
#37=PLANE('',#744);
#38=PLANE('',#745);
#39=PLANE('',#746);
#40=PLANE('',#747);
#41=PLANE('',#748);
#42=PLANE('',#749);
#43=PLANE('',#750);
#44=PLANE('',#761);
#45=PLANE('',#764);
#46=PLANE('',#765);
#47=PLANE('',#768);
#48=PLANE('',#771);
#49=PLANE('',#772);
#50=PLANE('',#773);
#51=PLANE('',#774);
#52=PLANE('',#775);
#53=PLANE('',#776);
#54=PLANE('',#777);
#55=PLANE('',#778);
#56=PLANE('',#779);
#57=FACE_OUTER_BOUND('',#98,.T.);
#58=FACE_OUTER_BOUND('',#99,.T.);
#59=FACE_OUTER_BOUND('',#101,.T.);
#60=FACE_OUTER_BOUND('',#102,.T.);
#61=FACE_OUTER_BOUND('',#103,.T.);
#62=FACE_OUTER_BOUND('',#105,.T.);
#63=FACE_OUTER_BOUND('',#106,.T.);
#64=FACE_OUTER_BOUND('',#108,.T.);
#65=FACE_OUTER_BOUND('',#110,.T.);
#66=FACE_OUTER_BOUND('',#111,.T.);
#67=FACE_OUTER_BOUND('',#112,.T.);
#68=FACE_OUTER_BOUND('',#113,.T.);
#69=FACE_OUTER_BOUND('',#114,.T.);
#70=FACE_OUTER_BOUND('',#115,.T.);
#71=FACE_OUTER_BOUND('',#116,.T.);
#72=FACE_OUTER_BOUND('',#118,.T.);
#73=FACE_OUTER_BOUND('',#119,.T.);
#74=FACE_OUTER_BOUND('',#120,.T.);
#75=FACE_OUTER_BOUND('',#121,.T.);
#76=FACE_OUTER_BOUND('',#122,.T.);
#77=FACE_OUTER_BOUND('',#123,.T.);
#78=FACE_OUTER_BOUND('',#124,.T.);
#79=FACE_OUTER_BOUND('',#125,.T.);
#80=FACE_OUTER_BOUND('',#126,.T.);
#81=FACE_OUTER_BOUND('',#127,.T.);
#82=FACE_OUTER_BOUND('',#128,.T.);
#83=FACE_OUTER_BOUND('',#129,.T.);
#84=FACE_OUTER_BOUND('',#130,.T.);
#85=FACE_OUTER_BOUND('',#131,.T.);
#86=FACE_OUTER_BOUND('',#133,.T.);
#87=FACE_OUTER_BOUND('',#134,.T.);
#88=FACE_OUTER_BOUND('',#135,.T.);
#89=FACE_OUTER_BOUND('',#136,.T.);
#90=FACE_OUTER_BOUND('',#137,.T.);
#91=FACE_OUTER_BOUND('',#138,.T.);
#92=FACE_OUTER_BOUND('',#139,.T.);
#93=FACE_OUTER_BOUND('',#140,.T.);
#94=FACE_OUTER_BOUND('',#141,.T.);
#95=FACE_OUTER_BOUND('',#142,.T.);
#96=FACE_OUTER_BOUND('',#144,.T.);
#97=FACE_OUTER_BOUND('',#145,.T.);
#98=EDGE_LOOP('',(#480,#481,#482,#483));
#99=EDGE_LOOP('',(#484));
#100=EDGE_LOOP('',(#485));
#101=EDGE_LOOP('',(#486,#487,#488,#489));
#102=EDGE_LOOP('',(#490,#491,#492,#493));
#103=EDGE_LOOP('',(#494));
#104=EDGE_LOOP('',(#495));
#105=EDGE_LOOP('',(#496,#497,#498,#499));
#106=EDGE_LOOP('',(#500,#501,#502,#503));
#107=EDGE_LOOP('',(#504));
#108=EDGE_LOOP('',(#505,#506,#507,#508));
#109=EDGE_LOOP('',(#509));
#110=EDGE_LOOP('',(#510,#511,#512,#513));
#111=EDGE_LOOP('',(#514,#515,#516,#517));
#112=EDGE_LOOP('',(#518,#519,#520,#521));
#113=EDGE_LOOP('',(#522,#523,#524,#525));
#114=EDGE_LOOP('',(#526,#527,#528,#529));
#115=EDGE_LOOP('',(#530,#531,#532,#533));
#116=EDGE_LOOP('',(#534,#535,#536,#537,#538,#539,#540,#541,#542,#543,#544,
#545));
#117=EDGE_LOOP('',(#546,#547,#548,#549));
#118=EDGE_LOOP('',(#550,#551,#552,#553));
#119=EDGE_LOOP('',(#554,#555,#556,#557));
#120=EDGE_LOOP('',(#558,#559,#560,#561));
#121=EDGE_LOOP('',(#562,#563,#564,#565));
#122=EDGE_LOOP('',(#566,#567,#568,#569));
#123=EDGE_LOOP('',(#570,#571,#572));
#124=EDGE_LOOP('',(#573,#574,#575));
#125=EDGE_LOOP('',(#576,#577,#578));
#126=EDGE_LOOP('',(#579,#580,#581));
#127=EDGE_LOOP('',(#582,#583,#584,#585));
#128=EDGE_LOOP('',(#586,#587,#588,#589));
#129=EDGE_LOOP('',(#590,#591,#592,#593));
#130=EDGE_LOOP('',(#594,#595,#596,#597));
#131=EDGE_LOOP('',(#598,#599,#600,#601));
#132=EDGE_LOOP('',(#602,#603,#604,#605));
#133=EDGE_LOOP('',(#606,#607,#608,#609));
#134=EDGE_LOOP('',(#610,#611,#612,#613));
#135=EDGE_LOOP('',(#614,#615,#616,#617));
#136=EDGE_LOOP('',(#618,#619,#620,#621));
#137=EDGE_LOOP('',(#622,#623,#624,#625));
#138=EDGE_LOOP('',(#626,#627,#628,#629));
#139=EDGE_LOOP('',(#630,#631,#632,#633));
#140=EDGE_LOOP('',(#634,#635,#636,#637,#638,#639,#640,#641,#642,#643,#644,
#645));
#141=EDGE_LOOP('',(#646,#647,#648,#649));
#142=EDGE_LOOP('',(#650,#651,#652,#653));
#143=EDGE_LOOP('',(#654,#655,#656,#657));
#144=EDGE_LOOP('',(#658,#659,#660,#661));
#145=EDGE_LOOP('',(#662,#663,#664,#665,#666,#667,#668,#669));
#146=EDGE_LOOP('',(#670));
#147=EDGE_LOOP('',(#671));
#148=LINE('',#981,#228);
#149=LINE('',#988,#229);
#150=LINE('',#994,#230);
#151=LINE('',#1001,#231);
#152=LINE('',#1006,#232);
#153=LINE('',#1008,#233);
#154=LINE('',#1010,#234);
#155=LINE('',#1011,#235);
#156=LINE('',#1015,#236);
#157=LINE('',#1017,#237);
#158=LINE('',#1019,#238);
#159=LINE('',#1020,#239);
#160=LINE('',#1024,#240);
#161=LINE('',#1026,#241);
#162=LINE('',#1028,#242);
#163=LINE('',#1029,#243);
#164=LINE('',#1032,#244);
#165=LINE('',#1034,#245);
#166=LINE('',#1035,#246);
#167=LINE('',#1039,#247);
#168=LINE('',#1040,#248);
#169=LINE('',#1041,#249);
#170=LINE('',#1043,#250);
#171=LINE('',#1044,#251);
#172=LINE('',#1047,#252);
#173=LINE('',#1049,#253);
#174=LINE('',#1050,#254);
#175=LINE('',#1053,#255);
#176=LINE('',#1055,#256);
#177=LINE('',#1056,#257);
#178=LINE('',#1059,#258);
#179=LINE('',#1060,#259);
#180=LINE('',#1062,#260);
#181=LINE('',#1063,#261);
#182=LINE('',#1066,#262);
#183=LINE('',#1068,#263);
#184=LINE('',#1070,#264);
#185=LINE('',#1071,#265);
#186=LINE('',#1074,#266);
#187=LINE('',#1075,#267);
#188=LINE('',#1079,#268);
#189=LINE('',#1081,#269);
#190=LINE('',#1083,#270);
#191=LINE('',#1084,#271);
#192=LINE('',#1087,#272);
#193=LINE('',#1089,#273);
#194=LINE('',#1091,#274);
#195=LINE('',#1092,#275);
#196=LINE('',#1095,#276);
#197=LINE('',#1097,#277);
#198=LINE('',#1099,#278);
#199=LINE('',#1100,#279);
#200=LINE('',#1103,#280);
#201=LINE('',#1104,#281);
#202=LINE('',#1106,#282);
#203=LINE('',#1107,#283);
#204=LINE('',#1118,#284);
#205=LINE('',#1121,#285);
#206=LINE('',#1124,#286);
#207=LINE('',#1125,#287);
#208=LINE('',#1128,#288);
#209=LINE('',#1132,#289);
#210=LINE('',#1133,#290);
#211=LINE('',#1135,#291);
#212=LINE('',#1138,#292);
#213=LINE('',#1141,#293);
#214=LINE('',#1144,#294);
#215=LINE('',#1145,#295);
#216=LINE('',#1150,#296);
#217=LINE('',#1152,#297);
#218=LINE('',#1153,#298);
#219=LINE('',#1156,#299);
#220=LINE('',#1158,#300);
#221=LINE('',#1159,#301);
#222=LINE('',#1161,#302);
#223=LINE('',#1163,#303);
#224=LINE('',#1166,#304);
#225=LINE('',#1167,#305);
#226=LINE('',#1169,#306);
#227=LINE('',#1171,#307);
#228=VECTOR('',#786,0.0939430665359127);
#229=VECTOR('',#795,0.06);
#230=VECTOR('',#802,0.114848411915041);
#231=VECTOR('',#811,0.0599999999999999);
#232=VECTOR('',#816,0.393700787401575);
#233=VECTOR('',#817,0.393700787401575);
#234=VECTOR('',#818,0.393700787401575);
#235=VECTOR('',#819,0.393700787401575);
#236=VECTOR('',#822,0.393700787401575);
#237=VECTOR('',#823,0.393700787401575);
#238=VECTOR('',#824,0.393700787401575);
#239=VECTOR('',#825,0.393700787401575);
#240=VECTOR('',#828,0.393700787401575);
#241=VECTOR('',#829,0.393700787401575);
#242=VECTOR('',#830,0.393700787401575);
#243=VECTOR('',#831,0.393700787401575);
#244=VECTOR('',#834,0.393700787401575);
#245=VECTOR('',#835,0.393700787401575);
#246=VECTOR('',#836,0.393700787401575);
#247=VECTOR('',#839,0.393700787401575);
#248=VECTOR('',#840,0.393700787401575);
#249=VECTOR('',#841,0.393700787401575);
#250=VECTOR('',#844,0.393700787401575);
#251=VECTOR('',#845,0.393700787401575);
#252=VECTOR('',#848,0.393700787401575);
#253=VECTOR('',#849,0.393700787401575);
#254=VECTOR('',#850,0.393700787401575);
#255=VECTOR('',#853,0.393700787401575);
#256=VECTOR('',#854,0.393700787401575);
#257=VECTOR('',#855,0.393700787401575);
#258=VECTOR('',#858,0.393700787401575);
#259=VECTOR('',#859,0.393700787401575);
#260=VECTOR('',#860,0.393700787401575);
#261=VECTOR('',#861,0.393700787401575);
#262=VECTOR('',#862,0.393700787401575);
#263=VECTOR('',#863,0.393700787401575);
#264=VECTOR('',#864,0.393700787401575);
#265=VECTOR('',#865,0.393700787401575);
#266=VECTOR('',#868,0.393700787401575);
#267=VECTOR('',#869,0.393700787401575);
#268=VECTOR('',#872,0.393700787401575);
#269=VECTOR('',#873,0.393700787401575);
#270=VECTOR('',#874,0.393700787401575);
#271=VECTOR('',#875,0.393700787401575);
#272=VECTOR('',#878,0.393700787401575);
#273=VECTOR('',#879,0.393700787401575);
#274=VECTOR('',#880,0.393700787401575);
#275=VECTOR('',#881,0.393700787401575);
#276=VECTOR('',#884,0.393700787401575);
#277=VECTOR('',#885,0.393700787401575);
#278=VECTOR('',#886,0.393700787401575);
#279=VECTOR('',#887,0.393700787401575);
#280=VECTOR('',#890,0.393700787401575);
#281=VECTOR('',#891,0.393700787401575);
#282=VECTOR('',#892,0.393700787401575);
#283=VECTOR('',#893,0.393700787401575);
#284=VECTOR('',#912,0.393700787401575);
#285=VECTOR('',#915,0.393700787401575);
#286=VECTOR('',#918,0.393700787401575);
#287=VECTOR('',#919,0.393700787401575);
#288=VECTOR('',#922,0.393700787401575);
#289=VECTOR('',#927,0.393700787401575);
#290=VECTOR('',#928,0.393700787401575);
#291=VECTOR('',#931,0.393700787401575);
#292=VECTOR('',#934,0.393700787401575);
#293=VECTOR('',#937,0.393700787401575);
#294=VECTOR('',#940,0.393700787401575);
#295=VECTOR('',#941,0.393700787401575);
#296=VECTOR('',#948,0.393700787401575);
#297=VECTOR('',#949,0.393700787401575);
#298=VECTOR('',#950,0.393700787401575);
#299=VECTOR('',#953,0.393700787401575);
#300=VECTOR('',#954,0.393700787401575);
#301=VECTOR('',#955,0.393700787401575);
#302=VECTOR('',#958,0.393700787401575);
#303=VECTOR('',#961,0.393700787401575);
#304=VECTOR('',#964,0.393700787401575);
#305=VECTOR('',#965,0.393700787401575);
#306=VECTOR('',#968,0.393700787401575);
#307=VECTOR('',#971,0.393700787401575);
#308=CIRCLE('',#724,0.0939430665359127);
#309=CIRCLE('',#725,0.0939430665359127);
#310=CIRCLE('',#727,0.06);
#311=CIRCLE('',#729,0.06);
#312=CIRCLE('',#731,0.114848411915041);
#313=CIRCLE('',#732,0.114848411915041);
#314=CIRCLE('',#734,0.0599999999999999);
#315=CIRCLE('',#736,0.0599999999999999);
#316=CIRCLE('',#752,0.118110236220473);
#317=CIRCLE('',#754,0.118110236220472);
#318=CIRCLE('',#756,0.118110236220472);
#319=CIRCLE('',#758,0.118110236220473);
#320=CIRCLE('',#760,0.118110236220472);
#321=CIRCLE('',#763,0.118110236220472);
#322=CIRCLE('',#767,0.118110236220472);
#323=CIRCLE('',#770,0.118110236220472);
#324=VERTEX_POINT('',#978);
#325=VERTEX_POINT('',#980);
#326=VERTEX_POINT('',#984);
#327=VERTEX_POINT('',#987);
#328=VERTEX_POINT('',#991);
#329=VERTEX_POINT('',#993);
#330=VERTEX_POINT('',#997);
#331=VERTEX_POINT('',#1000);
#332=VERTEX_POINT('',#1004);
#333=VERTEX_POINT('',#1005);
#334=VERTEX_POINT('',#1007);
#335=VERTEX_POINT('',#1009);
#336=VERTEX_POINT('',#1013);
#337=VERTEX_POINT('',#1014);
#338=VERTEX_POINT('',#1016);
#339=VERTEX_POINT('',#1018);
#340=VERTEX_POINT('',#1022);
#341=VERTEX_POINT('',#1023);
#342=VERTEX_POINT('',#1025);
#343=VERTEX_POINT('',#1027);
#344=VERTEX_POINT('',#1031);
#345=VERTEX_POINT('',#1033);
#346=VERTEX_POINT('',#1037);
#347=VERTEX_POINT('',#1038);
#348=VERTEX_POINT('',#1046);
#349=VERTEX_POINT('',#1048);
#350=VERTEX_POINT('',#1052);
#351=VERTEX_POINT('',#1054);
#352=VERTEX_POINT('',#1058);
#353=VERTEX_POINT('',#1061);
#354=VERTEX_POINT('',#1064);
#355=VERTEX_POINT('',#1065);
#356=VERTEX_POINT('',#1067);
#357=VERTEX_POINT('',#1069);
#358=VERTEX_POINT('',#1073);
#359=VERTEX_POINT('',#1077);
#360=VERTEX_POINT('',#1078);
#361=VERTEX_POINT('',#1080);
#362=VERTEX_POINT('',#1082);
#363=VERTEX_POINT('',#1086);
#364=VERTEX_POINT('',#1088);
#365=VERTEX_POINT('',#1090);
#366=VERTEX_POINT('',#1094);
#367=VERTEX_POINT('',#1096);
#368=VERTEX_POINT('',#1098);
#369=VERTEX_POINT('',#1102);
#370=VERTEX_POINT('',#1105);
#371=VERTEX_POINT('',#1117);
#372=VERTEX_POINT('',#1119);
#373=VERTEX_POINT('',#1123);
#374=VERTEX_POINT('',#1127);
#375=VERTEX_POINT('',#1131);
#376=VERTEX_POINT('',#1137);
#377=VERTEX_POINT('',#1139);
#378=VERTEX_POINT('',#1143);
#379=VERTEX_POINT('',#1149);
#380=VERTEX_POINT('',#1151);
#381=VERTEX_POINT('',#1155);
#382=VERTEX_POINT('',#1157);
#383=VERTEX_POINT('',#1165);
#384=EDGE_CURVE('',#324,#324,#308,.T.);
#385=EDGE_CURVE('',#324,#325,#148,.T.);
#386=EDGE_CURVE('',#325,#325,#309,.T.);
#387=EDGE_CURVE('',#326,#326,#310,.T.);
#388=EDGE_CURVE('',#326,#327,#149,.T.);
#389=EDGE_CURVE('',#327,#327,#311,.T.);
#390=EDGE_CURVE('',#328,#328,#312,.T.);
#391=EDGE_CURVE('',#328,#329,#150,.T.);
#392=EDGE_CURVE('',#329,#329,#313,.T.);
#393=EDGE_CURVE('',#330,#330,#314,.T.);
#394=EDGE_CURVE('',#330,#331,#151,.T.);
#395=EDGE_CURVE('',#331,#331,#315,.T.);
#396=EDGE_CURVE('',#332,#333,#152,.T.);
#397=EDGE_CURVE('',#334,#332,#153,.T.);
#398=EDGE_CURVE('',#334,#335,#154,.T.);
#399=EDGE_CURVE('',#333,#335,#155,.T.);
#400=EDGE_CURVE('',#336,#337,#156,.T.);
#401=EDGE_CURVE('',#338,#336,#157,.T.);
#402=EDGE_CURVE('',#338,#339,#158,.T.);
#403=EDGE_CURVE('',#337,#339,#159,.T.);
#404=EDGE_CURVE('',#340,#341,#160,.T.);
#405=EDGE_CURVE('',#342,#340,#161,.T.);
#406=EDGE_CURVE('',#342,#343,#162,.T.);
#407=EDGE_CURVE('',#343,#341,#163,.T.);
#408=EDGE_CURVE('',#344,#338,#164,.T.);
#409=EDGE_CURVE('',#345,#344,#165,.T.);
#410=EDGE_CURVE('',#339,#345,#166,.T.);
#411=EDGE_CURVE('',#346,#347,#167,.T.);
#412=EDGE_CURVE('',#346,#345,#168,.T.);
#413=EDGE_CURVE('',#347,#344,#169,.T.);
#414=EDGE_CURVE('',#343,#334,#170,.T.);
#415=EDGE_CURVE('',#335,#342,#171,.T.);
#416=EDGE_CURVE('',#347,#348,#172,.T.);
#417=EDGE_CURVE('',#349,#348,#173,.T.);
#418=EDGE_CURVE('',#346,#349,#174,.T.);
#419=EDGE_CURVE('',#350,#337,#175,.T.);
#420=EDGE_CURVE('',#351,#350,#176,.T.);
#421=EDGE_CURVE('',#351,#336,#177,.T.);
#422=EDGE_CURVE('',#352,#349,#178,.T.);
#423=EDGE_CURVE('',#341,#352,#179,.T.);
#424=EDGE_CURVE('',#353,#332,#180,.T.);
#425=EDGE_CURVE('',#350,#353,#181,.T.);
#426=EDGE_CURVE('',#354,#355,#182,.T.);
#427=EDGE_CURVE('',#355,#356,#183,.T.);
#428=EDGE_CURVE('',#356,#357,#184,.T.);
#429=EDGE_CURVE('',#357,#354,#185,.T.);
#430=EDGE_CURVE('',#358,#352,#186,.T.);
#431=EDGE_CURVE('',#340,#358,#187,.T.);
#432=EDGE_CURVE('',#359,#360,#188,.T.);
#433=EDGE_CURVE('',#360,#361,#189,.T.);
#434=EDGE_CURVE('',#361,#362,#190,.T.);
#435=EDGE_CURVE('',#362,#359,#191,.T.);
#436=EDGE_CURVE('',#363,#361,#192,.T.);
#437=EDGE_CURVE('',#361,#364,#193,.T.);
#438=EDGE_CURVE('',#364,#365,#194,.T.);
#439=EDGE_CURVE('',#365,#363,#195,.T.);
#440=EDGE_CURVE('',#366,#364,#196,.T.);
#441=EDGE_CURVE('',#364,#367,#197,.T.);
#442=EDGE_CURVE('',#367,#368,#198,.T.);
#443=EDGE_CURVE('',#368,#366,#199,.T.);
#444=EDGE_CURVE('',#369,#367,#200,.T.);
#445=EDGE_CURVE('',#367,#360,#201,.T.);
#446=EDGE_CURVE('',#360,#370,#202,.T.);
#447=EDGE_CURVE('',#370,#369,#203,.T.);
#448=EDGE_CURVE('',#369,#368,#316,.T.);
#449=EDGE_CURVE('',#366,#365,#317,.T.);
#450=EDGE_CURVE('',#363,#362,#318,.T.);
#451=EDGE_CURVE('',#359,#370,#319,.T.);
#452=EDGE_CURVE('',#366,#371,#204,.T.);
#453=EDGE_CURVE('',#371,#372,#320,.T.);
#454=EDGE_CURVE('',#372,#365,#205,.T.);
#455=EDGE_CURVE('',#373,#368,#206,.T.);
#456=EDGE_CURVE('',#371,#373,#207,.T.);
#457=EDGE_CURVE('',#369,#374,#208,.T.);
#458=EDGE_CURVE('',#374,#373,#321,.T.);
#459=EDGE_CURVE('',#375,#370,#209,.T.);
#460=EDGE_CURVE('',#374,#375,#210,.T.);
#461=EDGE_CURVE('',#348,#358,#211,.T.);
#462=EDGE_CURVE('',#363,#376,#212,.T.);
#463=EDGE_CURVE('',#376,#377,#322,.T.);
#464=EDGE_CURVE('',#377,#362,#213,.T.);
#465=EDGE_CURVE('',#378,#377,#214,.T.);
#466=EDGE_CURVE('',#359,#378,#215,.T.);
#467=EDGE_CURVE('',#378,#375,#323,.T.);
#468=EDGE_CURVE('',#357,#379,#216,.T.);
#469=EDGE_CURVE('',#356,#380,#217,.T.);
#470=EDGE_CURVE('',#379,#380,#218,.T.);
#471=EDGE_CURVE('',#381,#354,#219,.T.);
#472=EDGE_CURVE('',#382,#381,#220,.T.);
#473=EDGE_CURVE('',#382,#355,#221,.T.);
#474=EDGE_CURVE('',#381,#379,#222,.T.);
#475=EDGE_CURVE('',#380,#382,#223,.T.);
#476=EDGE_CURVE('',#383,#351,#224,.T.);
#477=EDGE_CURVE('',#383,#333,#225,.T.);
#478=EDGE_CURVE('',#353,#383,#226,.T.);
#479=EDGE_CURVE('',#376,#372,#227,.T.);
#480=ORIENTED_EDGE('',*,*,#384,.F.);
#481=ORIENTED_EDGE('',*,*,#385,.T.);
#482=ORIENTED_EDGE('',*,*,#386,.T.);
#483=ORIENTED_EDGE('',*,*,#385,.F.);
#484=ORIENTED_EDGE('',*,*,#386,.F.);
#485=ORIENTED_EDGE('',*,*,#387,.F.);
#486=ORIENTED_EDGE('',*,*,#387,.T.);
#487=ORIENTED_EDGE('',*,*,#388,.T.);
#488=ORIENTED_EDGE('',*,*,#389,.F.);
#489=ORIENTED_EDGE('',*,*,#388,.F.);
#490=ORIENTED_EDGE('',*,*,#390,.F.);
#491=ORIENTED_EDGE('',*,*,#391,.T.);
#492=ORIENTED_EDGE('',*,*,#392,.T.);
#493=ORIENTED_EDGE('',*,*,#391,.F.);
#494=ORIENTED_EDGE('',*,*,#392,.F.);
#495=ORIENTED_EDGE('',*,*,#393,.F.);
#496=ORIENTED_EDGE('',*,*,#393,.T.);
#497=ORIENTED_EDGE('',*,*,#394,.T.);
#498=ORIENTED_EDGE('',*,*,#395,.F.);
#499=ORIENTED_EDGE('',*,*,#394,.F.);
#500=ORIENTED_EDGE('',*,*,#396,.F.);
#501=ORIENTED_EDGE('',*,*,#397,.F.);
#502=ORIENTED_EDGE('',*,*,#398,.T.);
#503=ORIENTED_EDGE('',*,*,#399,.F.);
#504=ORIENTED_EDGE('',*,*,#395,.T.);
#505=ORIENTED_EDGE('',*,*,#400,.F.);
#506=ORIENTED_EDGE('',*,*,#401,.F.);
#507=ORIENTED_EDGE('',*,*,#402,.T.);
#508=ORIENTED_EDGE('',*,*,#403,.F.);
#509=ORIENTED_EDGE('',*,*,#389,.T.);
#510=ORIENTED_EDGE('',*,*,#404,.F.);
#511=ORIENTED_EDGE('',*,*,#405,.F.);
#512=ORIENTED_EDGE('',*,*,#406,.T.);
#513=ORIENTED_EDGE('',*,*,#407,.T.);
#514=ORIENTED_EDGE('',*,*,#402,.F.);
#515=ORIENTED_EDGE('',*,*,#408,.F.);
#516=ORIENTED_EDGE('',*,*,#409,.F.);
#517=ORIENTED_EDGE('',*,*,#410,.F.);
#518=ORIENTED_EDGE('',*,*,#411,.F.);
#519=ORIENTED_EDGE('',*,*,#412,.T.);
#520=ORIENTED_EDGE('',*,*,#409,.T.);
#521=ORIENTED_EDGE('',*,*,#413,.F.);
#522=ORIENTED_EDGE('',*,*,#398,.F.);
#523=ORIENTED_EDGE('',*,*,#414,.F.);
#524=ORIENTED_EDGE('',*,*,#406,.F.);
#525=ORIENTED_EDGE('',*,*,#415,.F.);
#526=ORIENTED_EDGE('',*,*,#411,.T.);
#527=ORIENTED_EDGE('',*,*,#416,.T.);
#528=ORIENTED_EDGE('',*,*,#417,.F.);
#529=ORIENTED_EDGE('',*,*,#418,.F.);
#530=ORIENTED_EDGE('',*,*,#400,.T.);
#531=ORIENTED_EDGE('',*,*,#419,.F.);
#532=ORIENTED_EDGE('',*,*,#420,.F.);
#533=ORIENTED_EDGE('',*,*,#421,.T.);
#534=ORIENTED_EDGE('',*,*,#418,.T.);
#535=ORIENTED_EDGE('',*,*,#422,.F.);
#536=ORIENTED_EDGE('',*,*,#423,.F.);
#537=ORIENTED_EDGE('',*,*,#407,.F.);
#538=ORIENTED_EDGE('',*,*,#414,.T.);
#539=ORIENTED_EDGE('',*,*,#397,.T.);
#540=ORIENTED_EDGE('',*,*,#424,.F.);
#541=ORIENTED_EDGE('',*,*,#425,.F.);
#542=ORIENTED_EDGE('',*,*,#419,.T.);
#543=ORIENTED_EDGE('',*,*,#403,.T.);
#544=ORIENTED_EDGE('',*,*,#410,.T.);
#545=ORIENTED_EDGE('',*,*,#412,.F.);
#546=ORIENTED_EDGE('',*,*,#426,.T.);
#547=ORIENTED_EDGE('',*,*,#427,.T.);
#548=ORIENTED_EDGE('',*,*,#428,.T.);
#549=ORIENTED_EDGE('',*,*,#429,.T.);
#550=ORIENTED_EDGE('',*,*,#404,.T.);
#551=ORIENTED_EDGE('',*,*,#423,.T.);
#552=ORIENTED_EDGE('',*,*,#430,.F.);
#553=ORIENTED_EDGE('',*,*,#431,.F.);
#554=ORIENTED_EDGE('',*,*,#432,.T.);
#555=ORIENTED_EDGE('',*,*,#433,.T.);
#556=ORIENTED_EDGE('',*,*,#434,.T.);
#557=ORIENTED_EDGE('',*,*,#435,.T.);
#558=ORIENTED_EDGE('',*,*,#436,.T.);
#559=ORIENTED_EDGE('',*,*,#437,.T.);
#560=ORIENTED_EDGE('',*,*,#438,.T.);
#561=ORIENTED_EDGE('',*,*,#439,.T.);
#562=ORIENTED_EDGE('',*,*,#440,.T.);
#563=ORIENTED_EDGE('',*,*,#441,.T.);
#564=ORIENTED_EDGE('',*,*,#442,.T.);
#565=ORIENTED_EDGE('',*,*,#443,.T.);
#566=ORIENTED_EDGE('',*,*,#444,.T.);
#567=ORIENTED_EDGE('',*,*,#445,.T.);
#568=ORIENTED_EDGE('',*,*,#446,.T.);
#569=ORIENTED_EDGE('',*,*,#447,.T.);
#570=ORIENTED_EDGE('',*,*,#444,.F.);
#571=ORIENTED_EDGE('',*,*,#448,.T.);
#572=ORIENTED_EDGE('',*,*,#442,.F.);
#573=ORIENTED_EDGE('',*,*,#440,.F.);
#574=ORIENTED_EDGE('',*,*,#449,.T.);
#575=ORIENTED_EDGE('',*,*,#438,.F.);
#576=ORIENTED_EDGE('',*,*,#436,.F.);
#577=ORIENTED_EDGE('',*,*,#450,.T.);
#578=ORIENTED_EDGE('',*,*,#434,.F.);
#579=ORIENTED_EDGE('',*,*,#432,.F.);
#580=ORIENTED_EDGE('',*,*,#451,.T.);
#581=ORIENTED_EDGE('',*,*,#446,.F.);
#582=ORIENTED_EDGE('',*,*,#449,.F.);
#583=ORIENTED_EDGE('',*,*,#452,.T.);
#584=ORIENTED_EDGE('',*,*,#453,.T.);
#585=ORIENTED_EDGE('',*,*,#454,.T.);
#586=ORIENTED_EDGE('',*,*,#443,.F.);
#587=ORIENTED_EDGE('',*,*,#455,.F.);
#588=ORIENTED_EDGE('',*,*,#456,.F.);
#589=ORIENTED_EDGE('',*,*,#452,.F.);
#590=ORIENTED_EDGE('',*,*,#448,.F.);
#591=ORIENTED_EDGE('',*,*,#457,.T.);
#592=ORIENTED_EDGE('',*,*,#458,.T.);
#593=ORIENTED_EDGE('',*,*,#455,.T.);
#594=ORIENTED_EDGE('',*,*,#447,.F.);
#595=ORIENTED_EDGE('',*,*,#459,.F.);
#596=ORIENTED_EDGE('',*,*,#460,.F.);
#597=ORIENTED_EDGE('',*,*,#457,.F.);
#598=ORIENTED_EDGE('',*,*,#433,.F.);
#599=ORIENTED_EDGE('',*,*,#445,.F.);
#600=ORIENTED_EDGE('',*,*,#441,.F.);
#601=ORIENTED_EDGE('',*,*,#437,.F.);
#602=ORIENTED_EDGE('',*,*,#422,.T.);
#603=ORIENTED_EDGE('',*,*,#417,.T.);
#604=ORIENTED_EDGE('',*,*,#461,.T.);
#605=ORIENTED_EDGE('',*,*,#430,.T.);
#606=ORIENTED_EDGE('',*,*,#450,.F.);
#607=ORIENTED_EDGE('',*,*,#462,.T.);
#608=ORIENTED_EDGE('',*,*,#463,.T.);
#609=ORIENTED_EDGE('',*,*,#464,.T.);
#610=ORIENTED_EDGE('',*,*,#435,.F.);
#611=ORIENTED_EDGE('',*,*,#464,.F.);
#612=ORIENTED_EDGE('',*,*,#465,.F.);
#613=ORIENTED_EDGE('',*,*,#466,.F.);
#614=ORIENTED_EDGE('',*,*,#451,.F.);
#615=ORIENTED_EDGE('',*,*,#466,.T.);
#616=ORIENTED_EDGE('',*,*,#467,.T.);
#617=ORIENTED_EDGE('',*,*,#459,.T.);
#618=ORIENTED_EDGE('',*,*,#468,.F.);
#619=ORIENTED_EDGE('',*,*,#428,.F.);
#620=ORIENTED_EDGE('',*,*,#469,.T.);
#621=ORIENTED_EDGE('',*,*,#470,.F.);
#622=ORIENTED_EDGE('',*,*,#471,.F.);
#623=ORIENTED_EDGE('',*,*,#472,.F.);
#624=ORIENTED_EDGE('',*,*,#473,.T.);
#625=ORIENTED_EDGE('',*,*,#426,.F.);
#626=ORIENTED_EDGE('',*,*,#474,.F.);
#627=ORIENTED_EDGE('',*,*,#471,.T.);
#628=ORIENTED_EDGE('',*,*,#429,.F.);
#629=ORIENTED_EDGE('',*,*,#468,.T.);
#630=ORIENTED_EDGE('',*,*,#475,.F.);
#631=ORIENTED_EDGE('',*,*,#469,.F.);
#632=ORIENTED_EDGE('',*,*,#427,.F.);
#633=ORIENTED_EDGE('',*,*,#473,.F.);
#634=ORIENTED_EDGE('',*,*,#421,.F.);
#635=ORIENTED_EDGE('',*,*,#476,.F.);
#636=ORIENTED_EDGE('',*,*,#477,.T.);
#637=ORIENTED_EDGE('',*,*,#399,.T.);
#638=ORIENTED_EDGE('',*,*,#415,.T.);
#639=ORIENTED_EDGE('',*,*,#405,.T.);
#640=ORIENTED_EDGE('',*,*,#431,.T.);
#641=ORIENTED_EDGE('',*,*,#461,.F.);
#642=ORIENTED_EDGE('',*,*,#416,.F.);
#643=ORIENTED_EDGE('',*,*,#413,.T.);
#644=ORIENTED_EDGE('',*,*,#408,.T.);
#645=ORIENTED_EDGE('',*,*,#401,.T.);
#646=ORIENTED_EDGE('',*,*,#396,.T.);
#647=ORIENTED_EDGE('',*,*,#477,.F.);
#648=ORIENTED_EDGE('',*,*,#478,.F.);
#649=ORIENTED_EDGE('',*,*,#424,.T.);
#650=ORIENTED_EDGE('',*,*,#439,.F.);
#651=ORIENTED_EDGE('',*,*,#454,.F.);
#652=ORIENTED_EDGE('',*,*,#479,.F.);
#653=ORIENTED_EDGE('',*,*,#462,.F.);
#654=ORIENTED_EDGE('',*,*,#472,.T.);
#655=ORIENTED_EDGE('',*,*,#474,.T.);
#656=ORIENTED_EDGE('',*,*,#470,.T.);
#657=ORIENTED_EDGE('',*,*,#475,.T.);
#658=ORIENTED_EDGE('',*,*,#476,.T.);
#659=ORIENTED_EDGE('',*,*,#420,.T.);
#660=ORIENTED_EDGE('',*,*,#425,.T.);
#661=ORIENTED_EDGE('',*,*,#478,.T.);
#662=ORIENTED_EDGE('',*,*,#453,.F.);
#663=ORIENTED_EDGE('',*,*,#456,.T.);
#664=ORIENTED_EDGE('',*,*,#458,.F.);
#665=ORIENTED_EDGE('',*,*,#460,.T.);
#666=ORIENTED_EDGE('',*,*,#467,.F.);
#667=ORIENTED_EDGE('',*,*,#465,.T.);
#668=ORIENTED_EDGE('',*,*,#463,.F.);
#669=ORIENTED_EDGE('',*,*,#479,.T.);
#670=ORIENTED_EDGE('',*,*,#384,.T.);
#671=ORIENTED_EDGE('',*,*,#390,.T.);
#672=CYLINDRICAL_SURFACE('',#723,0.0939430665359127);
#673=CYLINDRICAL_SURFACE('',#728,0.06);
#674=CYLINDRICAL_SURFACE('',#730,0.114848411915041);
#675=CYLINDRICAL_SURFACE('',#735,0.0599999999999999);
#676=CYLINDRICAL_SURFACE('',#759,0.118110236220472);
#677=CYLINDRICAL_SURFACE('',#762,0.118110236220472);
#678=CYLINDRICAL_SURFACE('',#766,0.118110236220472);
#679=CYLINDRICAL_SURFACE('',#769,0.118110236220472);
#680=ADVANCED_FACE('',(#57),#672,.F.);
#681=ADVANCED_FACE('',(#58,#19),#28,.T.);
#682=ADVANCED_FACE('',(#59),#673,.F.);
#683=ADVANCED_FACE('',(#60),#674,.F.);
#684=ADVANCED_FACE('',(#61,#20),#29,.T.);
#685=ADVANCED_FACE('',(#62),#675,.F.);
#686=ADVANCED_FACE('',(#63,#21),#30,.F.);
#687=ADVANCED_FACE('',(#64,#22),#31,.F.);
#688=ADVANCED_FACE('',(#65),#32,.F.);
#689=ADVANCED_FACE('',(#66),#33,.F.);
#690=ADVANCED_FACE('',(#67),#34,.F.);
#691=ADVANCED_FACE('',(#68),#35,.F.);
#692=ADVANCED_FACE('',(#69),#36,.T.);
#693=ADVANCED_FACE('',(#70),#37,.T.);
#694=ADVANCED_FACE('',(#71,#23),#38,.T.);
#695=ADVANCED_FACE('',(#72),#39,.T.);
#696=ADVANCED_FACE('',(#73),#40,.T.);
#697=ADVANCED_FACE('',(#74),#41,.T.);
#698=ADVANCED_FACE('',(#75),#42,.T.);
#699=ADVANCED_FACE('',(#76),#43,.T.);
#700=ADVANCED_FACE('',(#77),#15,.T.);
#701=ADVANCED_FACE('',(#78),#16,.T.);
#702=ADVANCED_FACE('',(#79),#17,.T.);
#703=ADVANCED_FACE('',(#80),#18,.T.);
#704=ADVANCED_FACE('',(#81),#676,.T.);
#705=ADVANCED_FACE('',(#82),#44,.T.);
#706=ADVANCED_FACE('',(#83),#677,.T.);
#707=ADVANCED_FACE('',(#84),#45,.T.);
#708=ADVANCED_FACE('',(#85,#24),#46,.T.);
#709=ADVANCED_FACE('',(#86),#678,.T.);
#710=ADVANCED_FACE('',(#87),#47,.T.);
#711=ADVANCED_FACE('',(#88),#679,.T.);
#712=ADVANCED_FACE('',(#89),#48,.F.);
#713=ADVANCED_FACE('',(#90),#49,.F.);
#714=ADVANCED_FACE('',(#91),#50,.F.);
#715=ADVANCED_FACE('',(#92),#51,.F.);
#716=ADVANCED_FACE('',(#93),#52,.T.);
#717=ADVANCED_FACE('',(#94),#53,.T.);
#718=ADVANCED_FACE('',(#95,#25),#54,.T.);
#719=ADVANCED_FACE('',(#96),#55,.T.);
#720=ADVANCED_FACE('',(#97,#26,#27),#56,.F.);
#721=CLOSED_SHELL('',(#680,#681,#682,#683,#684,#685,#686,#687,#688,#689,
#690,#691,#692,#693,#694,#695,#696,#697,#698,#699,#700,#701,#702,#703,#704,
#705,#706,#707,#708,#709,#710,#711,#712,#713,#714,#715,#716,#717,#718,#719,
#720));
#722=AXIS2_PLACEMENT_3D('',#976,#780,#781);
#723=AXIS2_PLACEMENT_3D('',#977,#782,#783);
#724=AXIS2_PLACEMENT_3D('',#979,#784,#785);
#725=AXIS2_PLACEMENT_3D('',#982,#787,#788);
#726=AXIS2_PLACEMENT_3D('',#983,#789,#790);
#727=AXIS2_PLACEMENT_3D('',#985,#791,#792);
#728=AXIS2_PLACEMENT_3D('',#986,#793,#794);
#729=AXIS2_PLACEMENT_3D('',#989,#796,#797);
#730=AXIS2_PLACEMENT_3D('',#990,#798,#799);
#731=AXIS2_PLACEMENT_3D('',#992,#800,#801);
#732=AXIS2_PLACEMENT_3D('',#995,#803,#804);
#733=AXIS2_PLACEMENT_3D('',#996,#805,#806);
#734=AXIS2_PLACEMENT_3D('',#998,#807,#808);
#735=AXIS2_PLACEMENT_3D('',#999,#809,#810);
#736=AXIS2_PLACEMENT_3D('',#1002,#812,#813);
#737=AXIS2_PLACEMENT_3D('',#1003,#814,#815);
#738=AXIS2_PLACEMENT_3D('',#1012,#820,#821);
#739=AXIS2_PLACEMENT_3D('',#1021,#826,#827);
#740=AXIS2_PLACEMENT_3D('',#1030,#832,#833);
#741=AXIS2_PLACEMENT_3D('',#1036,#837,#838);
#742=AXIS2_PLACEMENT_3D('',#1042,#842,#843);
#743=AXIS2_PLACEMENT_3D('',#1045,#846,#847);
#744=AXIS2_PLACEMENT_3D('',#1051,#851,#852);
#745=AXIS2_PLACEMENT_3D('',#1057,#856,#857);
#746=AXIS2_PLACEMENT_3D('',#1072,#866,#867);
#747=AXIS2_PLACEMENT_3D('',#1076,#870,#871);
#748=AXIS2_PLACEMENT_3D('',#1085,#876,#877);
#749=AXIS2_PLACEMENT_3D('',#1093,#882,#883);
#750=AXIS2_PLACEMENT_3D('',#1101,#888,#889);
#751=AXIS2_PLACEMENT_3D('',#1108,#894,#895);
#752=AXIS2_PLACEMENT_3D('',#1109,#896,#897);
#753=AXIS2_PLACEMENT_3D('',#1110,#898,#899);
#754=AXIS2_PLACEMENT_3D('',#1111,#900,#901);
#755=AXIS2_PLACEMENT_3D('',#1112,#902,#903);
#756=AXIS2_PLACEMENT_3D('',#1113,#904,#905);
#757=AXIS2_PLACEMENT_3D('',#1114,#906,#907);
#758=AXIS2_PLACEMENT_3D('',#1115,#908,#909);
#759=AXIS2_PLACEMENT_3D('',#1116,#910,#911);
#760=AXIS2_PLACEMENT_3D('',#1120,#913,#914);
#761=AXIS2_PLACEMENT_3D('',#1122,#916,#917);
#762=AXIS2_PLACEMENT_3D('',#1126,#920,#921);
#763=AXIS2_PLACEMENT_3D('',#1129,#923,#924);
#764=AXIS2_PLACEMENT_3D('',#1130,#925,#926);
#765=AXIS2_PLACEMENT_3D('',#1134,#929,#930);
#766=AXIS2_PLACEMENT_3D('',#1136,#932,#933);
#767=AXIS2_PLACEMENT_3D('',#1140,#935,#936);
#768=AXIS2_PLACEMENT_3D('',#1142,#938,#939);
#769=AXIS2_PLACEMENT_3D('',#1146,#942,#943);
#770=AXIS2_PLACEMENT_3D('',#1147,#944,#945);
#771=AXIS2_PLACEMENT_3D('',#1148,#946,#947);
#772=AXIS2_PLACEMENT_3D('',#1154,#951,#952);
#773=AXIS2_PLACEMENT_3D('',#1160,#956,#957);
#774=AXIS2_PLACEMENT_3D('',#1162,#959,#960);
#775=AXIS2_PLACEMENT_3D('',#1164,#962,#963);
#776=AXIS2_PLACEMENT_3D('',#1168,#966,#967);
#777=AXIS2_PLACEMENT_3D('',#1170,#969,#970);
#778=AXIS2_PLACEMENT_3D('',#1172,#972,#973);
#779=AXIS2_PLACEMENT_3D('',#1173,#974,#975);
#780=DIRECTION('axis',(0.,0.,1.));
#781=DIRECTION('refdir',(1.,0.,0.));
#782=DIRECTION('center_axis',(0.,0.,1.));
#783=DIRECTION('ref_axis',(1.,0.,0.));
#784=DIRECTION('center_axis',(0.,0.,1.));
#785=DIRECTION('ref_axis',(1.,0.,0.));
#786=DIRECTION('',(0.,0.,1.));
#787=DIRECTION('center_axis',(0.,0.,1.));
#788=DIRECTION('ref_axis',(1.,0.,0.));
#789=DIRECTION('center_axis',(0.,0.,-1.));
#790=DIRECTION('ref_axis',(1.,0.,0.));
#791=DIRECTION('center_axis',(0.,0.,-1.));
#792=DIRECTION('ref_axis',(1.,0.,0.));
#793=DIRECTION('center_axis',(0.,0.,1.));
#794=DIRECTION('ref_axis',(1.,0.,0.));
#795=DIRECTION('',(0.,0.,1.));
#796=DIRECTION('center_axis',(0.,0.,-1.));
#797=DIRECTION('ref_axis',(1.,0.,0.));
#798=DIRECTION('center_axis',(0.,0.,1.));
#799=DIRECTION('ref_axis',(1.,0.,0.));
#800=DIRECTION('center_axis',(0.,0.,1.));
#801=DIRECTION('ref_axis',(1.,0.,0.));
#802=DIRECTION('',(0.,0.,1.));
#803=DIRECTION('center_axis',(0.,0.,1.));
#804=DIRECTION('ref_axis',(1.,0.,0.));
#805=DIRECTION('center_axis',(0.,0.,-1.));
#806=DIRECTION('ref_axis',(1.,0.,0.));
#807=DIRECTION('center_axis',(0.,0.,-1.));
#808=DIRECTION('ref_axis',(1.,0.,0.));
#809=DIRECTION('center_axis',(0.,0.,1.));
#810=DIRECTION('ref_axis',(1.,0.,0.));
#811=DIRECTION('',(0.,0.,1.));
#812=DIRECTION('center_axis',(0.,0.,-1.));
#813=DIRECTION('ref_axis',(1.,0.,0.));
#814=DIRECTION('center_axis',(0.,0.,-1.));
#815=DIRECTION('ref_axis',(0.,-1.,0.));
#816=DIRECTION('',(0.,-1.,0.));
#817=DIRECTION('',(1.,0.,0.));
#818=DIRECTION('',(0.,-1.,0.));
#819=DIRECTION('',(-1.,0.,0.));
#820=DIRECTION('center_axis',(0.,0.,-1.));
#821=DIRECTION('ref_axis',(0.,-1.,0.));
#822=DIRECTION('',(0.,1.,0.));
#823=DIRECTION('',(-1.,0.,0.));
#824=DIRECTION('',(0.,1.,0.));
#825=DIRECTION('',(1.,0.,0.));
#826=DIRECTION('center_axis',(0.,0.,1.));
#827=DIRECTION('ref_axis',(0.,1.,0.));
#828=DIRECTION('',(0.,1.,0.));
#829=DIRECTION('',(1.,0.,0.));
#830=DIRECTION('',(0.,1.,0.));
#831=DIRECTION('',(1.,0.,0.));
#832=DIRECTION('center_axis',(1.,0.,0.));
#833=DIRECTION('ref_axis',(0.,0.,-1.));
#834=DIRECTION('',(0.,0.,-1.));
#835=DIRECTION('',(0.,-1.,0.));
#836=DIRECTION('',(0.,0.,1.));
#837=DIRECTION('center_axis',(0.,0.,1.));
#838=DIRECTION('ref_axis',(0.,1.,0.));
#839=DIRECTION('',(0.,-1.,0.));
#840=DIRECTION('',(1.,0.,0.));
#841=DIRECTION('',(1.,0.,0.));
#842=DIRECTION('center_axis',(-1.,0.,0.));
#843=DIRECTION('ref_axis',(0.,0.,1.));
#844=DIRECTION('',(0.,0.,-1.));
#845=DIRECTION('',(0.,0.,1.));
#846=DIRECTION('center_axis',(-1.,0.,0.));
#847=DIRECTION('ref_axis',(0.,-1.,0.));
#848=DIRECTION('',(0.,0.,1.));
#849=DIRECTION('',(0.,-1.,0.));
#850=DIRECTION('',(0.,0.,1.));
#851=DIRECTION('center_axis',(-1.,0.,0.));
#852=DIRECTION('ref_axis',(0.,-1.,0.));
#853=DIRECTION('',(0.,0.,1.));
#854=DIRECTION('',(0.,1.,0.));
#855=DIRECTION('',(0.,0.,1.));
#856=DIRECTION('center_axis',(0.,-1.,0.));
#857=DIRECTION('ref_axis',(1.,0.,0.));
#858=DIRECTION('',(1.,0.,0.));
#859=DIRECTION('',(0.,0.,1.));
#860=DIRECTION('',(0.,0.,1.));
#861=DIRECTION('',(-1.,0.,0.));
#862=DIRECTION('',(0.,0.,-1.));
#863=DIRECTION('',(-1.,0.,0.));
#864=DIRECTION('',(0.,0.,1.));
#865=DIRECTION('',(1.,0.,0.));
#866=DIRECTION('center_axis',(1.,0.,0.));
#867=DIRECTION('ref_axis',(0.,1.,0.));
#868=DIRECTION('',(0.,1.,0.));
#869=DIRECTION('',(0.,0.,1.));
#870=DIRECTION('center_axis',(-0.707106781186546,0.,0.707106781186549));
#871=DIRECTION('ref_axis',(0.707106781186549,0.,0.707106781186546));
#872=DIRECTION('',(0.707106781186549,0.,0.707106781186546));
#873=DIRECTION('',(0.,1.,0.));
#874=DIRECTION('',(-0.707106781186549,0.,-0.707106781186546));
#875=DIRECTION('',(0.,-1.,0.));
#876=DIRECTION('center_axis',(0.,0.707106781186549,0.707106781186546));
#877=DIRECTION('ref_axis',(1.,0.,0.));
#878=DIRECTION('',(0.,-0.707106781186546,0.707106781186549));
#879=DIRECTION('',(1.,0.,0.));
#880=DIRECTION('',(0.,0.707106781186546,-0.707106781186549));
#881=DIRECTION('',(-1.,0.,0.));
#882=DIRECTION('center_axis',(0.707106781186551,0.,0.707106781186544));
#883=DIRECTION('ref_axis',(0.707106781186544,0.,-0.707106781186551));
#884=DIRECTION('',(-0.707106781186544,0.,0.707106781186551));
#885=DIRECTION('',(0.,-1.,0.));
#886=DIRECTION('',(0.707106781186544,0.,-0.707106781186551));
#887=DIRECTION('',(0.,1.,0.));
#888=DIRECTION('center_axis',(0.,-0.707106781186547,0.707106781186548));
#889=DIRECTION('ref_axis',(1.,0.,0.));
#890=DIRECTION('',(0.,0.707106781186548,0.707106781186547));
#891=DIRECTION('',(-1.,0.,0.));
#892=DIRECTION('',(0.,-0.707106781186548,-0.707106781186547));
#893=DIRECTION('',(1.,0.,0.));
#894=DIRECTION('center_axis',(0.,0.,-1.));
#895=DIRECTION('ref_axis',(0.707106781186553,-0.707106781186542,0.));
#896=DIRECTION('center_axis',(0.,0.,1.));
#897=DIRECTION('ref_axis',(0.707106781186553,-0.707106781186542,0.));
#898=DIRECTION('center_axis',(0.,0.,-1.));
#899=DIRECTION('ref_axis',(0.707106781186539,0.707106781186556,0.));
#900=DIRECTION('center_axis',(0.,0.,1.));
#901=DIRECTION('ref_axis',(0.707106781186539,0.707106781186556,0.));
#902=DIRECTION('center_axis',(0.,0.,-1.));
#903=DIRECTION('ref_axis',(-0.707106781186548,0.707106781186548,0.));
#904=DIRECTION('center_axis',(0.,0.,1.));
#905=DIRECTION('ref_axis',(-0.707106781186548,0.707106781186548,0.));
#906=DIRECTION('center_axis',(0.,0.,-1.));
#907=DIRECTION('ref_axis',(-0.70710678118655,-0.707106781186545,0.));
#908=DIRECTION('center_axis',(0.,0.,1.));
#909=DIRECTION('ref_axis',(-0.70710678118655,-0.707106781186545,0.));
#910=DIRECTION('center_axis',(0.,0.,1.));
#911=DIRECTION('ref_axis',(0.707106781186544,0.707106781186551,0.));
#912=DIRECTION('',(0.,0.,-1.));
#913=DIRECTION('center_axis',(0.,0.,1.));
#914=DIRECTION('ref_axis',(0.707106781186544,0.707106781186551,0.));
#915=DIRECTION('',(0.,0.,1.));
#916=DIRECTION('center_axis',(1.,0.,0.));
#917=DIRECTION('ref_axis',(0.,1.,0.));
#918=DIRECTION('',(0.,0.,1.));
#919=DIRECTION('',(0.,-1.,0.));
#920=DIRECTION('center_axis',(0.,0.,1.));
#921=DIRECTION('ref_axis',(0.707106781186548,-0.707106781186548,0.));
#922=DIRECTION('',(0.,0.,-1.));
#923=DIRECTION('center_axis',(0.,0.,1.));
#924=DIRECTION('ref_axis',(0.707106781186548,-0.707106781186548,0.));
#925=DIRECTION('center_axis',(0.,-1.,0.));
#926=DIRECTION('ref_axis',(1.,0.,0.));
#927=DIRECTION('',(0.,0.,1.));
#928=DIRECTION('',(-1.,0.,0.));
#929=DIRECTION('center_axis',(0.,0.,1.));
#930=DIRECTION('ref_axis',(1.,0.,0.));
#931=DIRECTION('',(-1.,0.,0.));
#932=DIRECTION('center_axis',(0.,0.,1.));
#933=DIRECTION('ref_axis',(-0.707106781186548,0.707106781186548,0.));
#934=DIRECTION('',(0.,0.,-1.));
#935=DIRECTION('center_axis',(0.,0.,1.));
#936=DIRECTION('ref_axis',(-0.707106781186548,0.707106781186548,0.));
#937=DIRECTION('',(0.,0.,1.));
#938=DIRECTION('center_axis',(-1.,0.,0.));
#939=DIRECTION('ref_axis',(0.,-1.,0.));
#940=DIRECTION('',(0.,1.,0.));
#941=DIRECTION('',(0.,0.,-1.));
#942=DIRECTION('center_axis',(0.,0.,1.));
#943=DIRECTION('ref_axis',(-0.707106781186551,-0.707106781186544,0.));
#944=DIRECTION('center_axis',(0.,0.,1.));
#945=DIRECTION('ref_axis',(-0.707106781186551,-0.707106781186544,0.));
#946=DIRECTION('center_axis',(-1.,0.,0.));
#947=DIRECTION('ref_axis',(0.,1.,0.));
#948=DIRECTION('',(0.,1.,0.));
#949=DIRECTION('',(0.,1.,0.));
#950=DIRECTION('',(0.,0.,-1.));
#951=DIRECTION('center_axis',(1.,0.,0.));
#952=DIRECTION('ref_axis',(0.,-1.,0.));
#953=DIRECTION('',(0.,-1.,0.));
#954=DIRECTION('',(0.,0.,1.));
#955=DIRECTION('',(0.,-1.,0.));
#956=DIRECTION('center_axis',(0.,0.,1.));
#957=DIRECTION('ref_axis',(-1.,0.,0.));
#958=DIRECTION('',(-1.,0.,0.));
#959=DIRECTION('center_axis',(0.,0.,-1.));
#960=DIRECTION('ref_axis',(-1.,0.,0.));
#961=DIRECTION('',(1.,0.,0.));
#962=DIRECTION('center_axis',(0.,1.,0.));
#963=DIRECTION('ref_axis',(-1.,0.,0.));
#964=DIRECTION('',(1.,0.,0.));
#965=DIRECTION('',(0.,0.,1.));
#966=DIRECTION('center_axis',(1.,0.,0.));
#967=DIRECTION('ref_axis',(0.,1.,0.));
#968=DIRECTION('',(0.,-1.,0.));
#969=DIRECTION('center_axis',(0.,1.,0.));
#970=DIRECTION('ref_axis',(-1.,0.,0.));
#971=DIRECTION('',(1.,0.,0.));
#972=DIRECTION('center_axis',(0.,0.,1.));
#973=DIRECTION('ref_axis',(1.,0.,0.));
#974=DIRECTION('center_axis',(0.,0.,1.));
#975=DIRECTION('ref_axis',(1.,0.,0.));
#976=CARTESIAN_POINT('',(0.,0.,0.));
#977=CARTESIAN_POINT('Origin',(13.9809418026442,-4.27494922118861,0.));
#978=CARTESIAN_POINT('',(13.8869987361083,-4.27494922118861,0.));
#979=CARTESIAN_POINT('Origin',(13.9809418026442,-4.27494922118861,0.));
#980=CARTESIAN_POINT('',(13.8869987361083,-4.27494922118861,0.1));
#981=CARTESIAN_POINT('',(13.8869987361083,-4.27494922118861,0.));
#982=CARTESIAN_POINT('Origin',(13.9809418026442,-4.27494922118861,0.1));
#983=CARTESIAN_POINT('Origin',(13.9809418026442,-4.27494922118861,0.1));
#984=CARTESIAN_POINT('',(13.9209418026442,-4.27494922118861,0.1));
#985=CARTESIAN_POINT('Origin',(13.9809418026442,-4.27494922118861,0.1));
#986=CARTESIAN_POINT('Origin',(13.9809418026442,-4.27494922118861,0.));
#987=CARTESIAN_POINT('',(13.9209418026442,-4.27494922118861,0.388740157480315));
#988=CARTESIAN_POINT('',(13.9209418026442,-4.27494922118861,0.));
#989=CARTESIAN_POINT('Origin',(13.9809418026442,-4.27494922118861,0.388740157480315));
#990=CARTESIAN_POINT('Origin',(1.38392964429413,-4.27494922118861,0.));
#991=CARTESIAN_POINT('',(1.26908123237908,-4.27494922118861,0.));
#992=CARTESIAN_POINT('Origin',(1.38392964429413,-4.27494922118861,0.));
#993=CARTESIAN_POINT('',(1.26908123237908,-4.27494922118861,0.05));
#994=CARTESIAN_POINT('',(1.26908123237908,-4.27494922118861,0.));
#995=CARTESIAN_POINT('Origin',(1.38392964429413,-4.27494922118861,0.05));
#996=CARTESIAN_POINT('Origin',(1.38392964429413,-4.27494922118861,0.05));
#997=CARTESIAN_POINT('',(1.32392964429413,-4.27494922118861,0.05));
#998=CARTESIAN_POINT('Origin',(1.38392964429413,-4.27494922118861,0.05));
#999=CARTESIAN_POINT('Origin',(1.38392964429413,-4.27494922118861,0.));
#1000=CARTESIAN_POINT('',(1.32392964429413,-4.27494922118861,0.388740157480315));
#1001=CARTESIAN_POINT('',(1.32392964429413,-4.27494922118861,0.));
#1002=CARTESIAN_POINT('Origin',(1.38392964429413,-4.27494922118861,0.388740157480315));
#1003=CARTESIAN_POINT('Origin',(1.46249435026676,-1.75526418181853,0.388740157480315));
#1004=CARTESIAN_POINT('',(1.46249435026676,-1.75526418181853,0.388740157480315));
#1005=CARTESIAN_POINT('',(1.46249435026676,-6.79463426055869,0.388740157480315));
#1006=CARTESIAN_POINT('',(1.46249435026676,-4.27494922118861,0.388740157480315));
#1007=CARTESIAN_POINT('',(1.21249435026676,-1.75526418181853,0.388740157480315));
#1008=CARTESIAN_POINT('',(1.46249435026676,-1.75526418181853,0.388740157480315));
#1009=CARTESIAN_POINT('',(1.21249435026676,-6.79463426055869,0.388740157480315));
#1010=CARTESIAN_POINT('',(1.21249435026676,-1.75526418181853,0.388740157480315));
#1011=CARTESIAN_POINT('',(1.46249435026676,-6.79463426055869,0.388740157480315));
#1012=CARTESIAN_POINT('Origin',(1.46249435026676,-1.75526418181853,0.388740157480315));
#1013=CARTESIAN_POINT('',(13.8640691534164,-6.79463426055869,0.388740157480315));
#1014=CARTESIAN_POINT('',(13.8640691534164,-1.75526418181853,0.388740157480315));
#1015=CARTESIAN_POINT('',(13.8640691534164,-1.75526418181853,0.388740157480315));
#1016=CARTESIAN_POINT('',(14.1144943502668,-6.79463426055869,0.388740157480315));
#1017=CARTESIAN_POINT('',(1.46249435026676,-6.79463426055869,0.388740157480315));
#1018=CARTESIAN_POINT('',(14.1144943502668,-1.75526418181853,0.388740157480315));
#1019=CARTESIAN_POINT('',(14.1144943502668,-1.75526418181853,0.388740157480315));
#1020=CARTESIAN_POINT('',(1.46249435026676,-1.75526418181853,0.388740157480315));
#1021=CARTESIAN_POINT('Origin',(1.46249435026676,-6.79463426055869,0.458740157480315));
#1022=CARTESIAN_POINT('',(1.46249435026676,-6.79463426055869,0.458740157480315));
#1023=CARTESIAN_POINT('',(1.46249435026676,-1.75526418181853,0.458740157480315));
#1024=CARTESIAN_POINT('',(1.46249435026676,-6.79463426055869,0.458740157480315));
#1025=CARTESIAN_POINT('',(1.21249435026676,-6.79463426055869,0.458740157480315));
#1026=CARTESIAN_POINT('',(1.46249435026676,-6.79463426055869,0.458740157480315));
#1027=CARTESIAN_POINT('',(1.21249435026676,-1.75526418181853,0.458740157480315));
#1028=CARTESIAN_POINT('',(1.21249435026676,-6.79463426055869,0.458740157480315));
#1029=CARTESIAN_POINT('',(1.46249435026676,-1.75526418181853,0.458740157480315));
#1030=CARTESIAN_POINT('Origin',(14.1144943502668,-4.27494922118861,0.423740157480315));
#1031=CARTESIAN_POINT('',(14.1144943502668,-6.79463426055869,0.458740157480315));
#1032=CARTESIAN_POINT('',(14.1144943502668,-6.79463426055869,0.388740157480315));
#1033=CARTESIAN_POINT('',(14.1144943502668,-1.75526418181853,0.458740157480315));
#1034=CARTESIAN_POINT('',(14.1144943502668,-6.79463426055869,0.458740157480315));
#1035=CARTESIAN_POINT('',(14.1144943502668,-1.75526418181853,0.458740157480315));
#1036=CARTESIAN_POINT('Origin',(1.46249435026676,-6.79463426055869,0.458740157480315));
#1037=CARTESIAN_POINT('',(13.8640691534164,-1.75526418181853,0.458740157480315));
#1038=CARTESIAN_POINT('',(13.8640691534164,-6.79463426055869,0.458740157480315));
#1039=CARTESIAN_POINT('',(13.8640691534164,-4.27494922118861,0.458740157480315));
#1040=CARTESIAN_POINT('',(1.46249435026676,-1.75526418181853,0.458740157480315));
#1041=CARTESIAN_POINT('',(1.46249435026676,-6.79463426055869,0.458740157480315));
#1042=CARTESIAN_POINT('Origin',(1.21249435026676,-4.27494922118861,0.423740157480315));
#1043=CARTESIAN_POINT('',(1.21249435026676,-1.75526418181853,0.458740157480315));
#1044=CARTESIAN_POINT('',(1.21249435026676,-6.79463426055869,0.388740157480315));
#1045=CARTESIAN_POINT('Origin',(13.8640691534164,-1.75526418181853,0.));
#1046=CARTESIAN_POINT('',(13.8640691534164,-6.79463426055869,0.590551181102362));
#1047=CARTESIAN_POINT('',(13.8640691534164,-6.79463426055869,0.));
#1048=CARTESIAN_POINT('',(13.8640691534164,-1.75526418181853,0.590551181102362));
#1049=CARTESIAN_POINT('',(13.8640691534164,-1.75526418181853,0.590551181102362));
#1050=CARTESIAN_POINT('',(13.8640691534164,-1.75526418181853,0.));
#1051=CARTESIAN_POINT('Origin',(13.8640691534164,-1.75526418181853,0.));
#1052=CARTESIAN_POINT('',(13.8640691534164,-1.75526418181853,0.078740157480315));
#1053=CARTESIAN_POINT('',(13.8640691534164,-1.75526418181853,0.));
#1054=CARTESIAN_POINT('',(13.8640691534164,-6.79463426055869,0.078740157480315));
#1055=CARTESIAN_POINT('',(13.8640691534164,-1.75526418181853,0.078740157480315));
#1056=CARTESIAN_POINT('',(13.8640691534164,-6.79463426055869,0.));
#1057=CARTESIAN_POINT('Origin',(1.46249435026676,-1.75526418181853,0.));
#1058=CARTESIAN_POINT('',(1.46249435026676,-1.75526418181853,0.590551181102362));
#1059=CARTESIAN_POINT('',(1.46249435026676,-1.75526418181853,0.590551181102362));
#1060=CARTESIAN_POINT('',(1.46249435026676,-1.75526418181853,0.));
#1061=CARTESIAN_POINT('',(1.46249435026676,-1.75526418181853,0.078740157480315));
#1062=CARTESIAN_POINT('',(1.46249435026676,-1.75526418181853,0.));
#1063=CARTESIAN_POINT('',(1.46249435026676,-1.75526418181853,0.078740157480315));
#1064=CARTESIAN_POINT('',(7.76170694869195,-1.75526418181853,0.393700787401575));
#1065=CARTESIAN_POINT('',(7.76170694869195,-1.75526418181853,0.196850393700787));
#1066=CARTESIAN_POINT('',(7.76170694869195,-1.75526418181853,0.196850393700787));
#1067=CARTESIAN_POINT('',(7.56485655499117,-1.75526418181853,0.196850393700787));
#1068=CARTESIAN_POINT('',(4.56288805105416,-1.75526418181853,0.196850393700787));
#1069=CARTESIAN_POINT('',(7.56485655499117,-1.75526418181853,0.393700787401575));
#1070=CARTESIAN_POINT('',(7.56485655499117,-1.75526418181853,0.196850393700787));
#1071=CARTESIAN_POINT('',(4.56288805105416,-1.75526418181853,0.393700787401575));
#1072=CARTESIAN_POINT('Origin',(1.46249435026676,-6.79463426055869,0.));
#1073=CARTESIAN_POINT('',(1.46249435026676,-6.79463426055869,0.590551181102362));
#1074=CARTESIAN_POINT('',(1.46249435026676,-6.79463426055869,0.590551181102362));
#1075=CARTESIAN_POINT('',(1.46249435026676,-6.79463426055869,0.));
#1076=CARTESIAN_POINT('Origin',(1.20658883845573,-2.85762638654294,0.531496062992126));
#1077=CARTESIAN_POINT('',(1.1475337203455,-6.99148465425947,0.47244094488189));
#1078=CARTESIAN_POINT('',(1.26564395656597,-6.99148465425947,0.590551181102362));
#1079=CARTESIAN_POINT('',(1.1475337203455,-6.99148465425947,0.47244094488189));
#1080=CARTESIAN_POINT('',(1.26564395656597,-1.55841378811774,0.590551181102362));
#1081=CARTESIAN_POINT('',(1.26564395656597,-2.85762638654294,0.590551181102362));
#1082=CARTESIAN_POINT('',(1.1475337203455,-1.55841378811774,0.47244094488189));
#1083=CARTESIAN_POINT('',(1.26564395656597,-1.55841378811774,0.590551181102362));
#1084=CARTESIAN_POINT('',(1.1475337203455,-2.85762638654294,0.47244094488189));
#1085=CARTESIAN_POINT('Origin',(10.9211557675896,-1.49935867000751,0.531496062992126));
#1086=CARTESIAN_POINT('',(1.26564395656597,-1.44030355189727,0.47244094488189));
#1087=CARTESIAN_POINT('',(1.26564395656597,-1.44030355189727,0.47244094488189));
#1088=CARTESIAN_POINT('',(14.0609195471171,-1.55841378811774,0.590551181102362));
#1089=CARTESIAN_POINT('',(10.9211557675896,-1.55841378811774,0.590551181102362));
#1090=CARTESIAN_POINT('',(14.0609195471171,-1.44030355189727,0.47244094488189));
#1091=CARTESIAN_POINT('',(14.0609195471171,-1.55841378811774,0.590551181102362));
#1092=CARTESIAN_POINT('',(10.9211557675896,-1.44030355189727,0.47244094488189));
#1093=CARTESIAN_POINT('Origin',(14.1199746652274,-5.69227205583428,0.531496062992126));
#1094=CARTESIAN_POINT('',(14.1790297833376,-1.55841378811774,0.47244094488189));
#1095=CARTESIAN_POINT('',(14.1790297833376,-1.55841378811774,0.47244094488189));
#1096=CARTESIAN_POINT('',(14.0609195471171,-6.99148465425947,0.590551181102362));
#1097=CARTESIAN_POINT('',(14.0609195471171,-5.69227205583428,0.590551181102362));
#1098=CARTESIAN_POINT('',(14.1790297833376,-6.99148465425947,0.47244094488189));
#1099=CARTESIAN_POINT('',(14.0609195471171,-6.99148465425947,0.590551181102362));
#1100=CARTESIAN_POINT('',(14.1790297833376,-5.69227205583428,0.47244094488189));
#1101=CARTESIAN_POINT('Origin',(4.40540773609353,-7.05053977236971,0.531496062992126));
#1102=CARTESIAN_POINT('',(14.0609195471171,-7.10959489047995,0.47244094488189));
#1103=CARTESIAN_POINT('',(14.0609195471171,-7.10959489047995,0.47244094488189));
#1104=CARTESIAN_POINT('',(4.40540773609353,-6.99148465425947,0.590551181102362));
#1105=CARTESIAN_POINT('',(1.26564395656597,-7.10959489047995,0.47244094488189));
#1106=CARTESIAN_POINT('',(1.26564395656597,-6.99148465425947,0.590551181102362));
#1107=CARTESIAN_POINT('',(4.40540773609353,-7.10959489047995,0.47244094488189));
#1108=CARTESIAN_POINT('Origin',(14.0609195471171,-6.99148465425947,0.47244094488189));
#1109=CARTESIAN_POINT('Origin',(14.0609195471171,-6.99148465425947,0.47244094488189));
#1110=CARTESIAN_POINT('Origin',(14.0609195471171,-1.55841378811774,0.47244094488189));
#1111=CARTESIAN_POINT('Origin',(14.0609195471171,-1.55841378811774,0.47244094488189));
#1112=CARTESIAN_POINT('Origin',(1.26564395656597,-1.55841378811774,0.47244094488189));
#1113=CARTESIAN_POINT('Origin',(1.26564395656597,-1.55841378811774,0.47244094488189));
#1114=CARTESIAN_POINT('Origin',(1.26564395656597,-6.99148465425947,0.47244094488189));
#1115=CARTESIAN_POINT('Origin',(1.26564395656597,-6.99148465425947,0.47244094488189));
#1116=CARTESIAN_POINT('Origin',(14.0609195471171,-1.55841378811774,0.));
#1117=CARTESIAN_POINT('',(14.1790297833376,-1.55841378811774,0.));
#1118=CARTESIAN_POINT('',(14.1790297833376,-1.55841378811774,0.));
#1119=CARTESIAN_POINT('',(14.0609195471171,-1.44030355189727,0.));
#1120=CARTESIAN_POINT('Origin',(14.0609195471171,-1.55841378811774,0.));
#1121=CARTESIAN_POINT('',(14.0609195471171,-1.44030355189727,0.));
#1122=CARTESIAN_POINT('Origin',(14.1790297833376,-7.10959489047995,0.));
#1123=CARTESIAN_POINT('',(14.1790297833376,-6.99148465425947,0.));
#1124=CARTESIAN_POINT('',(14.1790297833376,-6.99148465425947,0.));
#1125=CARTESIAN_POINT('',(14.1790297833376,-1.44030355189727,0.));
#1126=CARTESIAN_POINT('Origin',(14.0609195471171,-6.99148465425947,0.));
#1127=CARTESIAN_POINT('',(14.0609195471171,-7.10959489047995,0.));
#1128=CARTESIAN_POINT('',(14.0609195471171,-7.10959489047995,0.));
#1129=CARTESIAN_POINT('Origin',(14.0609195471171,-6.99148465425947,0.));
#1130=CARTESIAN_POINT('Origin',(1.1475337203455,-7.10959489047995,0.));
#1131=CARTESIAN_POINT('',(1.26564395656597,-7.10959489047995,0.));
#1132=CARTESIAN_POINT('',(1.26564395656597,-7.10959489047995,0.));
#1133=CARTESIAN_POINT('',(14.1790297833376,-7.10959489047995,0.));
#1134=CARTESIAN_POINT('Origin',(7.66328175184156,-4.27494922118861,0.590551181102362));
#1135=CARTESIAN_POINT('',(13.8640691534164,-6.79463426055869,0.590551181102362));
#1136=CARTESIAN_POINT('Origin',(1.26564395656597,-1.55841378811774,0.));
#1137=CARTESIAN_POINT('',(1.26564395656597,-1.44030355189727,0.));
#1138=CARTESIAN_POINT('',(1.26564395656597,-1.44030355189727,0.));
#1139=CARTESIAN_POINT('',(1.1475337203455,-1.55841378811774,0.));
#1140=CARTESIAN_POINT('Origin',(1.26564395656597,-1.55841378811774,0.));
#1141=CARTESIAN_POINT('',(1.1475337203455,-1.55841378811774,0.));
#1142=CARTESIAN_POINT('Origin',(1.1475337203455,-1.44030355189727,0.));
#1143=CARTESIAN_POINT('',(1.1475337203455,-6.99148465425947,0.));
#1144=CARTESIAN_POINT('',(1.1475337203455,-7.10959489047995,0.));
#1145=CARTESIAN_POINT('',(1.1475337203455,-6.99148465425947,0.));
#1146=CARTESIAN_POINT('Origin',(1.26564395656597,-6.99148465425947,0.));
#1147=CARTESIAN_POINT('Origin',(1.26564395656597,-6.99148465425947,0.));
#1148=CARTESIAN_POINT('Origin',(7.56485655499117,-1.75526418181853,0.393700787401575));
#1149=CARTESIAN_POINT('',(7.56485655499117,-1.44030355189727,0.393700787401575));
#1150=CARTESIAN_POINT('',(7.56485655499117,-1.75526418181853,0.393700787401575));
#1151=CARTESIAN_POINT('',(7.56485655499117,-1.44030355189727,0.196850393700787));
#1152=CARTESIAN_POINT('',(7.56485655499117,-1.75526418181853,0.196850393700787));
#1153=CARTESIAN_POINT('',(7.56485655499117,-1.44030355189727,0.196850393700787));
#1154=CARTESIAN_POINT('Origin',(7.76170694869195,-1.44030355189727,0.393700787401575));
#1155=CARTESIAN_POINT('',(7.76170694869195,-1.44030355189727,0.393700787401575));
#1156=CARTESIAN_POINT('',(7.76170694869195,-1.44030355189727,0.393700787401575));
#1157=CARTESIAN_POINT('',(7.76170694869195,-1.44030355189727,0.196850393700787));
#1158=CARTESIAN_POINT('',(7.76170694869195,-1.44030355189727,0.196850393700787));
#1159=CARTESIAN_POINT('',(7.76170694869195,-1.44030355189727,0.196850393700787));
#1160=CARTESIAN_POINT('Origin',(7.66328175184156,-1.5977838668579,0.393700787401575));
#1161=CARTESIAN_POINT('',(10.9211557675896,-1.44030355189727,0.393700787401575));
#1162=CARTESIAN_POINT('Origin',(7.66328175184156,-1.5977838668579,0.196850393700787));
#1163=CARTESIAN_POINT('',(10.9211557675896,-1.44030355189727,0.196850393700787));
#1164=CARTESIAN_POINT('Origin',(13.8640691534164,-6.79463426055869,0.));
#1165=CARTESIAN_POINT('',(1.46249435026676,-6.79463426055869,0.078740157480315));
#1166=CARTESIAN_POINT('',(13.8640691534164,-6.79463426055869,0.078740157480315));
#1167=CARTESIAN_POINT('',(1.46249435026676,-6.79463426055869,0.));
#1168=CARTESIAN_POINT('Origin',(1.46249435026676,-6.79463426055869,0.));
#1169=CARTESIAN_POINT('',(1.46249435026676,-6.79463426055869,0.078740157480315));
#1170=CARTESIAN_POINT('Origin',(14.1790297833376,-1.44030355189727,0.));
#1171=CARTESIAN_POINT('',(1.1475337203455,-1.44030355189727,0.));
#1172=CARTESIAN_POINT('Origin',(7.66328175184156,-4.27494922118861,0.078740157480315));
#1173=CARTESIAN_POINT('Origin',(7.66328175184156,-4.27494922118861,0.));
#1174=UNCERTAINTY_MEASURE_WITH_UNIT(LENGTH_MEASURE(0.000393700787401575),
#1179,'DISTANCE_ACCURACY_VALUE',
'Maximum model space distance between geometric entities at asserted c
onnectivities');
#1175=UNCERTAINTY_MEASURE_WITH_UNIT(LENGTH_MEASURE(0.000393700787401575),
#1179,'DISTANCE_ACCURACY_VALUE',
'Maximum model space distance between geometric entities at asserted c
onnectivities');
#1176=(
GEOMETRIC_REPRESENTATION_CONTEXT(3)
GLOBAL_UNCERTAINTY_ASSIGNED_CONTEXT((#1174))
GLOBAL_UNIT_ASSIGNED_CONTEXT((#1179,#1182,#1183))
REPRESENTATION_CONTEXT('','3D')
);
#1177=(
GEOMETRIC_REPRESENTATION_CONTEXT(3)
GLOBAL_UNCERTAINTY_ASSIGNED_CONTEXT((#1175))
GLOBAL_UNIT_ASSIGNED_CONTEXT((#1179,#1182,#1183))
REPRESENTATION_CONTEXT('','3D')
);
#1178=DIMENSIONAL_EXPONENTS(1.,0.,0.,0.,0.,0.,0.);
#1179=(
CONVERSION_BASED_UNIT('inch',#1181)
LENGTH_UNIT()
NAMED_UNIT(#1178)
);
#1180=(
LENGTH_UNIT()
NAMED_UNIT(*)
SI_UNIT(.MILLI.,.METRE.)
);
#1181=LENGTH_MEASURE_WITH_UNIT(LENGTH_MEASURE(25.4),#1180);
#1182=(
NAMED_UNIT(*)
PLANE_ANGLE_UNIT()
SI_UNIT($,.RADIAN.)
);
#1183=(
NAMED_UNIT(*)
SI_UNIT($,.STERADIAN.)
SOLID_ANGLE_UNIT()
);
#1184=SHAPE_DEFINITION_REPRESENTATION(#1185,#1186);
#1185=PRODUCT_DEFINITION_SHAPE('',$,#1188);
#1186=SHAPE_REPRESENTATION('',(#722),#1176);
#1187=PRODUCT_DEFINITION_CONTEXT('part definition',#1192,'design');
#1188=PRODUCT_DEFINITION('case','case v17',#1189,#1187);
#1189=PRODUCT_DEFINITION_FORMATION('',$,#1194);
#1190=PRODUCT_RELATED_PRODUCT_CATEGORY('case v17','case v17',(#1194));
#1191=APPLICATION_PROTOCOL_DEFINITION('international standard',
'automotive_design',2009,#1192);
#1192=APPLICATION_CONTEXT(
'Core Data for Automotive Mechanical Design Process');
#1193=PRODUCT_CONTEXT('part definition',#1192,'mechanical');
#1194=PRODUCT('case','case v17',$,(#1193));
#1195=PRESENTATION_STYLE_ASSIGNMENT((#1196));
#1196=SURFACE_STYLE_USAGE(.BOTH.,#1197);
#1197=SURFACE_SIDE_STYLE('',(#1198));
#1198=SURFACE_STYLE_FILL_AREA(#1199);
#1199=FILL_AREA_STYLE('Steel - Satin',(#1200));
#1200=FILL_AREA_STYLE_COLOUR('Steel - Satin',#1201);
#1201=COLOUR_RGB('Steel - Satin',0.627450980392157,0.627450980392157,0.627450980392157);
ENDSEC;
END-ISO-10303-21;
